{"glyphs":{"0":{"ha":967,"x_min":64,"x_max":904,"o":"m 483 -22 q 260 40 354 -22 q 115 218 165 103 q 64 492 64 333 q 115 767 64 651 q 260 946 165 883 q 483 1008 354 1008 q 707 946 613 1008 q 853 767 801 883 q 904 492 904 651 q 853 218 904 333 q 708 40 801 103 q 483 -22 614 -22 m 483 156 q 634 240 582 156 q 686 492 686 325 q 634 744 686 658 q 483 831 582 831 q 333 744 385 831 q 281 492 281 658 q 333 240 281 325 q 483 156 385 156 z "},"1":{"ha":624,"x_min":53,"x_max":478,"o":"m 267 0 l 267 649 l 53 649 l 53 803 l 138 803 q 269 842 229 803 q 310 986 310 882 l 478 986 l 478 0 l 267 0 z "},"2":{"ha":907,"x_min":81,"x_max":828,"o":"m 81 0 q 115 219 81 126 q 226 385 149 313 q 431 526 303 458 q 538 588 499 561 q 594 643 578 615 q 611 708 611 671 q 576 797 611 763 q 472 831 540 831 q 352 786 396 831 q 299 660 308 742 l 82 672 q 197 919 96 829 q 469 1008 297 1008 q 734 926 640 1008 q 828 711 828 844 q 802 581 828 633 q 719 483 776 528 q 569 389 663 439 q 393 272 450 325 q 332 178 336 218 l 828 178 l 828 0 l 81 0 z "},"3":{"ha":907,"x_min":64,"x_max":843,"o":"m 453 -22 q 170 62 269 -22 q 64 289 71 146 l 279 297 q 331 190 286 224 q 453 156 376 156 q 576 190 526 156 q 626 292 626 224 q 578 398 626 363 q 446 433 529 433 l 357 433 l 357 590 l 446 590 q 552 617 510 590 q 594 710 594 644 q 560 798 594 765 q 450 831 525 831 q 338 800 375 831 q 292 721 300 769 l 79 732 q 190 933 93 857 q 450 1008 286 1008 q 718 934 625 1008 q 811 732 811 860 q 767 602 811 656 q 640 522 722 549 q 790 433 738 496 q 843 276 843 369 q 795 116 843 183 q 660 13 747 49 q 453 -22 572 -22 z "},"4":{"ha":944,"x_min":64,"x_max":881,"o":"m 554 0 l 554 188 l 64 188 l 64 356 l 514 986 l 765 986 l 765 365 l 881 365 l 881 188 l 765 188 l 765 0 l 554 0 m 288 365 l 554 365 l 554 726 l 288 365 z "},"5":{"ha":932,"x_min":78,"x_max":854,"o":"m 464 -22 q 185 58 282 -22 q 78 272 89 138 l 292 282 q 347 187 303 218 q 464 156 392 156 q 591 201 544 156 q 638 328 638 247 q 590 455 638 407 q 463 503 543 503 q 360 476 403 503 q 300 410 317 450 l 89 410 l 157 986 l 786 986 l 786 808 l 336 808 l 308 581 q 399 638 344 617 q 522 658 454 658 q 699 615 625 658 q 814 497 774 571 q 854 328 854 422 q 806 142 854 221 q 669 21 757 64 q 464 -22 582 -22 z "},"6":{"ha":918,"x_min":78,"x_max":839,"o":"m 461 -22 q 174 98 271 -22 q 78 435 78 218 q 122 728 78 599 q 259 933 167 858 q 494 1008 351 1008 q 722 939 638 1008 q 835 750 807 869 l 639 736 q 590 808 622 782 q 494 835 558 835 q 351 766 406 835 q 283 553 297 697 q 372 620 317 593 q 506 647 428 647 q 681 607 606 647 q 798 494 757 567 q 839 325 839 422 q 792 137 839 214 q 659 19 744 60 q 461 -22 574 -22 m 460 146 q 582 194 535 146 q 629 322 629 242 q 584 449 629 400 q 467 497 539 497 q 340 449 389 497 q 290 322 290 401 q 336 195 290 244 q 460 146 382 146 z "},"7":{"ha":828,"x_min":50,"x_max":778,"o":"m 250 0 q 335 435 250 229 q 564 808 421 642 l 50 808 l 50 986 l 778 986 l 778 821 q 604 581 674 704 q 499 317 535 458 q 464 0 464 175 l 250 0 z "},"8":{"ha":928,"x_min":50,"x_max":878,"o":"m 464 -22 q 163 51 275 -22 q 50 268 50 125 q 103 433 50 365 q 250 529 157 500 q 138 609 179 556 q 97 738 97 663 q 192 933 97 858 q 464 1008 288 1008 q 735 933 640 1008 q 829 738 829 858 q 788 609 829 663 q 675 529 747 556 q 824 433 769 500 q 878 268 878 365 q 765 51 878 125 q 464 -22 653 -22 m 464 599 q 574 627 535 599 q 614 715 614 656 q 576 800 614 768 q 464 832 538 832 q 351 800 390 832 q 313 715 313 768 q 353 627 313 656 q 464 599 393 599 m 464 156 q 606 193 553 156 q 660 300 660 231 q 609 409 660 368 q 464 450 558 450 q 318 409 369 450 q 267 300 267 368 q 321 193 267 231 q 464 156 375 156 z "},"9":{"ha":924,"x_min":78,"x_max":846,"o":"m 436 -22 q 214 40 299 -22 q 94 222 129 103 l 297 235 q 436 151 328 151 q 580 215 531 151 q 638 424 629 279 q 406 321 561 321 q 234 362 308 321 q 119 478 160 403 q 78 651 78 553 q 124 841 78 761 q 253 965 169 921 q 447 1008 336 1008 q 747 883 649 1008 q 846 528 846 758 q 747 124 846 269 q 436 -22 649 -22 m 451 472 q 576 521 529 472 q 622 654 622 569 q 578 790 622 739 q 454 840 533 840 q 333 790 378 840 q 289 656 289 740 q 333 522 289 571 q 451 472 378 472 z "},"A":{"ha":1029,"x_min":35,"x_max":996,"o":"m 35 0 l 390 986 l 640 986 l 996 0 l 776 0 l 704 210 l 325 210 l 253 0 l 35 0 m 385 383 l 646 383 l 515 764 l 385 383 z "},"Á":{"ha":1029,"x_min":35,"x_max":996,"o":"m 35 0 l 390 986 l 640 986 l 996 0 l 776 0 l 704 210 l 325 210 l 253 0 l 35 0 m 385 383 l 646 383 l 515 764 l 385 383 m 421 1063 l 501 1268 l 704 1268 l 579 1063 l 421 1063 z "},"Ă":{"ha":1029,"x_min":35,"x_max":996,"o":"m 35 0 l 390 986 l 640 986 l 996 0 l 776 0 l 704 210 l 325 210 l 253 0 l 35 0 m 385 383 l 646 383 l 515 764 l 385 383 m 515 1064 q 361 1117 419 1064 q 299 1268 303 1171 l 418 1268 q 449 1199 424 1219 q 515 1178 474 1178 q 582 1199 557 1178 q 613 1268 607 1219 l 733 1268 q 671 1117 729 1171 q 515 1064 613 1064 z "},"Ǎ":{"ha":1029,"x_min":35,"x_max":996,"o":"m 35 0 l 390 986 l 640 986 l 996 0 l 776 0 l 704 210 l 325 210 l 253 0 l 35 0 m 385 383 l 646 383 l 515 764 l 385 383 m 282 1275 l 426 1275 l 515 1151 l 603 1275 l 749 1275 l 615 1063 l 415 1063 l 282 1275 z "},"Â":{"ha":1029,"x_min":35,"x_max":996,"o":"m 35 0 l 390 986 l 640 986 l 996 0 l 776 0 l 704 210 l 325 210 l 253 0 l 35 0 m 385 383 l 646 383 l 515 764 l 385 383 m 282 1063 l 415 1275 l 615 1275 l 749 1063 l 603 1063 l 515 1186 l 426 1063 l 282 1063 z "},"Ä":{"ha":1029,"x_min":35,"x_max":996,"o":"m 35 0 l 390 986 l 640 986 l 996 0 l 776 0 l 704 210 l 325 210 l 253 0 l 35 0 m 385 383 l 646 383 l 515 764 l 385 383 m 267 1074 l 267 1242 l 465 1242 l 465 1074 l 267 1074 m 564 1074 l 564 1242 l 764 1242 l 764 1074 l 564 1074 z "},"À":{"ha":1029,"x_min":35,"x_max":996,"o":"m 35 0 l 390 986 l 640 986 l 996 0 l 776 0 l 704 210 l 325 210 l 253 0 l 35 0 m 385 383 l 646 383 l 515 764 l 385 383 m 450 1072 l 325 1276 l 526 1276 l 608 1072 l 450 1072 z "},"Ā":{"ha":1029,"x_min":35,"x_max":996,"o":"m 35 0 l 390 986 l 640 986 l 996 0 l 776 0 l 704 210 l 325 210 l 253 0 l 35 0 m 385 383 l 646 383 l 515 764 l 385 383 m 308 1085 l 308 1238 l 724 1238 l 724 1085 l 308 1085 z "},"Ą":{"ha":1029,"x_min":35,"x_max":1046,"o":"m 35 0 l 390 986 l 640 986 l 996 0 l 776 0 l 704 210 l 325 210 l 253 0 l 35 0 m 385 383 l 646 383 l 515 764 l 385 383 m 899 -301 q 783 -271 824 -301 q 742 -183 742 -240 q 763 -101 742 -140 q 810 -28 785 -61 l 857 33 l 996 0 l 953 -56 q 922 -104 933 -83 q 910 -143 910 -125 q 920 -169 910 -160 q 946 -178 931 -178 q 1008 -160 983 -178 l 1046 -265 q 985 -291 1028 -281 q 899 -301 943 -301 z "},"Å":{"ha":1031,"x_min":35,"x_max":996,"o":"m 35 0 l 390 986 l 640 986 l 996 0 l 776 0 l 704 210 l 325 210 l 253 0 l 35 0 m 385 383 l 646 383 l 515 764 l 385 383 m 514 1049 q 413 1089 454 1049 q 372 1189 372 1129 q 413 1290 372 1250 q 514 1331 454 1331 q 616 1290 575 1331 q 657 1189 657 1250 q 616 1089 657 1129 q 514 1049 575 1049 m 514 1138 q 552 1152 538 1138 q 567 1189 567 1167 q 552 1227 567 1213 q 514 1242 538 1242 q 477 1227 492 1242 q 463 1189 463 1213 q 477 1152 463 1167 q 514 1138 492 1138 z "},"Ã":{"ha":1031,"x_min":35,"x_max":996,"o":"m 35 0 l 390 986 l 640 986 l 996 0 l 776 0 l 704 210 l 325 210 l 253 0 l 35 0 m 385 383 l 646 383 l 515 764 l 385 383 m 586 1083 q 531 1094 554 1083 q 481 1128 508 1104 q 453 1147 465 1140 q 428 1153 442 1153 q 392 1136 407 1153 q 374 1076 378 1119 l 271 1076 q 311 1220 271 1167 q 424 1274 351 1274 q 483 1263 457 1274 q 538 1229 510 1251 q 590 1204 568 1204 q 625 1222 611 1204 q 642 1283 639 1239 l 746 1283 q 703 1138 744 1192 q 586 1083 663 1083 z "},"Æ":{"ha":1456,"x_min":35,"x_max":1392,"o":"m 35 0 l 563 986 l 1381 986 l 1381 808 l 947 808 l 947 582 l 1364 582 l 1364 407 l 947 407 l 947 178 l 1392 178 l 1392 0 l 736 0 l 736 211 l 365 211 l 257 0 l 35 0 m 736 811 l 676 811 l 454 382 l 736 382 l 736 811 z "},"B":{"ha":976,"x_min":103,"x_max":906,"o":"m 103 0 l 103 986 l 486 986 q 767 922 669 986 q 864 718 864 857 q 811 574 864 629 q 660 510 758 519 q 842 438 779 500 q 906 272 906 375 q 809 67 906 135 q 533 0 713 0 l 103 0 m 314 578 l 481 578 q 605 608 558 578 q 651 696 651 638 q 606 785 651 757 q 481 814 561 814 l 314 814 l 314 578 m 314 172 l 524 172 q 646 203 599 172 q 693 297 693 233 q 647 392 693 360 q 524 425 600 425 l 314 425 l 314 172 z "},"C":{"ha":1015,"x_min":57,"x_max":967,"o":"m 519 -22 q 280 39 385 -22 q 116 215 175 100 q 57 492 57 331 q 114 765 57 649 q 276 944 171 881 q 522 1008 381 1008 q 824 913 717 1008 q 963 642 931 818 l 743 633 q 669 778 725 726 q 522 831 614 831 q 340 738 406 831 q 274 492 274 646 q 340 246 274 336 q 521 156 407 156 q 676 212 621 156 q 746 368 731 268 l 967 360 q 824 78 936 179 q 519 -22 711 -22 z "},"Ć":{"ha":1015,"x_min":57,"x_max":967,"o":"m 519 -22 q 280 39 385 -22 q 116 215 175 100 q 57 492 57 331 q 114 765 57 649 q 276 944 171 881 q 522 1008 381 1008 q 824 913 717 1008 q 963 642 931 818 l 743 633 q 669 778 725 726 q 522 831 614 831 q 340 738 406 831 q 274 492 274 646 q 340 246 274 336 q 521 156 407 156 q 676 212 621 156 q 746 368 731 268 l 967 360 q 824 78 936 179 q 519 -22 711 -22 m 428 1063 l 508 1268 l 711 1268 l 586 1063 l 428 1063 z "},"Č":{"ha":1015,"x_min":57,"x_max":967,"o":"m 519 -22 q 280 39 385 -22 q 116 215 175 100 q 57 492 57 331 q 114 765 57 649 q 276 944 171 881 q 522 1008 381 1008 q 824 913 717 1008 q 963 642 931 818 l 743 633 q 669 778 725 726 q 522 831 614 831 q 340 738 406 831 q 274 492 274 646 q 340 246 274 336 q 521 156 407 156 q 676 212 621 156 q 746 368 731 268 l 967 360 q 824 78 936 179 q 519 -22 711 -22 m 289 1275 l 433 1275 l 522 1151 l 610 1275 l 756 1275 l 622 1063 l 422 1063 l 289 1275 z "},"Ç":{"ha":1015,"x_min":57,"x_max":967,"o":"m 519 -22 q 280 39 385 -22 q 116 215 175 100 q 57 492 57 331 q 114 765 57 649 q 276 944 171 881 q 522 1008 381 1008 q 824 913 717 1008 q 963 642 931 818 l 743 633 q 669 778 725 726 q 522 831 614 831 q 340 738 406 831 q 274 492 274 646 q 340 246 274 336 q 521 156 407 156 q 676 212 621 156 q 746 368 731 268 l 967 360 q 824 78 936 179 q 519 -22 711 -22 m 515 -322 q 401 -290 446 -322 q 338 -207 356 -258 l 429 -168 q 459 -208 440 -194 q 511 -221 478 -221 q 560 -208 542 -221 q 578 -171 578 -194 q 560 -131 578 -146 q 488 -117 543 -117 l 431 -62 l 476 14 l 596 14 l 557 -43 q 659 -87 628 -50 q 690 -175 690 -124 q 639 -286 690 -250 q 515 -322 588 -322 z "},"Ĉ":{"ha":1015,"x_min":57,"x_max":967,"o":"m 519 -22 q 280 39 385 -22 q 116 215 175 100 q 57 492 57 331 q 114 765 57 649 q 276 944 171 881 q 522 1008 381 1008 q 824 913 717 1008 q 963 642 931 818 l 743 633 q 669 778 725 726 q 522 831 614 831 q 340 738 406 831 q 274 492 274 646 q 340 246 274 336 q 521 156 407 156 q 676 212 621 156 q 746 368 731 268 l 967 360 q 824 78 936 179 q 519 -22 711 -22 m 289 1063 l 422 1275 l 622 1275 l 756 1063 l 610 1063 l 522 1186 l 433 1063 l 289 1063 z "},"Ċ":{"ha":1015,"x_min":57,"x_max":967,"o":"m 519 -22 q 280 39 385 -22 q 116 215 175 100 q 57 492 57 331 q 114 765 57 649 q 276 944 171 881 q 522 1008 381 1008 q 824 913 717 1008 q 963 642 931 818 l 743 633 q 669 778 725 726 q 522 831 614 831 q 340 738 406 831 q 274 492 274 646 q 340 246 274 336 q 521 156 407 156 q 676 212 621 156 q 746 368 731 268 l 967 360 q 824 78 936 179 q 519 -22 711 -22 m 414 1078 l 414 1244 l 629 1244 l 629 1078 l 414 1078 z "},"D":{"ha":997,"x_min":103,"x_max":942,"o":"m 103 0 l 103 986 l 443 986 q 812 858 682 986 q 942 492 942 729 q 814 128 942 256 q 451 0 686 0 l 103 0 m 314 178 l 443 178 q 655 255 586 178 q 724 493 724 332 q 655 731 724 653 q 443 808 586 808 l 314 808 l 314 178 z "},"Ď":{"ha":997,"x_min":103,"x_max":942,"o":"m 103 0 l 103 986 l 443 986 q 812 858 682 986 q 942 492 942 729 q 814 128 942 256 q 451 0 686 0 l 103 0 m 314 178 l 443 178 q 655 255 586 178 q 724 493 724 332 q 655 731 724 653 q 443 808 586 808 l 314 808 l 314 178 m 219 1275 l 364 1275 l 453 1151 l 540 1275 l 686 1275 l 553 1063 l 353 1063 l 219 1275 z "},"Đ":{"ha":997,"x_min":13,"x_max":942,"o":"m 103 0 l 103 986 l 443 986 q 812 858 682 986 q 942 492 942 729 q 814 128 942 256 q 451 0 686 0 l 103 0 m 314 178 l 443 178 q 655 255 586 178 q 724 493 724 332 q 655 731 724 653 q 443 808 586 808 l 314 808 l 314 178 m 13 414 l 13 574 l 571 574 l 571 414 l 13 414 z "},"Ð":{"ha":997,"x_min":13,"x_max":942,"o":"m 103 0 l 103 986 l 443 986 q 812 858 682 986 q 942 492 942 729 q 814 128 942 256 q 451 0 686 0 l 103 0 m 314 178 l 443 178 q 655 255 586 178 q 724 493 724 332 q 655 731 724 653 q 443 808 586 808 l 314 808 l 314 178 m 13 414 l 13 574 l 571 574 l 571 414 l 13 414 z "},"E":{"ha":864,"x_min":103,"x_max":800,"o":"m 103 0 l 103 986 l 789 986 l 789 808 l 314 808 l 314 582 l 772 582 l 772 407 l 314 407 l 314 178 l 800 178 l 800 0 l 103 0 z "},"É":{"ha":864,"x_min":103,"x_max":800,"o":"m 103 0 l 103 986 l 789 986 l 789 808 l 314 808 l 314 582 l 772 582 l 772 407 l 314 407 l 314 178 l 800 178 l 800 0 l 103 0 m 353 1063 l 433 1268 l 636 1268 l 511 1063 l 353 1063 z "},"Ě":{"ha":864,"x_min":103,"x_max":800,"o":"m 103 0 l 103 986 l 789 986 l 789 808 l 314 808 l 314 582 l 772 582 l 772 407 l 314 407 l 314 178 l 800 178 l 800 0 l 103 0 m 214 1275 l 358 1275 l 447 1151 l 535 1275 l 681 1275 l 547 1063 l 347 1063 l 214 1275 z "},"Ê":{"ha":864,"x_min":103,"x_max":800,"o":"m 103 0 l 103 986 l 789 986 l 789 808 l 314 808 l 314 582 l 772 582 l 772 407 l 314 407 l 314 178 l 800 178 l 800 0 l 103 0 m 214 1063 l 347 1275 l 547 1275 l 681 1063 l 535 1063 l 447 1186 l 358 1063 l 214 1063 z "},"Ë":{"ha":864,"x_min":103,"x_max":800,"o":"m 103 0 l 103 986 l 789 986 l 789 808 l 314 808 l 314 582 l 772 582 l 772 407 l 314 407 l 314 178 l 800 178 l 800 0 l 103 0 m 199 1074 l 199 1242 l 397 1242 l 397 1074 l 199 1074 m 496 1074 l 496 1242 l 696 1242 l 696 1074 l 496 1074 z "},"Ė":{"ha":864,"x_min":103,"x_max":800,"o":"m 103 0 l 103 986 l 789 986 l 789 808 l 314 808 l 314 582 l 772 582 l 772 407 l 314 407 l 314 178 l 800 178 l 800 0 l 103 0 m 340 1078 l 340 1244 l 556 1244 l 556 1078 l 340 1078 z "},"È":{"ha":864,"x_min":103,"x_max":800,"o":"m 103 0 l 103 986 l 789 986 l 789 808 l 314 808 l 314 582 l 772 582 l 772 407 l 314 407 l 314 178 l 800 178 l 800 0 l 103 0 m 381 1072 l 256 1276 l 457 1276 l 539 1072 l 381 1072 z "},"Ē":{"ha":864,"x_min":103,"x_max":800,"o":"m 103 0 l 103 986 l 789 986 l 789 808 l 314 808 l 314 582 l 772 582 l 772 407 l 314 407 l 314 178 l 800 178 l 800 0 l 103 0 m 240 1085 l 240 1238 l 656 1238 l 656 1085 l 240 1085 z "},"Ę":{"ha":864,"x_min":103,"x_max":850,"o":"m 103 0 l 103 986 l 789 986 l 789 808 l 314 808 l 314 582 l 772 582 l 772 407 l 314 407 l 314 178 l 800 178 l 800 0 l 103 0 m 703 -301 q 587 -271 628 -301 q 546 -183 546 -240 q 567 -101 546 -140 q 614 -28 589 -61 l 661 33 l 800 0 l 757 -56 q 726 -104 738 -83 q 714 -143 714 -125 q 724 -169 714 -160 q 750 -178 735 -178 q 813 -160 788 -178 l 850 -265 q 790 -291 832 -281 q 703 -301 747 -301 z "},"Ẽ":{"ha":864,"x_min":103,"x_max":800,"o":"m 103 0 l 103 986 l 789 986 l 789 808 l 314 808 l 314 582 l 772 582 l 772 407 l 314 407 l 314 178 l 800 178 l 800 0 l 103 0 m 524 1075 q 469 1085 492 1075 q 418 1119 446 1096 q 391 1138 403 1132 q 365 1144 379 1144 q 330 1128 344 1144 q 311 1068 315 1111 l 208 1068 q 249 1212 208 1158 q 361 1265 289 1265 q 421 1254 394 1265 q 475 1221 447 1243 q 528 1196 506 1196 q 563 1213 549 1196 q 579 1275 576 1231 l 683 1275 q 641 1129 682 1183 q 524 1075 600 1075 z "},"Ə":{"ha":1049,"x_min":57,"x_max":992,"o":"m 992 493 q 927 209 992 324 q 754 36 863 94 q 515 -22 646 -22 q 341 10 424 -22 q 194 105 258 42 q 94 263 131 168 q 57 483 57 358 l 57 561 l 771 561 q 688 760 757 690 q 514 831 618 831 q 392 793 447 831 q 307 683 338 756 l 85 696 q 242 924 131 840 q 515 1008 354 1008 q 762 948 654 1008 q 931 772 869 888 q 992 493 992 657 m 517 156 q 688 217 621 156 q 769 396 754 278 l 282 396 q 362 213 301 271 q 517 156 422 156 z "},"F":{"ha":839,"x_min":103,"x_max":783,"o":"m 103 0 l 103 986 l 783 986 l 783 808 l 314 808 l 314 569 l 758 569 l 758 394 l 314 394 l 314 0 l 103 0 z "},"G":{"ha":1022,"x_min":57,"x_max":958,"o":"m 511 -22 q 267 43 369 -22 q 111 224 165 108 q 57 492 57 340 q 113 757 57 640 q 273 941 168 874 q 525 1008 378 1008 q 819 914 717 1008 q 956 663 922 819 l 736 653 q 672 783 721 735 q 526 831 622 831 q 385 786 442 831 q 301 665 329 742 q 274 492 274 589 q 301 317 274 393 q 385 199 328 242 q 529 156 442 156 q 685 213 628 156 q 750 358 743 269 l 526 358 l 526 513 l 958 513 l 958 0 l 828 0 l 819 140 q 699 22 782 67 q 511 -22 617 -22 z "},"Ğ":{"ha":1022,"x_min":57,"x_max":958,"o":"m 511 -22 q 267 43 369 -22 q 111 224 165 108 q 57 492 57 340 q 113 757 57 640 q 273 941 168 874 q 525 1008 378 1008 q 819 914 717 1008 q 956 663 922 819 l 736 653 q 672 783 721 735 q 526 831 622 831 q 385 786 442 831 q 301 665 329 742 q 274 492 274 589 q 301 317 274 393 q 385 199 328 242 q 529 156 442 156 q 685 213 628 156 q 750 358 743 269 l 526 358 l 526 513 l 958 513 l 958 0 l 828 0 l 819 140 q 699 22 782 67 q 511 -22 617 -22 m 525 1064 q 371 1117 429 1064 q 308 1268 313 1171 l 428 1268 q 458 1199 433 1219 q 525 1178 483 1178 q 592 1199 567 1178 q 622 1268 617 1219 l 743 1268 q 681 1117 739 1171 q 525 1064 622 1064 z "},"Ǧ":{"ha":1022,"x_min":57,"x_max":958,"o":"m 511 -22 q 267 43 369 -22 q 111 224 165 108 q 57 492 57 340 q 113 757 57 640 q 273 941 168 874 q 525 1008 378 1008 q 819 914 717 1008 q 956 663 922 819 l 736 653 q 672 783 721 735 q 526 831 622 831 q 385 786 442 831 q 301 665 329 742 q 274 492 274 589 q 301 317 274 393 q 385 199 328 242 q 529 156 442 156 q 685 213 628 156 q 750 358 743 269 l 526 358 l 526 513 l 958 513 l 958 0 l 828 0 l 819 140 q 699 22 782 67 q 511 -22 617 -22 m 293 1275 l 438 1275 l 526 1151 l 614 1275 l 760 1275 l 626 1063 l 426 1063 l 293 1275 z "},"Ĝ":{"ha":1022,"x_min":57,"x_max":958,"o":"m 511 -22 q 267 43 369 -22 q 111 224 165 108 q 57 492 57 340 q 113 757 57 640 q 273 941 168 874 q 525 1008 378 1008 q 819 914 717 1008 q 956 663 922 819 l 736 653 q 672 783 721 735 q 526 831 622 831 q 385 786 442 831 q 301 665 329 742 q 274 492 274 589 q 301 317 274 393 q 385 199 328 242 q 529 156 442 156 q 685 213 628 156 q 750 358 743 269 l 526 358 l 526 513 l 958 513 l 958 0 l 828 0 l 819 140 q 699 22 782 67 q 511 -22 617 -22 m 293 1063 l 426 1275 l 626 1275 l 760 1063 l 614 1063 l 526 1186 l 438 1063 l 293 1063 z "},"Ģ":{"ha":1022,"x_min":57,"x_max":958,"o":"m 511 -22 q 267 43 369 -22 q 111 224 165 108 q 57 492 57 340 q 113 757 57 640 q 273 941 168 874 q 525 1008 378 1008 q 819 914 717 1008 q 956 663 922 819 l 736 653 q 672 783 721 735 q 526 831 622 831 q 385 786 442 831 q 301 665 329 742 q 274 492 274 589 q 301 317 274 393 q 385 199 328 242 q 529 156 442 156 q 685 213 628 156 q 750 358 743 269 l 526 358 l 526 513 l 958 513 l 958 0 l 828 0 l 819 140 q 699 22 782 67 q 511 -22 617 -22 m 417 -351 l 489 -229 l 440 -229 l 440 -68 l 621 -68 l 621 -214 l 539 -351 l 417 -351 z "},"Ġ":{"ha":1022,"x_min":57,"x_max":958,"o":"m 511 -22 q 267 43 369 -22 q 111 224 165 108 q 57 492 57 340 q 113 757 57 640 q 273 941 168 874 q 525 1008 378 1008 q 819 914 717 1008 q 956 663 922 819 l 736 653 q 672 783 721 735 q 526 831 622 831 q 385 786 442 831 q 301 665 329 742 q 274 492 274 589 q 301 317 274 393 q 385 199 328 242 q 529 156 442 156 q 685 213 628 156 q 750 358 743 269 l 526 358 l 526 513 l 958 513 l 958 0 l 828 0 l 819 140 q 699 22 782 67 q 511 -22 617 -22 m 419 1078 l 419 1244 l 635 1244 l 635 1078 l 419 1078 z "},"Ḡ":{"ha":1022,"x_min":57,"x_max":958,"o":"m 511 -22 q 267 43 369 -22 q 111 224 165 108 q 57 492 57 340 q 113 757 57 640 q 273 941 168 874 q 525 1008 378 1008 q 819 914 717 1008 q 956 663 922 819 l 736 653 q 672 783 721 735 q 526 831 622 831 q 385 786 442 831 q 301 665 329 742 q 274 492 274 589 q 301 317 274 393 q 385 199 328 242 q 529 156 442 156 q 685 213 628 156 q 750 358 743 269 l 526 358 l 526 513 l 958 513 l 958 0 l 828 0 l 819 140 q 699 22 782 67 q 511 -22 617 -22 m 319 1085 l 319 1238 l 735 1238 l 735 1085 l 319 1085 z "},"Ǥ":{"ha":1079,"x_min":57,"x_max":1029,"o":"m 526 -22 q 266 45 371 -22 q 109 229 161 113 q 57 492 57 346 q 112 756 57 639 q 273 940 167 872 q 532 1008 379 1008 q 819 916 713 1008 q 956 663 926 824 l 736 653 q 674 782 722 733 q 528 831 626 831 q 384 786 440 831 q 301 665 328 742 q 274 492 274 589 q 301 317 274 393 q 384 199 329 242 q 522 156 439 156 q 707 235 651 156 l 526 235 l 526 335 l 746 335 q 750 396 750 363 l 526 396 l 526 513 l 958 513 l 958 454 q 950 335 958 390 l 1029 335 l 1029 235 l 924 235 q 775 42 878 107 q 526 -22 672 -22 z "},"H":{"ha":1001,"x_min":103,"x_max":899,"o":"m 103 0 l 103 986 l 314 986 l 314 585 l 688 585 l 688 986 l 899 986 l 899 0 l 688 0 l 688 407 l 314 407 l 314 0 l 103 0 z "},"Ħ":{"ha":1001,"x_min":4,"x_max":999,"o":"m 103 0 l 103 986 l 314 986 l 314 585 l 688 585 l 688 986 l 899 986 l 899 0 l 688 0 l 688 407 l 314 407 l 314 0 l 103 0 m 4 722 l 4 876 l 999 876 l 999 722 l 4 722 z "},"Ĥ":{"ha":1001,"x_min":103,"x_max":899,"o":"m 103 0 l 103 986 l 314 986 l 314 585 l 688 585 l 688 986 l 899 986 l 899 0 l 688 0 l 688 407 l 314 407 l 314 0 l 103 0 m 268 1063 l 401 1275 l 601 1275 l 735 1063 l 589 1063 l 501 1186 l 413 1063 l 268 1063 z "},"I":{"ha":417,"x_min":103,"x_max":314,"o":"m 103 0 l 103 986 l 314 986 l 314 0 l 103 0 z "},"Ĳ":{"ha":1288,"x_min":103,"x_max":1206,"o":"m 103 0 l 103 986 l 314 986 l 314 0 l 103 0 m 846 -22 q 651 26 731 -22 q 528 159 571 75 q 485 351 486 243 l 697 361 q 738 206 699 256 q 846 156 776 156 q 956 204 917 156 q 994 354 994 253 l 994 986 l 1206 986 l 1206 354 q 1160 155 1206 239 q 1035 24 1115 71 q 846 -22 954 -22 z "},"Í":{"ha":417,"x_min":103,"x_max":397,"o":"m 103 0 l 103 986 l 314 986 l 314 0 l 103 0 m 114 1063 l 194 1268 l 397 1268 l 272 1063 l 114 1063 z "},"Î":{"ha":417,"x_min":-25,"x_max":442,"o":"m 103 0 l 103 986 l 314 986 l 314 0 l 103 0 m -25 1063 l 108 1275 l 308 1275 l 442 1063 l 296 1063 l 208 1186 l 119 1063 l -25 1063 z "},"Ï":{"ha":417,"x_min":-40,"x_max":457,"o":"m 103 0 l 103 986 l 314 986 l 314 0 l 103 0 m -40 1074 l -40 1242 l 158 1242 l 158 1074 l -40 1074 m 257 1074 l 257 1242 l 457 1242 l 457 1074 l 257 1074 z "},"İ":{"ha":417,"x_min":101,"x_max":317,"o":"m 103 0 l 103 986 l 314 986 l 314 0 l 103 0 m 101 1078 l 101 1244 l 317 1244 l 317 1078 l 101 1078 z "},"Ì":{"ha":417,"x_min":18,"x_max":314,"o":"m 103 0 l 103 986 l 314 986 l 314 0 l 103 0 m 143 1072 l 18 1276 l 219 1276 l 301 1072 l 143 1072 z "},"Ī":{"ha":417,"x_min":1,"x_max":417,"o":"m 103 0 l 103 986 l 314 986 l 314 0 l 103 0 m 1 1085 l 1 1238 l 417 1238 l 417 1085 l 1 1085 z "},"Į":{"ha":417,"x_min":60,"x_max":364,"o":"m 103 0 l 103 986 l 314 986 l 314 0 l 103 0 m 217 -301 q 101 -271 142 -301 q 60 -183 60 -240 q 81 -101 60 -140 q 128 -28 103 -61 l 175 33 l 314 0 l 271 -56 q 240 -104 251 -83 q 228 -143 228 -125 q 238 -169 228 -160 q 264 -178 249 -178 q 326 -160 301 -178 l 364 -265 q 303 -291 346 -281 q 217 -301 261 -301 z "},"Ĩ":{"ha":417,"x_min":-29,"x_max":446,"o":"m 103 0 l 103 986 l 314 986 l 314 0 l 103 0 m 286 1075 q 231 1085 254 1075 q 181 1119 208 1096 q 153 1138 165 1132 q 128 1144 142 1144 q 92 1128 107 1144 q 74 1068 78 1111 l -29 1068 q 11 1212 -29 1158 q 124 1265 51 1265 q 183 1254 157 1265 q 238 1221 210 1243 q 290 1196 268 1196 q 325 1213 311 1196 q 342 1275 339 1231 l 446 1275 q 403 1129 444 1183 q 286 1075 363 1075 z "},"J":{"ha":871,"x_min":68,"x_max":789,"o":"m 429 -22 q 234 26 314 -22 q 112 159 154 75 q 68 351 69 243 l 281 361 q 321 206 282 256 q 429 156 360 156 q 539 204 500 156 q 578 354 578 253 l 578 986 l 789 986 l 789 354 q 744 155 789 239 q 618 24 699 71 q 429 -22 538 -22 z "},"Ĵ":{"ha":871,"x_min":68,"x_max":918,"o":"m 429 -22 q 234 26 314 -22 q 112 159 154 75 q 68 351 69 243 l 281 361 q 321 206 282 256 q 429 156 360 156 q 539 204 500 156 q 578 354 578 253 l 578 986 l 789 986 l 789 354 q 744 155 789 239 q 618 24 699 71 q 429 -22 538 -22 m 451 1063 l 585 1275 l 785 1275 l 918 1063 l 772 1063 l 685 1186 l 596 1063 l 451 1063 z "},"K":{"ha":979,"x_min":103,"x_max":940,"o":"m 103 0 l 103 986 l 314 986 l 314 556 l 672 986 l 918 986 l 556 551 l 940 0 l 700 0 l 417 410 l 314 290 l 314 0 l 103 0 z "},"Ǩ":{"ha":979,"x_min":103,"x_max":940,"o":"m 103 0 l 103 986 l 314 986 l 314 556 l 672 986 l 918 986 l 556 551 l 940 0 l 700 0 l 417 410 l 314 290 l 314 0 l 103 0 m 247 1275 l 392 1275 l 481 1151 l 568 1275 l 714 1275 l 581 1063 l 381 1063 l 247 1275 z "},"Ķ":{"ha":979,"x_min":103,"x_max":940,"o":"m 103 0 l 103 986 l 314 986 l 314 556 l 672 986 l 918 986 l 556 551 l 940 0 l 700 0 l 417 410 l 314 290 l 314 0 l 103 0 m 382 -351 l 454 -229 l 406 -229 l 406 -68 l 586 -68 l 586 -214 l 504 -351 l 382 -351 z "},"L":{"ha":818,"x_min":103,"x_max":768,"o":"m 103 0 l 103 986 l 314 986 l 314 178 l 768 178 l 768 0 l 103 0 z "},"Ĺ":{"ha":818,"x_min":103,"x_max":768,"o":"m 103 0 l 103 986 l 314 986 l 314 178 l 768 178 l 768 0 l 103 0 m 114 1063 l 194 1268 l 397 1268 l 272 1063 l 114 1063 z "},"Ľ":{"ha":818,"x_min":103,"x_max":768,"o":"m 103 0 l 103 986 l 314 986 l 314 178 l 768 178 l 768 0 l 103 0 m 531 589 l 571 986 l 750 986 l 675 589 l 531 589 z "},"Ļ":{"ha":818,"x_min":103,"x_max":768,"o":"m 103 0 l 103 986 l 314 986 l 314 178 l 768 178 l 768 0 l 103 0 m 322 -351 l 394 -229 l 346 -229 l 346 -68 l 526 -68 l 526 -214 l 444 -351 l 322 -351 z "},"Ł":{"ha":818,"x_min":7,"x_max":768,"o":"m 103 0 l 103 986 l 314 986 l 314 178 l 768 178 l 768 0 l 103 0 m 7 336 l 7 478 l 503 718 l 503 575 l 7 336 z "},"M":{"ha":1271,"x_min":103,"x_max":1168,"o":"m 103 0 l 103 986 l 385 986 l 636 268 l 886 986 l 1168 986 l 1168 0 l 957 0 l 957 639 l 725 3 l 544 3 l 314 639 l 314 0 l 103 0 z "},"N":{"ha":1042,"x_min":103,"x_max":939,"o":"m 103 0 l 103 986 l 336 986 l 728 306 l 728 986 l 939 986 l 939 0 l 703 0 l 314 657 l 314 0 l 103 0 z "},"Ń":{"ha":1042,"x_min":103,"x_max":939,"o":"m 103 0 l 103 986 l 336 986 l 728 306 l 728 986 l 939 986 l 939 0 l 703 0 l 314 657 l 314 0 l 103 0 m 435 1063 l 515 1268 l 718 1268 l 593 1063 l 435 1063 z "},"Ň":{"ha":1042,"x_min":103,"x_max":939,"o":"m 103 0 l 103 986 l 336 986 l 728 306 l 728 986 l 939 986 l 939 0 l 703 0 l 314 657 l 314 0 l 103 0 m 296 1275 l 440 1275 l 529 1151 l 617 1275 l 763 1275 l 629 1063 l 429 1063 l 296 1275 z "},"Ņ":{"ha":1042,"x_min":103,"x_max":939,"o":"m 103 0 l 103 986 l 336 986 l 728 306 l 728 986 l 939 986 l 939 0 l 703 0 l 314 657 l 314 0 l 103 0 m 404 -351 l 476 -229 l 428 -229 l 428 -68 l 608 -68 l 608 -214 l 526 -351 l 404 -351 z "},"Ñ":{"ha":1042,"x_min":103,"x_max":939,"o":"m 103 0 l 103 986 l 336 986 l 728 306 l 728 986 l 939 986 l 939 0 l 703 0 l 314 657 l 314 0 l 103 0 m 607 1075 q 552 1085 575 1075 q 501 1119 529 1096 q 474 1138 486 1132 q 449 1144 463 1144 q 413 1128 428 1144 q 394 1068 399 1111 l 292 1068 q 332 1212 292 1158 q 444 1265 372 1265 q 504 1254 478 1265 q 558 1221 531 1243 q 611 1196 589 1196 q 646 1213 632 1196 q 663 1275 660 1231 l 767 1275 q 724 1129 765 1183 q 607 1075 683 1075 z "},"Ŋ":{"ha":1042,"x_min":103,"x_max":939,"o":"m 103 0 l 103 986 l 336 986 l 728 307 l 728 986 l 939 986 l 939 -8 q 883 -167 939 -110 q 715 -225 826 -225 l 535 -225 l 535 -81 l 665 -81 q 721 -65 703 -81 q 739 -11 739 -49 l 739 0 l 703 0 l 314 657 l 314 0 l 103 0 z "},"O":{"ha":1074,"x_min":57,"x_max":1017,"o":"m 536 -22 q 278 40 386 -22 q 114 218 171 103 q 57 492 57 333 q 114 766 57 650 q 278 945 171 882 q 536 1008 386 1008 q 794 945 686 1008 q 959 766 901 882 q 1017 492 1017 650 q 959 218 1017 333 q 794 40 901 103 q 536 -22 686 -22 m 536 156 q 730 244 660 156 q 800 492 800 332 q 730 741 800 651 q 536 831 660 831 q 343 741 413 831 q 274 492 274 651 q 343 244 274 332 q 536 156 413 156 z "},"Ó":{"ha":1074,"x_min":57,"x_max":1017,"o":"m 536 -22 q 278 40 386 -22 q 114 218 171 103 q 57 492 57 333 q 114 766 57 650 q 278 945 171 882 q 536 1008 386 1008 q 794 945 686 1008 q 959 766 901 882 q 1017 492 1017 650 q 959 218 1017 333 q 794 40 901 103 q 536 -22 686 -22 m 536 156 q 730 244 660 156 q 800 492 800 332 q 730 741 800 651 q 536 831 660 831 q 343 741 413 831 q 274 492 274 651 q 343 244 274 332 q 536 156 413 156 m 442 1063 l 522 1268 l 725 1268 l 600 1063 l 442 1063 z "},"Ô":{"ha":1074,"x_min":57,"x_max":1017,"o":"m 536 -22 q 278 40 386 -22 q 114 218 171 103 q 57 492 57 333 q 114 766 57 650 q 278 945 171 882 q 536 1008 386 1008 q 794 945 686 1008 q 959 766 901 882 q 1017 492 1017 650 q 959 218 1017 333 q 794 40 901 103 q 536 -22 686 -22 m 536 156 q 730 244 660 156 q 800 492 800 332 q 730 741 800 651 q 536 831 660 831 q 343 741 413 831 q 274 492 274 651 q 343 244 274 332 q 536 156 413 156 m 303 1063 l 436 1275 l 636 1275 l 769 1063 l 624 1063 l 536 1186 l 447 1063 l 303 1063 z "},"Ö":{"ha":1074,"x_min":57,"x_max":1017,"o":"m 536 -22 q 278 40 386 -22 q 114 218 171 103 q 57 492 57 333 q 114 766 57 650 q 278 945 171 882 q 536 1008 386 1008 q 794 945 686 1008 q 959 766 901 882 q 1017 492 1017 650 q 959 218 1017 333 q 794 40 901 103 q 536 -22 686 -22 m 536 156 q 730 244 660 156 q 800 492 800 332 q 730 741 800 651 q 536 831 660 831 q 343 741 413 831 q 274 492 274 651 q 343 244 274 332 q 536 156 413 156 m 289 1074 l 289 1242 l 488 1242 l 488 1074 l 289 1074 m 586 1074 l 586 1242 l 786 1242 l 786 1074 l 586 1074 z "},"Ò":{"ha":1074,"x_min":57,"x_max":1017,"o":"m 536 -22 q 278 40 386 -22 q 114 218 171 103 q 57 492 57 333 q 114 766 57 650 q 278 945 171 882 q 536 1008 386 1008 q 794 945 686 1008 q 959 766 901 882 q 1017 492 1017 650 q 959 218 1017 333 q 794 40 901 103 q 536 -22 686 -22 m 536 156 q 730 244 660 156 q 800 492 800 332 q 730 741 800 651 q 536 831 660 831 q 343 741 413 831 q 274 492 274 651 q 343 244 274 332 q 536 156 413 156 m 471 1072 l 346 1276 l 547 1276 l 629 1072 l 471 1072 z "},"Ő":{"ha":1074,"x_min":57,"x_max":1017,"o":"m 536 -22 q 278 40 386 -22 q 114 218 171 103 q 57 492 57 333 q 114 766 57 650 q 278 945 171 882 q 536 1008 386 1008 q 794 945 686 1008 q 959 766 901 882 q 1017 492 1017 650 q 959 218 1017 333 q 794 40 901 103 q 536 -22 686 -22 m 536 156 q 730 244 660 156 q 800 492 800 332 q 730 741 800 651 q 536 831 660 831 q 343 741 413 831 q 274 492 274 651 q 343 244 274 332 q 536 156 413 156 m 336 1063 l 417 1268 l 619 1268 l 494 1063 l 336 1063 m 583 1063 l 664 1268 l 867 1268 l 742 1063 l 583 1063 z "},"Ō":{"ha":1074,"x_min":57,"x_max":1017,"o":"m 536 -22 q 278 40 386 -22 q 114 218 171 103 q 57 492 57 333 q 114 766 57 650 q 278 945 171 882 q 536 1008 386 1008 q 794 945 686 1008 q 959 766 901 882 q 1017 492 1017 650 q 959 218 1017 333 q 794 40 901 103 q 536 -22 686 -22 m 536 156 q 730 244 660 156 q 800 492 800 332 q 730 741 800 651 q 536 831 660 831 q 343 741 413 831 q 274 492 274 651 q 343 244 274 332 q 536 156 413 156 m 329 1085 l 329 1238 l 744 1238 l 744 1085 l 329 1085 z "},"Ø":{"ha":1074,"x_min":57,"x_max":1017,"o":"m 536 -22 q 278 40 386 -22 q 114 218 171 103 q 57 492 57 333 q 114 766 57 650 q 278 945 171 882 q 536 1008 386 1008 q 794 945 686 1008 q 959 766 901 882 q 1017 492 1017 650 q 959 218 1017 333 q 794 40 901 103 q 536 -22 686 -22 m 536 156 q 730 244 660 156 q 800 492 800 332 q 730 741 800 651 q 536 831 660 831 q 343 741 413 831 q 274 492 274 651 q 343 244 274 332 q 536 156 413 156 m 99 -22 l 821 1008 l 976 1008 l 254 -22 l 99 -22 z "},"Õ":{"ha":1074,"x_min":57,"x_max":1017,"o":"m 536 -22 q 278 40 386 -22 q 114 218 171 103 q 57 492 57 333 q 114 766 57 650 q 278 945 171 882 q 536 1008 386 1008 q 794 945 686 1008 q 959 766 901 882 q 1017 492 1017 650 q 959 218 1017 333 q 794 40 901 103 q 536 -22 686 -22 m 536 156 q 730 244 660 156 q 800 492 800 332 q 730 741 800 651 q 536 831 660 831 q 343 741 413 831 q 274 492 274 651 q 343 244 274 332 q 536 156 413 156 m 614 1075 q 559 1085 582 1075 q 508 1119 536 1096 q 481 1138 493 1132 q 456 1144 469 1144 q 420 1128 435 1144 q 401 1068 406 1111 l 299 1068 q 339 1212 299 1158 q 451 1265 379 1265 q 511 1254 485 1265 q 565 1221 538 1243 q 618 1196 596 1196 q 653 1213 639 1196 q 669 1275 667 1231 l 774 1275 q 731 1129 772 1183 q 614 1075 690 1075 z "},"Œ":{"ha":1553,"x_min":57,"x_max":1490,"o":"m 535 -22 q 282 40 389 -22 q 116 217 175 103 q 57 492 57 332 q 116 769 57 653 q 282 947 175 885 q 535 1008 389 1008 q 703 978 628 1008 q 831 890 778 947 l 831 986 l 1479 986 l 1479 808 l 1042 808 l 1042 582 l 1463 582 l 1463 407 l 1042 407 l 1042 178 l 1490 178 l 1490 0 l 831 0 l 831 96 q 703 8 778 39 q 535 -22 628 -22 m 535 156 q 684 199 626 156 q 769 319 742 243 q 797 492 797 396 q 770 665 797 588 q 685 786 743 742 q 535 831 626 831 q 388 786 446 831 q 302 665 331 742 q 274 492 274 589 q 302 319 274 396 q 388 199 331 243 q 535 156 446 156 z "},"P":{"ha":933,"x_min":103,"x_max":876,"o":"m 103 0 l 103 986 l 497 986 q 776 900 675 986 q 876 664 876 814 q 776 427 876 514 q 497 340 675 340 l 314 340 l 314 0 l 103 0 m 314 518 l 485 518 q 614 555 568 518 q 660 664 660 592 q 614 772 660 736 q 485 808 568 808 l 314 808 l 314 518 z "},"Þ":{"ha":892,"x_min":103,"x_max":835,"o":"m 103 0 l 103 986 l 314 986 l 314 810 l 467 810 q 738 731 642 810 q 835 510 835 651 q 738 286 835 365 q 467 207 642 207 l 314 207 l 314 0 l 103 0 m 463 631 l 314 631 l 314 385 l 463 385 q 618 508 618 385 q 463 631 618 631 z "},"Q":{"ha":1064,"x_min":57,"x_max":1008,"o":"m 785 -86 l 708 10 q 532 -22 642 -22 q 279 44 386 -22 q 115 226 172 110 q 57 492 57 342 q 111 756 57 639 q 272 940 165 872 q 532 1008 378 1008 q 792 940 686 1008 q 953 756 899 872 q 1008 492 1008 639 q 961 250 1008 354 q 829 76 914 146 l 960 -86 l 785 -86 m 532 156 q 594 165 572 156 l 458 333 l 633 333 l 706 238 q 768 338 746 276 q 790 492 790 400 q 763 659 790 582 q 679 783 736 736 q 532 831 622 831 q 385 783 442 831 q 301 659 328 736 q 274 492 274 582 q 301 326 274 403 q 386 202 329 249 q 532 156 443 156 z "},"R":{"ha":968,"x_min":103,"x_max":899,"o":"m 103 0 l 103 986 l 535 986 q 722 950 643 986 q 845 848 801 914 q 889 692 889 782 q 841 539 889 601 q 715 453 793 476 q 874 283 861 432 l 899 0 l 683 0 l 665 250 q 630 334 661 307 q 524 361 599 361 l 314 361 l 314 0 l 103 0 m 314 538 l 511 538 q 630 573 588 538 q 672 674 672 608 q 629 774 672 740 q 504 808 586 808 l 314 808 l 314 538 z "},"Ŕ":{"ha":968,"x_min":103,"x_max":899,"o":"m 103 0 l 103 986 l 535 986 q 722 950 643 986 q 845 848 801 914 q 889 692 889 782 q 841 539 889 601 q 715 453 793 476 q 874 283 861 432 l 899 0 l 683 0 l 665 250 q 630 334 661 307 q 524 361 599 361 l 314 361 l 314 0 l 103 0 m 314 538 l 511 538 q 630 573 588 538 q 672 674 672 608 q 629 774 672 740 q 504 808 586 808 l 314 808 l 314 538 m 385 1063 l 465 1268 l 668 1268 l 543 1063 l 385 1063 z "},"Ř":{"ha":968,"x_min":103,"x_max":899,"o":"m 103 0 l 103 986 l 535 986 q 722 950 643 986 q 845 848 801 914 q 889 692 889 782 q 841 539 889 601 q 715 453 793 476 q 874 283 861 432 l 899 0 l 683 0 l 665 250 q 630 334 661 307 q 524 361 599 361 l 314 361 l 314 0 l 103 0 m 314 538 l 511 538 q 630 573 588 538 q 672 674 672 608 q 629 774 672 740 q 504 808 586 808 l 314 808 l 314 538 m 246 1275 l 390 1275 l 479 1151 l 567 1275 l 713 1275 l 579 1063 l 379 1063 l 246 1275 z "},"Ŗ":{"ha":968,"x_min":103,"x_max":899,"o":"m 103 0 l 103 986 l 535 986 q 722 950 643 986 q 845 848 801 914 q 889 692 889 782 q 841 539 889 601 q 715 453 793 476 q 874 283 861 432 l 899 0 l 683 0 l 665 250 q 630 334 661 307 q 524 361 599 361 l 314 361 l 314 0 l 103 0 m 314 538 l 511 538 q 630 573 588 538 q 672 674 672 608 q 629 774 672 740 q 504 808 586 808 l 314 808 l 314 538 m 386 -351 l 458 -229 l 410 -229 l 410 -68 l 590 -68 l 590 -214 l 508 -351 l 386 -351 z "},"S":{"ha":943,"x_min":71,"x_max":872,"o":"m 490 -22 q 191 72 300 -22 q 71 325 82 167 l 283 335 q 347 200 294 247 q 493 153 399 153 q 615 181 572 153 q 658 267 658 210 q 642 327 658 301 q 579 374 626 353 q 439 417 532 396 q 236 482 313 446 q 124 573 160 518 q 89 711 89 628 q 133 866 89 799 q 260 971 178 933 q 458 1008 343 1008 q 667 965 582 1008 q 799 847 751 922 q 857 675 846 772 l 646 664 q 589 787 638 740 q 456 833 540 833 q 344 801 385 833 q 303 718 303 769 q 321 658 303 682 q 383 615 339 633 q 508 581 428 597 q 724 510 644 553 q 838 410 804 468 q 872 276 872 351 q 826 117 872 185 q 693 14 779 50 q 490 -22 607 -22 z "},"Ś":{"ha":943,"x_min":71,"x_max":872,"o":"m 490 -22 q 191 72 300 -22 q 71 325 82 167 l 283 335 q 347 200 294 247 q 493 153 399 153 q 615 181 572 153 q 658 267 658 210 q 642 327 658 301 q 579 374 626 353 q 439 417 532 396 q 236 482 313 446 q 124 573 160 518 q 89 711 89 628 q 133 866 89 799 q 260 971 178 933 q 458 1008 343 1008 q 667 965 582 1008 q 799 847 751 922 q 857 675 846 772 l 646 664 q 589 787 638 740 q 456 833 540 833 q 344 801 385 833 q 303 718 303 769 q 321 658 303 682 q 383 615 339 633 q 508 581 428 597 q 724 510 644 553 q 838 410 804 468 q 872 276 872 351 q 826 117 872 185 q 693 14 779 50 q 490 -22 607 -22 m 367 1063 l 447 1268 l 650 1268 l 525 1063 l 367 1063 z "},"Š":{"ha":943,"x_min":71,"x_max":872,"o":"m 490 -22 q 191 72 300 -22 q 71 325 82 167 l 283 335 q 347 200 294 247 q 493 153 399 153 q 615 181 572 153 q 658 267 658 210 q 642 327 658 301 q 579 374 626 353 q 439 417 532 396 q 236 482 313 446 q 124 573 160 518 q 89 711 89 628 q 133 866 89 799 q 260 971 178 933 q 458 1008 343 1008 q 667 965 582 1008 q 799 847 751 922 q 857 675 846 772 l 646 664 q 589 787 638 740 q 456 833 540 833 q 344 801 385 833 q 303 718 303 769 q 321 658 303 682 q 383 615 339 633 q 508 581 428 597 q 724 510 644 553 q 838 410 804 468 q 872 276 872 351 q 826 117 872 185 q 693 14 779 50 q 490 -22 607 -22 m 228 1275 l 372 1275 l 461 1151 l 549 1275 l 694 1275 l 561 1063 l 361 1063 l 228 1275 z "},"Ş":{"ha":943,"x_min":71,"x_max":872,"o":"m 490 -22 q 191 72 300 -22 q 71 325 82 167 l 283 335 q 347 200 294 247 q 493 153 399 153 q 615 181 572 153 q 658 267 658 210 q 642 327 658 301 q 579 374 626 353 q 439 417 532 396 q 236 482 313 446 q 124 573 160 518 q 89 711 89 628 q 133 866 89 799 q 260 971 178 933 q 458 1008 343 1008 q 667 965 582 1008 q 799 847 751 922 q 857 675 846 772 l 646 664 q 589 787 638 740 q 456 833 540 833 q 344 801 385 833 q 303 718 303 769 q 321 658 303 682 q 383 615 339 633 q 508 581 428 597 q 724 510 644 553 q 838 410 804 468 q 872 276 872 351 q 826 117 872 185 q 693 14 779 50 q 490 -22 607 -22 m 475 -322 q 360 -290 406 -322 q 297 -207 315 -258 l 389 -168 q 419 -208 400 -194 q 471 -221 438 -221 q 519 -208 501 -221 q 538 -171 538 -194 q 520 -131 538 -146 q 447 -117 503 -117 l 390 -62 l 436 14 l 556 14 l 517 -43 q 619 -87 588 -50 q 650 -175 650 -124 q 599 -286 650 -250 q 475 -322 547 -322 z "},"Ŝ":{"ha":943,"x_min":71,"x_max":872,"o":"m 490 -22 q 191 72 300 -22 q 71 325 82 167 l 283 335 q 347 200 294 247 q 493 153 399 153 q 615 181 572 153 q 658 267 658 210 q 642 327 658 301 q 579 374 626 353 q 439 417 532 396 q 236 482 313 446 q 124 573 160 518 q 89 711 89 628 q 133 866 89 799 q 260 971 178 933 q 458 1008 343 1008 q 667 965 582 1008 q 799 847 751 922 q 857 675 846 772 l 646 664 q 589 787 638 740 q 456 833 540 833 q 344 801 385 833 q 303 718 303 769 q 321 658 303 682 q 383 615 339 633 q 508 581 428 597 q 724 510 644 553 q 838 410 804 468 q 872 276 872 351 q 826 117 872 185 q 693 14 779 50 q 490 -22 607 -22 m 228 1063 l 361 1275 l 561 1275 l 694 1063 l 549 1063 l 461 1186 l 372 1063 l 228 1063 z "},"Ș":{"ha":943,"x_min":71,"x_max":872,"o":"m 490 -22 q 191 72 300 -22 q 71 325 82 167 l 283 335 q 347 200 294 247 q 493 153 399 153 q 615 181 572 153 q 658 267 658 210 q 642 327 658 301 q 579 374 626 353 q 439 417 532 396 q 236 482 313 446 q 124 573 160 518 q 89 711 89 628 q 133 866 89 799 q 260 971 178 933 q 458 1008 343 1008 q 667 965 582 1008 q 799 847 751 922 q 857 675 846 772 l 646 664 q 589 787 638 740 q 456 833 540 833 q 344 801 385 833 q 303 718 303 769 q 321 658 303 682 q 383 615 339 633 q 508 581 428 597 q 724 510 644 553 q 838 410 804 468 q 872 276 872 351 q 826 117 872 185 q 693 14 779 50 q 490 -22 607 -22 m 369 -351 l 442 -229 l 393 -229 l 393 -68 l 574 -68 l 574 -214 l 492 -351 l 369 -351 z "},"ẞ":{"ha":1029,"x_min":103,"x_max":960,"o":"m 103 0 l 103 651 q 194 900 103 814 q 463 986 286 986 l 911 986 l 911 804 l 667 585 q 885 494 811 565 q 960 307 960 424 q 859 81 960 161 q 575 0 758 0 l 407 0 l 407 178 l 575 178 q 699 213 654 178 q 743 310 743 247 q 695 408 743 374 q 563 442 647 442 l 426 442 l 426 588 l 664 808 l 463 808 q 314 651 314 808 l 314 0 l 103 0 z "},"T":{"ha":863,"x_min":31,"x_max":832,"o":"m 325 0 l 325 808 l 31 808 l 31 986 l 832 986 l 832 808 l 538 808 l 538 0 l 325 0 z "},"Ŧ":{"ha":863,"x_min":31,"x_max":832,"o":"m 325 0 l 325 808 l 31 808 l 31 986 l 832 986 l 832 808 l 538 808 l 538 0 l 325 0 m 153 374 l 153 533 l 711 533 l 711 374 l 153 374 z "},"Ť":{"ha":863,"x_min":31,"x_max":832,"o":"m 325 0 l 325 808 l 31 808 l 31 986 l 832 986 l 832 808 l 538 808 l 538 0 l 325 0 m 197 1275 l 342 1275 l 431 1151 l 518 1275 l 664 1275 l 531 1063 l 331 1063 l 197 1275 z "},"Ţ":{"ha":863,"x_min":31,"x_max":832,"o":"m 325 0 l 325 808 l 31 808 l 31 986 l 832 986 l 832 808 l 538 808 l 538 0 l 325 0 m 422 -322 q 308 -290 353 -322 q 244 -207 263 -258 l 336 -168 q 366 -208 347 -194 q 418 -221 385 -221 q 467 -208 449 -221 q 485 -171 485 -194 q 467 -131 485 -146 q 394 -117 450 -117 l 338 -62 l 383 14 l 503 14 l 464 -43 q 566 -87 535 -50 q 597 -175 597 -124 q 546 -286 597 -250 q 422 -322 494 -322 z "},"Ț":{"ha":863,"x_min":31,"x_max":832,"o":"m 325 0 l 325 808 l 31 808 l 31 986 l 832 986 l 832 808 l 538 808 l 538 0 l 325 0 m 317 -351 l 389 -229 l 340 -229 l 340 -68 l 521 -68 l 521 -214 l 439 -351 l 317 -351 z "},"U":{"ha":976,"x_min":82,"x_max":894,"o":"m 489 -22 q 273 24 364 -22 q 132 156 182 71 q 82 356 82 240 l 82 988 l 293 988 l 293 356 q 344 208 293 260 q 489 156 394 156 q 633 208 582 156 q 683 356 683 260 l 683 988 l 894 988 l 894 356 q 845 156 894 240 q 704 24 796 71 q 489 -22 613 -22 z "},"Ú":{"ha":976,"x_min":82,"x_max":894,"o":"m 489 -22 q 273 24 364 -22 q 132 156 182 71 q 82 356 82 240 l 82 988 l 293 988 l 293 356 q 344 208 293 260 q 489 156 394 156 q 633 208 582 156 q 683 356 683 260 l 683 988 l 894 988 l 894 356 q 845 156 894 240 q 704 24 796 71 q 489 -22 613 -22 m 394 1063 l 475 1268 l 678 1268 l 553 1063 l 394 1063 z "},"Ŭ":{"ha":976,"x_min":82,"x_max":894,"o":"m 489 -22 q 273 24 364 -22 q 132 156 182 71 q 82 356 82 240 l 82 988 l 293 988 l 293 356 q 344 208 293 260 q 489 156 394 156 q 633 208 582 156 q 683 356 683 260 l 683 988 l 894 988 l 894 356 q 845 156 894 240 q 704 24 796 71 q 489 -22 613 -22 m 488 1064 q 333 1117 392 1064 q 271 1268 275 1171 l 390 1268 q 421 1199 396 1219 q 488 1178 446 1178 q 554 1199 529 1178 q 585 1268 579 1219 l 706 1268 q 643 1117 701 1171 q 488 1064 585 1064 z "},"Û":{"ha":976,"x_min":82,"x_max":894,"o":"m 489 -22 q 273 24 364 -22 q 132 156 182 71 q 82 356 82 240 l 82 988 l 293 988 l 293 356 q 344 208 293 260 q 489 156 394 156 q 633 208 582 156 q 683 356 683 260 l 683 988 l 894 988 l 894 356 q 845 156 894 240 q 704 24 796 71 q 489 -22 613 -22 m 256 1063 l 389 1275 l 589 1275 l 722 1063 l 576 1063 l 489 1186 l 400 1063 l 256 1063 z "},"Ü":{"ha":976,"x_min":82,"x_max":894,"o":"m 489 -22 q 273 24 364 -22 q 132 156 182 71 q 82 356 82 240 l 82 988 l 293 988 l 293 356 q 344 208 293 260 q 489 156 394 156 q 633 208 582 156 q 683 356 683 260 l 683 988 l 894 988 l 894 356 q 845 156 894 240 q 704 24 796 71 q 489 -22 613 -22 m 240 1074 l 240 1242 l 439 1242 l 439 1074 l 240 1074 m 538 1074 l 538 1242 l 738 1242 l 738 1074 l 538 1074 z "},"Ù":{"ha":976,"x_min":82,"x_max":894,"o":"m 489 -22 q 273 24 364 -22 q 132 156 182 71 q 82 356 82 240 l 82 988 l 293 988 l 293 356 q 344 208 293 260 q 489 156 394 156 q 633 208 582 156 q 683 356 683 260 l 683 988 l 894 988 l 894 356 q 845 156 894 240 q 704 24 796 71 q 489 -22 613 -22 m 422 1072 l 297 1276 l 499 1276 l 581 1072 l 422 1072 z "},"Ű":{"ha":976,"x_min":82,"x_max":894,"o":"m 489 -22 q 273 24 364 -22 q 132 156 182 71 q 82 356 82 240 l 82 988 l 293 988 l 293 356 q 344 208 293 260 q 489 156 394 156 q 633 208 582 156 q 683 356 683 260 l 683 988 l 894 988 l 894 356 q 845 156 894 240 q 704 24 796 71 q 489 -22 613 -22 m 289 1063 l 369 1268 l 572 1268 l 447 1063 l 289 1063 m 535 1063 l 615 1268 l 818 1268 l 693 1063 l 535 1063 z "},"Ū":{"ha":976,"x_min":82,"x_max":894,"o":"m 489 -22 q 273 24 364 -22 q 132 156 182 71 q 82 356 82 240 l 82 988 l 293 988 l 293 356 q 344 208 293 260 q 489 156 394 156 q 633 208 582 156 q 683 356 683 260 l 683 988 l 894 988 l 894 356 q 845 156 894 240 q 704 24 796 71 q 489 -22 613 -22 m 281 1085 l 281 1238 l 696 1238 l 696 1085 l 281 1085 z "},"Ų":{"ha":976,"x_min":82,"x_max":894,"o":"m 489 -22 q 273 24 364 -22 q 132 156 182 71 q 82 356 82 240 l 82 988 l 293 988 l 293 356 q 344 208 293 260 q 489 156 394 156 q 633 208 582 156 q 683 356 683 260 l 683 988 l 894 988 l 894 356 q 845 156 894 240 q 704 24 796 71 q 489 -22 613 -22 m 551 -300 q 435 -269 476 -300 q 394 -182 394 -239 q 416 -99 394 -139 q 463 -26 438 -60 l 510 35 l 649 1 l 606 -54 q 574 -103 586 -82 q 563 -142 563 -124 q 573 -167 563 -158 q 599 -176 583 -176 q 661 -158 636 -176 l 699 -264 q 638 -290 681 -279 q 551 -300 596 -300 z "},"Ů":{"ha":976,"x_min":82,"x_max":894,"o":"m 489 -22 q 273 24 364 -22 q 132 156 182 71 q 82 356 82 240 l 82 988 l 293 988 l 293 356 q 344 208 293 260 q 489 156 394 156 q 633 208 582 156 q 683 356 683 260 l 683 988 l 894 988 l 894 356 q 845 156 894 240 q 704 24 796 71 q 489 -22 613 -22 m 488 1040 q 387 1081 428 1040 q 346 1181 346 1121 q 387 1282 346 1242 q 488 1322 428 1322 q 590 1282 549 1322 q 631 1181 631 1242 q 590 1081 631 1121 q 488 1040 549 1040 m 488 1129 q 526 1144 511 1129 q 540 1181 540 1158 q 526 1219 540 1204 q 488 1233 511 1233 q 451 1219 465 1233 q 436 1181 436 1204 q 451 1144 436 1158 q 488 1129 465 1129 z "},"Ũ":{"ha":976,"x_min":82,"x_max":894,"o":"m 489 -22 q 273 24 364 -22 q 132 156 182 71 q 82 356 82 240 l 82 988 l 293 988 l 293 356 q 344 208 293 260 q 489 156 394 156 q 633 208 582 156 q 683 356 683 260 l 683 988 l 894 988 l 894 356 q 845 156 894 240 q 704 24 796 71 q 489 -22 613 -22 m 565 1075 q 510 1085 533 1075 q 460 1119 488 1096 q 433 1138 444 1132 q 407 1144 421 1144 q 372 1128 386 1144 q 353 1068 357 1111 l 250 1068 q 290 1212 250 1158 q 403 1265 331 1265 q 463 1254 436 1265 q 517 1221 489 1243 q 569 1196 547 1196 q 604 1213 590 1196 q 621 1275 618 1231 l 725 1275 q 683 1129 724 1183 q 565 1075 642 1075 z "},"V":{"ha":1031,"x_min":35,"x_max":996,"o":"m 390 0 l 35 986 l 253 986 l 515 238 l 776 986 l 996 986 l 638 0 l 390 0 z "},"W":{"ha":1375,"x_min":35,"x_max":1342,"o":"m 300 0 l 35 986 l 254 986 l 424 292 l 596 986 l 781 986 l 951 292 l 1119 986 l 1342 986 l 1075 0 l 849 0 l 688 631 l 526 0 l 300 0 z "},"Ẃ":{"ha":1375,"x_min":35,"x_max":1342,"o":"m 300 0 l 35 986 l 254 986 l 424 292 l 596 986 l 781 986 l 951 292 l 1119 986 l 1342 986 l 1075 0 l 849 0 l 688 631 l 526 0 l 300 0 m 593 1063 l 674 1268 l 876 1268 l 751 1063 l 593 1063 z "},"Ŵ":{"ha":1375,"x_min":35,"x_max":1342,"o":"m 300 0 l 35 986 l 254 986 l 424 292 l 596 986 l 781 986 l 951 292 l 1119 986 l 1342 986 l 1075 0 l 849 0 l 688 631 l 526 0 l 300 0 m 454 1063 l 588 1275 l 788 1275 l 921 1063 l 775 1063 l 688 1186 l 599 1063 l 454 1063 z "},"Ẅ":{"ha":1375,"x_min":35,"x_max":1342,"o":"m 300 0 l 35 986 l 254 986 l 424 292 l 596 986 l 781 986 l 951 292 l 1119 986 l 1342 986 l 1075 0 l 849 0 l 688 631 l 526 0 l 300 0 m 440 1074 l 440 1242 l 639 1242 l 639 1074 l 440 1074 m 738 1074 l 738 1242 l 938 1242 l 938 1074 l 738 1074 z "},"Ẁ":{"ha":1375,"x_min":35,"x_max":1342,"o":"m 300 0 l 35 986 l 254 986 l 424 292 l 596 986 l 781 986 l 951 292 l 1119 986 l 1342 986 l 1075 0 l 849 0 l 688 631 l 526 0 l 300 0 m 622 1072 l 497 1276 l 699 1276 l 781 1072 l 622 1072 z "},"X":{"ha":1000,"x_min":39,"x_max":961,"o":"m 39 0 l 375 494 l 42 986 l 288 986 l 503 654 l 711 986 l 957 986 l 625 497 l 961 0 l 715 0 l 500 338 l 285 0 l 39 0 z "},"Y":{"ha":965,"x_min":35,"x_max":931,"o":"m 376 0 l 376 383 l 35 986 l 268 986 l 483 589 l 697 986 l 931 986 l 589 383 l 589 0 l 376 0 z "},"Ý":{"ha":965,"x_min":35,"x_max":931,"o":"m 376 0 l 376 383 l 35 986 l 268 986 l 483 589 l 697 986 l 931 986 l 589 383 l 589 0 l 376 0 m 389 1063 l 469 1268 l 672 1268 l 547 1063 l 389 1063 z "},"Ŷ":{"ha":965,"x_min":35,"x_max":931,"o":"m 376 0 l 376 383 l 35 986 l 268 986 l 483 589 l 697 986 l 931 986 l 589 383 l 589 0 l 376 0 m 250 1063 l 383 1275 l 583 1275 l 717 1063 l 571 1063 l 483 1186 l 394 1063 l 250 1063 z "},"Ÿ":{"ha":965,"x_min":35,"x_max":931,"o":"m 376 0 l 376 383 l 35 986 l 268 986 l 483 589 l 697 986 l 931 986 l 589 383 l 589 0 l 376 0 m 235 1074 l 235 1242 l 433 1242 l 433 1074 l 235 1074 m 532 1074 l 532 1242 l 732 1242 l 732 1074 l 532 1074 z "},"Ỳ":{"ha":965,"x_min":35,"x_max":931,"o":"m 376 0 l 376 383 l 35 986 l 268 986 l 483 589 l 697 986 l 931 986 l 589 383 l 589 0 l 376 0 m 418 1072 l 293 1276 l 494 1276 l 576 1072 l 418 1072 z "},"Ỹ":{"ha":965,"x_min":35,"x_max":931,"o":"m 376 0 l 376 383 l 35 986 l 268 986 l 483 589 l 697 986 l 931 986 l 589 383 l 589 0 l 376 0 m 561 1075 q 506 1085 529 1075 q 456 1119 483 1096 q 428 1138 440 1132 q 403 1144 417 1144 q 367 1128 382 1144 q 349 1068 353 1111 l 246 1068 q 286 1212 246 1158 q 399 1265 326 1265 q 458 1254 432 1265 q 513 1221 485 1243 q 565 1196 543 1196 q 600 1213 586 1196 q 617 1275 614 1231 l 721 1275 q 678 1129 719 1183 q 561 1075 638 1075 z "},"Z":{"ha":829,"x_min":39,"x_max":789,"o":"m 39 0 l 39 172 l 510 808 l 61 808 l 61 986 l 771 986 l 771 814 l 293 178 l 789 178 l 789 0 l 39 0 z "},"Ź":{"ha":829,"x_min":39,"x_max":789,"o":"m 39 0 l 39 172 l 510 808 l 61 808 l 61 986 l 771 986 l 771 814 l 293 178 l 789 178 l 789 0 l 39 0 m 358 1071 l 439 1276 l 642 1276 l 517 1071 l 358 1071 z "},"Ž":{"ha":829,"x_min":39,"x_max":789,"o":"m 39 0 l 39 172 l 510 808 l 61 808 l 61 986 l 771 986 l 771 814 l 293 178 l 789 178 l 789 0 l 39 0 m 193 1275 l 338 1275 l 426 1151 l 514 1275 l 660 1275 l 526 1063 l 326 1063 l 193 1275 z "},"Ż":{"ha":829,"x_min":39,"x_max":789,"o":"m 39 0 l 39 172 l 510 808 l 61 808 l 61 986 l 771 986 l 771 814 l 293 178 l 789 178 l 789 0 l 39 0 m 319 1078 l 319 1244 l 535 1244 l 535 1078 l 319 1078 z "},"Ꞌ":{"ha":311,"x_min":57,"x_max":254,"o":"m 75 458 l 57 792 l 57 986 l 254 986 l 254 792 l 236 458 l 75 458 z "},"a":{"ha":849,"x_min":54,"x_max":810,"o":"m 315 -17 q 126 37 199 -17 q 54 186 54 90 q 115 338 54 285 q 299 417 176 392 l 539 464 q 411 610 539 610 q 275 503 297 610 l 67 513 q 177 698 88 635 q 411 761 267 761 q 663 681 578 761 q 747 450 747 601 l 747 196 q 758 153 747 164 q 789 143 768 143 l 810 143 l 810 0 q 778 -6 800 -3 q 735 -8 757 -8 q 632 17 678 -8 q 572 114 586 43 q 478 19 544 54 q 315 -17 411 -17 m 365 126 q 491 172 443 126 q 539 297 539 218 l 539 333 l 369 297 q 268 206 268 278 q 365 126 268 126 z "},"á":{"ha":849,"x_min":54,"x_max":810,"o":"m 315 -17 q 126 37 199 -17 q 54 186 54 90 q 115 338 54 285 q 299 417 176 392 l 539 464 q 411 610 539 610 q 275 503 297 610 l 67 513 q 177 698 88 635 q 411 761 267 761 q 663 681 578 761 q 747 450 747 601 l 747 196 q 758 153 747 164 q 789 143 768 143 l 810 143 l 810 0 q 778 -6 800 -3 q 735 -8 757 -8 q 632 17 678 -8 q 572 114 586 43 q 478 19 544 54 q 315 -17 411 -17 m 365 126 q 491 172 443 126 q 539 297 539 218 l 539 333 l 369 297 q 268 206 268 278 q 365 126 268 126 m 321 821 l 401 1026 l 604 1026 l 479 821 l 321 821 z "},"ă":{"ha":849,"x_min":54,"x_max":810,"o":"m 315 -17 q 126 37 199 -17 q 54 186 54 90 q 115 338 54 285 q 299 417 176 392 l 539 464 q 411 610 539 610 q 275 503 297 610 l 67 513 q 177 698 88 635 q 411 761 267 761 q 663 681 578 761 q 747 450 747 601 l 747 196 q 758 153 747 164 q 789 143 768 143 l 810 143 l 810 0 q 778 -6 800 -3 q 735 -8 757 -8 q 632 17 678 -8 q 572 114 586 43 q 478 19 544 54 q 315 -17 411 -17 m 365 126 q 491 172 443 126 q 539 297 539 218 l 539 333 l 369 297 q 268 206 268 278 q 365 126 268 126 m 414 822 q 260 876 318 822 q 197 1026 201 929 l 317 1026 q 347 957 322 978 q 414 936 372 936 q 481 957 456 936 q 511 1026 506 978 l 632 1026 q 569 876 628 929 q 414 822 511 822 z "},"ǎ":{"ha":849,"x_min":54,"x_max":810,"o":"m 315 -17 q 126 37 199 -17 q 54 186 54 90 q 115 338 54 285 q 299 417 176 392 l 539 464 q 411 610 539 610 q 275 503 297 610 l 67 513 q 177 698 88 635 q 411 761 267 761 q 663 681 578 761 q 747 450 747 601 l 747 196 q 758 153 747 164 q 789 143 768 143 l 810 143 l 810 0 q 778 -6 800 -3 q 735 -8 757 -8 q 632 17 678 -8 q 572 114 586 43 q 478 19 544 54 q 315 -17 411 -17 m 365 126 q 491 172 443 126 q 539 297 539 218 l 539 333 l 369 297 q 268 206 268 278 q 365 126 268 126 m 182 1033 l 326 1033 l 415 910 l 503 1033 l 649 1033 l 515 821 l 315 821 l 182 1033 z "},"â":{"ha":849,"x_min":54,"x_max":810,"o":"m 315 -17 q 126 37 199 -17 q 54 186 54 90 q 115 338 54 285 q 299 417 176 392 l 539 464 q 411 610 539 610 q 275 503 297 610 l 67 513 q 177 698 88 635 q 411 761 267 761 q 663 681 578 761 q 747 450 747 601 l 747 196 q 758 153 747 164 q 789 143 768 143 l 810 143 l 810 0 q 778 -6 800 -3 q 735 -8 757 -8 q 632 17 678 -8 q 572 114 586 43 q 478 19 544 54 q 315 -17 411 -17 m 365 126 q 491 172 443 126 q 539 297 539 218 l 539 333 l 369 297 q 268 206 268 278 q 365 126 268 126 m 182 821 l 315 1033 l 515 1033 l 649 821 l 503 821 l 415 944 l 326 821 l 182 821 z "},"ä":{"ha":849,"x_min":54,"x_max":810,"o":"m 315 -17 q 126 37 199 -17 q 54 186 54 90 q 115 338 54 285 q 299 417 176 392 l 539 464 q 411 610 539 610 q 275 503 297 610 l 67 513 q 177 698 88 635 q 411 761 267 761 q 663 681 578 761 q 747 450 747 601 l 747 196 q 758 153 747 164 q 789 143 768 143 l 810 143 l 810 0 q 778 -6 800 -3 q 735 -8 757 -8 q 632 17 678 -8 q 572 114 586 43 q 478 19 544 54 q 315 -17 411 -17 m 365 126 q 491 172 443 126 q 539 297 539 218 l 539 333 l 369 297 q 268 206 268 278 q 365 126 268 126 m 167 832 l 167 1000 l 365 1000 l 365 832 l 167 832 m 464 832 l 464 1000 l 664 1000 l 664 832 l 464 832 z "},"à":{"ha":849,"x_min":54,"x_max":810,"o":"m 315 -17 q 126 37 199 -17 q 54 186 54 90 q 115 338 54 285 q 299 417 176 392 l 539 464 q 411 610 539 610 q 275 503 297 610 l 67 513 q 177 698 88 635 q 411 761 267 761 q 663 681 578 761 q 747 450 747 601 l 747 196 q 758 153 747 164 q 789 143 768 143 l 810 143 l 810 0 q 778 -6 800 -3 q 735 -8 757 -8 q 632 17 678 -8 q 572 114 586 43 q 478 19 544 54 q 315 -17 411 -17 m 365 126 q 491 172 443 126 q 539 297 539 218 l 539 333 l 369 297 q 268 206 268 278 q 365 126 268 126 m 349 831 l 224 1035 l 425 1035 l 507 831 l 349 831 z "},"ā":{"ha":849,"x_min":54,"x_max":810,"o":"m 315 -17 q 126 37 199 -17 q 54 186 54 90 q 115 338 54 285 q 299 417 176 392 l 539 464 q 411 610 539 610 q 275 503 297 610 l 67 513 q 177 698 88 635 q 411 761 267 761 q 663 681 578 761 q 747 450 747 601 l 747 196 q 758 153 747 164 q 789 143 768 143 l 810 143 l 810 0 q 778 -6 800 -3 q 735 -8 757 -8 q 632 17 678 -8 q 572 114 586 43 q 478 19 544 54 q 315 -17 411 -17 m 365 126 q 491 172 443 126 q 539 297 539 218 l 539 333 l 369 297 q 268 206 268 278 q 365 126 268 126 m 207 843 l 207 996 l 622 996 l 622 843 l 207 843 z "},"ą":{"ha":849,"x_min":54,"x_max":860,"o":"m 315 -17 q 126 37 199 -17 q 54 186 54 90 q 115 338 54 285 q 299 417 176 392 l 539 464 q 411 610 539 610 q 275 503 297 610 l 67 513 q 177 698 88 635 q 411 761 267 761 q 663 681 578 761 q 747 450 747 601 l 747 196 q 758 153 747 164 q 789 143 768 143 l 810 143 l 810 0 q 778 -6 800 -3 q 735 -8 757 -8 q 632 17 678 -8 q 572 114 586 43 q 478 19 544 54 q 315 -17 411 -17 m 365 126 q 491 172 443 126 q 539 297 539 218 l 539 333 l 369 297 q 268 206 268 278 q 365 126 268 126 m 713 -301 q 597 -271 638 -301 q 556 -183 556 -240 q 577 -101 556 -140 q 624 -28 599 -61 l 671 33 l 810 0 l 767 -56 q 735 -104 747 -83 q 724 -143 724 -125 q 734 -169 724 -160 q 760 -178 744 -178 q 822 -160 797 -178 l 860 -265 q 799 -291 842 -281 q 713 -301 757 -301 z "},"å":{"ha":849,"x_min":54,"x_max":810,"o":"m 315 -17 q 126 37 199 -17 q 54 186 54 90 q 115 338 54 285 q 299 417 176 392 l 539 464 q 411 610 539 610 q 275 503 297 610 l 67 513 q 177 698 88 635 q 411 761 267 761 q 663 681 578 761 q 747 450 747 601 l 747 196 q 758 153 747 164 q 789 143 768 143 l 810 143 l 810 0 q 778 -6 800 -3 q 735 -8 757 -8 q 632 17 678 -8 q 572 114 586 43 q 478 19 544 54 q 315 -17 411 -17 m 365 126 q 491 172 443 126 q 539 297 539 218 l 539 333 l 369 297 q 268 206 268 278 q 365 126 268 126 m 414 799 q 313 839 354 799 q 272 939 272 879 q 313 1040 272 1000 q 414 1081 354 1081 q 516 1040 475 1081 q 557 939 557 1000 q 516 839 557 879 q 414 799 475 799 m 414 888 q 452 902 438 888 q 467 939 467 917 q 452 977 467 963 q 414 992 438 992 q 377 977 392 992 q 363 939 363 963 q 377 902 363 917 q 414 888 392 888 z "},"ã":{"ha":849,"x_min":54,"x_max":810,"o":"m 315 -17 q 126 37 199 -17 q 54 186 54 90 q 115 338 54 285 q 299 417 176 392 l 539 464 q 411 610 539 610 q 275 503 297 610 l 67 513 q 177 698 88 635 q 411 761 267 761 q 663 681 578 761 q 747 450 747 601 l 747 196 q 758 153 747 164 q 789 143 768 143 l 810 143 l 810 0 q 778 -6 800 -3 q 735 -8 757 -8 q 632 17 678 -8 q 572 114 586 43 q 478 19 544 54 q 315 -17 411 -17 m 365 126 q 491 172 443 126 q 539 297 539 218 l 539 333 l 369 297 q 268 206 268 278 q 365 126 268 126 m 492 833 q 437 844 460 833 q 386 878 414 854 q 359 897 371 890 q 333 903 347 903 q 298 886 313 903 q 279 826 283 869 l 176 826 q 217 970 176 917 q 329 1024 257 1024 q 389 1013 363 1024 q 443 979 415 1001 q 496 954 474 954 q 531 972 517 954 q 547 1033 544 989 l 651 1033 q 609 888 650 942 q 492 833 568 833 z "},"æ":{"ha":1339,"x_min":54,"x_max":1285,"o":"m 317 -17 q 128 35 201 -17 q 54 186 54 88 q 122 345 54 294 q 299 417 189 396 l 539 458 q 505 574 538 538 q 410 610 472 610 q 318 581 351 610 q 275 503 285 553 l 67 513 q 176 697 88 633 q 408 761 264 761 q 669 675 583 761 q 781 739 717 717 q 921 761 844 761 q 1113 713 1031 761 q 1240 574 1196 664 q 1285 358 1285 483 l 1285 317 l 763 317 q 810 185 765 228 q 926 142 854 142 q 1065 232 1035 142 l 1275 219 q 1151 46 1244 108 q 922 -17 1057 -17 q 742 22 821 -17 q 615 131 664 61 q 497 21 574 58 q 317 -17 421 -17 m 763 444 l 1072 444 q 1026 567 1068 526 q 921 607 985 607 q 813 565 856 607 q 763 444 771 522 m 381 125 q 495 169 451 126 q 539 294 539 211 l 539 328 l 369 297 q 292 265 317 289 q 268 206 268 242 q 294 144 268 165 q 381 125 321 122 z "},"b":{"ha":883,"x_min":92,"x_max":829,"o":"m 519 -17 q 384 17 442 -17 q 294 110 326 50 l 290 0 l 92 0 l 92 986 l 300 986 l 300 639 q 386 726 329 690 q 519 761 443 761 q 683 713 614 761 q 791 578 753 665 q 829 372 829 490 q 791 167 829 254 q 683 31 753 79 q 519 -17 614 -17 m 461 143 q 573 203 531 143 q 615 372 615 264 q 574 541 615 481 q 463 601 532 601 q 342 541 385 601 q 300 372 300 481 q 342 204 300 265 q 461 143 385 143 z "},"c":{"ha":835,"x_min":54,"x_max":796,"o":"m 432 -17 q 233 32 318 -17 q 101 167 147 81 q 54 372 54 254 q 101 576 54 489 q 233 713 147 664 q 432 761 318 761 q 609 726 531 761 q 736 626 688 692 q 796 469 785 561 l 581 460 q 531 565 571 529 q 432 600 492 600 q 311 540 354 600 q 268 372 268 481 q 311 203 268 264 q 432 143 354 143 q 532 180 492 143 q 581 292 572 217 l 796 283 q 737 124 785 192 q 611 20 689 57 q 432 -17 533 -17 z "},"ć":{"ha":835,"x_min":54,"x_max":796,"o":"m 432 -17 q 233 32 318 -17 q 101 167 147 81 q 54 372 54 254 q 101 576 54 489 q 233 713 147 664 q 432 761 318 761 q 609 726 531 761 q 736 626 688 692 q 796 469 785 561 l 581 460 q 531 565 571 529 q 432 600 492 600 q 311 540 354 600 q 268 372 268 481 q 311 203 268 264 q 432 143 354 143 q 532 180 492 143 q 581 292 572 217 l 796 283 q 737 124 785 192 q 611 20 689 57 q 432 -17 533 -17 m 338 821 l 418 1026 l 621 1026 l 496 821 l 338 821 z "},"č":{"ha":835,"x_min":54,"x_max":796,"o":"m 432 -17 q 233 32 318 -17 q 101 167 147 81 q 54 372 54 254 q 101 576 54 489 q 233 713 147 664 q 432 761 318 761 q 609 726 531 761 q 736 626 688 692 q 796 469 785 561 l 581 460 q 531 565 571 529 q 432 600 492 600 q 311 540 354 600 q 268 372 268 481 q 311 203 268 264 q 432 143 354 143 q 532 180 492 143 q 581 292 572 217 l 796 283 q 737 124 785 192 q 611 20 689 57 q 432 -17 533 -17 m 199 1033 l 343 1033 l 432 910 l 519 1033 l 665 1033 l 532 821 l 332 821 l 199 1033 z "},"ç":{"ha":835,"x_min":54,"x_max":796,"o":"m 432 -17 q 233 32 318 -17 q 101 167 147 81 q 54 372 54 254 q 101 576 54 489 q 233 713 147 664 q 432 761 318 761 q 609 726 531 761 q 736 626 688 692 q 796 469 785 561 l 581 460 q 531 565 571 529 q 432 600 492 600 q 311 540 354 600 q 268 372 268 481 q 311 203 268 264 q 432 143 354 143 q 532 180 492 143 q 581 292 572 217 l 796 283 q 737 124 785 192 q 611 20 689 57 q 432 -17 533 -17 m 424 -322 q 309 -290 354 -322 q 246 -207 264 -258 l 338 -168 q 367 -208 349 -194 q 419 -221 386 -221 q 468 -208 450 -221 q 486 -171 486 -194 q 469 -131 486 -146 q 396 -117 451 -117 l 339 -62 l 385 14 l 504 14 l 465 -43 q 567 -87 536 -50 q 599 -175 599 -124 q 547 -286 599 -250 q 424 -322 496 -322 z "},"ĉ":{"ha":835,"x_min":54,"x_max":796,"o":"m 432 -17 q 233 32 318 -17 q 101 167 147 81 q 54 372 54 254 q 101 576 54 489 q 233 713 147 664 q 432 761 318 761 q 609 726 531 761 q 736 626 688 692 q 796 469 785 561 l 581 460 q 531 565 571 529 q 432 600 492 600 q 311 540 354 600 q 268 372 268 481 q 311 203 268 264 q 432 143 354 143 q 532 180 492 143 q 581 292 572 217 l 796 283 q 737 124 785 192 q 611 20 689 57 q 432 -17 533 -17 m 199 821 l 332 1033 l 532 1033 l 665 821 l 519 821 l 432 944 l 343 821 l 199 821 z "},"ċ":{"ha":835,"x_min":54,"x_max":796,"o":"m 432 -17 q 233 32 318 -17 q 101 167 147 81 q 54 372 54 254 q 101 576 54 489 q 233 713 147 664 q 432 761 318 761 q 609 726 531 761 q 736 626 688 692 q 796 469 785 561 l 581 460 q 531 565 571 529 q 432 600 492 600 q 311 540 354 600 q 268 372 268 481 q 311 203 268 264 q 432 143 354 143 q 532 180 492 143 q 581 292 572 217 l 796 283 q 737 124 785 192 q 611 20 689 57 q 432 -17 533 -17 m 325 836 l 325 1003 l 540 1003 l 540 836 l 325 836 z "},"d":{"ha":883,"x_min":54,"x_max":792,"o":"m 358 -17 q 197 31 265 -17 q 91 165 128 78 q 54 372 54 253 q 92 578 54 492 q 198 713 129 665 q 358 761 267 761 q 497 728 439 761 q 583 639 554 696 l 583 986 l 792 986 l 792 0 l 592 0 l 588 110 q 497 17 557 50 q 358 -17 436 -17 m 428 143 q 543 201 503 143 q 583 372 583 260 q 543 544 583 486 q 428 601 503 601 q 311 540 354 601 q 268 372 268 479 q 312 206 268 268 q 428 143 356 143 z "},"ď":{"ha":1029,"x_min":54,"x_max":1072,"o":"m 358 -17 q 197 31 265 -17 q 91 165 128 78 q 54 372 54 253 q 92 578 54 492 q 198 713 129 665 q 358 761 267 761 q 497 728 439 761 q 583 639 554 696 l 583 986 l 792 986 l 792 0 l 592 0 l 588 110 q 497 17 557 50 q 358 -17 436 -17 m 428 143 q 543 201 503 143 q 583 372 583 260 q 543 544 583 486 q 428 601 503 601 q 311 540 354 601 q 268 372 268 479 q 312 206 268 268 q 428 143 356 143 m 853 589 l 893 986 l 1072 986 l 997 589 l 853 589 z "},"đ":{"ha":883,"x_min":54,"x_max":885,"o":"m 358 -17 q 197 31 265 -17 q 91 165 128 78 q 54 372 54 253 q 92 578 54 492 q 198 713 129 665 q 358 761 267 761 q 497 728 439 761 q 583 639 554 696 l 583 986 l 792 986 l 792 0 l 592 0 l 588 110 q 497 17 557 50 q 358 -17 436 -17 m 428 143 q 543 201 503 143 q 583 372 583 260 q 543 544 583 486 q 428 601 503 601 q 311 540 354 601 q 268 372 268 479 q 312 206 268 268 q 428 143 356 143 m 401 800 l 401 921 l 885 921 l 885 800 l 401 800 z "},"ð":{"ha":864,"x_min":54,"x_max":810,"o":"m 432 -17 q 151 75 249 -17 q 54 326 54 167 q 151 578 54 486 q 432 669 249 669 q 515 659 475 669 q 593 632 556 649 q 501 771 563 718 l 322 696 l 285 792 l 388 835 q 244 861 325 857 l 301 1003 q 451 972 383 994 q 571 913 518 949 l 754 989 l 793 894 l 658 838 q 774 626 738 749 q 810 365 810 504 q 713 80 810 176 q 432 -17 615 -17 m 432 140 q 552 190 510 140 q 594 332 594 240 q 552 463 594 413 q 432 513 510 513 q 311 462 354 513 q 268 326 268 411 q 311 190 268 240 q 432 140 354 140 z "},"e":{"ha":846,"x_min":54,"x_max":792,"o":"m 429 -17 q 231 32 315 -17 q 100 167 146 81 q 54 372 54 254 q 100 576 54 489 q 230 713 146 664 q 428 761 314 761 q 619 713 538 761 q 747 574 701 664 q 792 358 792 483 l 792 317 l 269 317 q 317 185 274 228 q 433 142 361 142 q 572 232 542 142 l 782 219 q 658 46 751 108 q 429 -17 564 -17 m 269 444 l 579 444 q 533 567 575 526 q 428 607 492 607 q 320 565 363 607 q 269 444 278 522 z "},"é":{"ha":846,"x_min":54,"x_max":792,"o":"m 429 -17 q 231 32 315 -17 q 100 167 146 81 q 54 372 54 254 q 100 576 54 489 q 230 713 146 664 q 428 761 314 761 q 619 713 538 761 q 747 574 701 664 q 792 358 792 483 l 792 317 l 269 317 q 317 185 274 228 q 433 142 361 142 q 572 232 542 142 l 782 219 q 658 46 751 108 q 429 -17 564 -17 m 269 444 l 579 444 q 533 567 575 526 q 428 607 492 607 q 320 565 363 607 q 269 444 278 522 m 338 818 l 418 1024 l 621 1024 l 496 818 l 338 818 z "},"ě":{"ha":846,"x_min":54,"x_max":792,"o":"m 429 -17 q 231 32 315 -17 q 100 167 146 81 q 54 372 54 254 q 100 576 54 489 q 230 713 146 664 q 428 761 314 761 q 619 713 538 761 q 747 574 701 664 q 792 358 792 483 l 792 317 l 269 317 q 317 185 274 228 q 433 142 361 142 q 572 232 542 142 l 782 219 q 658 46 751 108 q 429 -17 564 -17 m 269 444 l 579 444 q 533 567 575 526 q 428 607 492 607 q 320 565 363 607 q 269 444 278 522 m 199 1031 l 343 1031 l 432 907 l 519 1031 l 665 1031 l 532 818 l 332 818 l 199 1031 z "},"ê":{"ha":846,"x_min":54,"x_max":792,"o":"m 429 -17 q 231 32 315 -17 q 100 167 146 81 q 54 372 54 254 q 100 576 54 489 q 230 713 146 664 q 428 761 314 761 q 619 713 538 761 q 747 574 701 664 q 792 358 792 483 l 792 317 l 269 317 q 317 185 274 228 q 433 142 361 142 q 572 232 542 142 l 782 219 q 658 46 751 108 q 429 -17 564 -17 m 269 444 l 579 444 q 533 567 575 526 q 428 607 492 607 q 320 565 363 607 q 269 444 278 522 m 199 818 l 332 1031 l 532 1031 l 665 818 l 519 818 l 432 942 l 343 818 l 199 818 z "},"ë":{"ha":846,"x_min":54,"x_max":792,"o":"m 429 -17 q 231 32 315 -17 q 100 167 146 81 q 54 372 54 254 q 100 576 54 489 q 230 713 146 664 q 428 761 314 761 q 619 713 538 761 q 747 574 701 664 q 792 358 792 483 l 792 317 l 269 317 q 317 185 274 228 q 433 142 361 142 q 572 232 542 142 l 782 219 q 658 46 751 108 q 429 -17 564 -17 m 269 444 l 579 444 q 533 567 575 526 q 428 607 492 607 q 320 565 363 607 q 269 444 278 522 m 183 829 l 183 997 l 382 997 l 382 829 l 183 829 m 481 829 l 481 997 l 681 997 l 681 829 l 481 829 z "},"ė":{"ha":846,"x_min":54,"x_max":792,"o":"m 429 -17 q 231 32 315 -17 q 100 167 146 81 q 54 372 54 254 q 100 576 54 489 q 230 713 146 664 q 428 761 314 761 q 619 713 538 761 q 747 574 701 664 q 792 358 792 483 l 792 317 l 269 317 q 317 185 274 228 q 433 142 361 142 q 572 232 542 142 l 782 219 q 658 46 751 108 q 429 -17 564 -17 m 269 444 l 579 444 q 533 567 575 526 q 428 607 492 607 q 320 565 363 607 q 269 444 278 522 m 325 833 l 325 1000 l 540 1000 l 540 833 l 325 833 z "},"è":{"ha":846,"x_min":54,"x_max":792,"o":"m 429 -17 q 231 32 315 -17 q 100 167 146 81 q 54 372 54 254 q 100 576 54 489 q 230 713 146 664 q 428 761 314 761 q 619 713 538 761 q 747 574 701 664 q 792 358 792 483 l 792 317 l 269 317 q 317 185 274 228 q 433 142 361 142 q 572 232 542 142 l 782 219 q 658 46 751 108 q 429 -17 564 -17 m 269 444 l 579 444 q 533 567 575 526 q 428 607 492 607 q 320 565 363 607 q 269 444 278 522 m 367 828 l 242 1032 l 443 1032 l 525 828 l 367 828 z "},"ē":{"ha":846,"x_min":54,"x_max":792,"o":"m 429 -17 q 231 32 315 -17 q 100 167 146 81 q 54 372 54 254 q 100 576 54 489 q 230 713 146 664 q 428 761 314 761 q 619 713 538 761 q 747 574 701 664 q 792 358 792 483 l 792 317 l 269 317 q 317 185 274 228 q 433 142 361 142 q 572 232 542 142 l 782 219 q 658 46 751 108 q 429 -17 564 -17 m 269 444 l 579 444 q 533 567 575 526 q 428 607 492 607 q 320 565 363 607 q 269 444 278 522 m 225 840 l 225 993 l 640 993 l 640 840 l 225 840 z "},"ę":{"ha":846,"x_min":54,"x_max":792,"o":"m 429 -17 q 231 32 315 -17 q 100 167 146 81 q 54 372 54 254 q 100 576 54 489 q 230 713 146 664 q 428 761 314 761 q 620 713 538 761 q 747 574 703 664 q 792 358 792 483 l 792 317 l 269 317 q 317 185 274 228 q 433 142 361 142 q 572 232 542 142 l 782 219 q 718 99 763 151 l 718 99 l 596 -47 q 553 -139 553 -100 q 564 -169 553 -160 q 589 -178 575 -178 q 649 -160 624 -178 l 686 -265 q 627 -291 668 -281 q 542 -301 586 -301 q 427 -268 468 -301 q 386 -175 386 -235 q 403 -96 386 -131 q 447 -29 419 -61 l 458 -15 q 429 -17 444 -17 m 269 444 l 579 444 q 533 567 575 526 q 428 607 492 607 q 320 565 363 607 q 269 444 278 522 z "},"ẽ":{"ha":846,"x_min":54,"x_max":792,"o":"m 429 -17 q 231 32 315 -17 q 100 167 146 81 q 54 372 54 254 q 100 576 54 489 q 230 713 146 664 q 428 761 314 761 q 619 713 538 761 q 747 574 701 664 q 792 358 792 483 l 792 317 l 269 317 q 317 185 274 228 q 433 142 361 142 q 572 232 542 142 l 782 219 q 658 46 751 108 q 429 -17 564 -17 m 269 444 l 579 444 q 533 567 575 526 q 428 607 492 607 q 320 565 363 607 q 269 444 278 522 m 510 831 q 455 841 478 831 q 404 875 432 851 q 377 894 389 888 q 351 900 365 900 q 316 883 331 900 q 297 824 301 867 l 194 824 q 235 967 194 914 q 347 1021 275 1021 q 407 1010 381 1021 q 461 976 433 999 q 514 951 492 951 q 549 969 535 951 q 565 1031 563 986 l 669 1031 q 627 885 668 939 q 510 831 586 831 z "},"ə":{"ha":846,"x_min":54,"x_max":792,"o":"m 417 761 q 615 713 531 761 q 746 578 700 665 q 792 372 792 490 q 746 168 792 256 q 616 32 700 81 q 418 -17 532 -17 q 226 32 308 -17 q 99 171 144 81 q 54 386 54 261 l 54 428 l 576 428 q 529 560 574 517 q 413 603 485 603 q 274 513 304 603 l 64 525 q 188 699 94 636 q 417 761 282 761 m 576 300 l 267 300 q 313 178 271 218 q 418 138 354 138 q 526 180 483 138 q 576 300 568 222 z "},"f":{"ha":622,"x_min":64,"x_max":576,"o":"m 172 0 l 172 561 l 64 561 l 64 717 l 172 717 l 172 754 q 232 925 172 864 q 418 986 292 986 l 576 986 l 576 831 l 463 831 q 400 809 419 831 q 381 744 381 788 l 381 717 l 565 717 l 565 561 l 381 561 l 381 0 l 172 0 z "},"g":{"ha":882,"x_min":54,"x_max":792,"o":"m 428 -225 q 185 -167 268 -225 q 76 -17 101 -108 l 290 -1 q 332 -58 301 -37 q 428 -79 363 -79 q 542 -44 501 -79 q 582 69 582 -8 l 582 149 q 497 66 556 97 q 367 35 438 35 q 204 79 275 35 q 94 206 133 124 q 54 397 54 288 q 94 586 54 504 q 203 715 133 668 q 364 761 272 761 q 502 725 446 761 q 588 629 558 689 l 588 744 l 792 744 l 792 74 q 745 -93 792 -26 q 617 -192 699 -160 q 428 -225 536 -225 m 426 189 q 540 244 497 189 q 583 399 583 299 q 541 552 583 496 q 426 608 499 608 q 310 551 351 608 q 268 399 268 494 q 311 246 268 303 q 426 189 354 189 z "},"ğ":{"ha":882,"x_min":54,"x_max":792,"o":"m 428 -225 q 185 -167 268 -225 q 76 -17 101 -108 l 290 -1 q 332 -58 301 -37 q 428 -79 363 -79 q 542 -44 501 -79 q 582 69 582 -8 l 582 149 q 497 66 556 97 q 367 35 438 35 q 204 79 275 35 q 94 206 133 124 q 54 397 54 288 q 94 586 54 504 q 203 715 133 668 q 364 761 272 761 q 502 725 446 761 q 588 629 558 689 l 588 744 l 792 744 l 792 74 q 745 -93 792 -26 q 617 -192 699 -160 q 428 -225 536 -225 m 426 189 q 540 244 497 189 q 583 399 583 299 q 541 552 583 496 q 426 608 499 608 q 310 551 351 608 q 268 399 268 494 q 311 246 268 303 q 426 189 354 189 m 432 822 q 278 876 336 822 q 215 1026 219 929 l 335 1026 q 365 957 340 978 q 432 936 390 936 q 499 957 474 936 q 529 1026 524 978 l 650 1026 q 588 876 646 929 q 432 822 529 822 z "},"ǧ":{"ha":882,"x_min":54,"x_max":792,"o":"m 428 -225 q 185 -167 268 -225 q 76 -17 101 -108 l 290 -1 q 332 -58 301 -37 q 428 -79 363 -79 q 542 -44 501 -79 q 582 69 582 -8 l 582 149 q 497 66 556 97 q 367 35 438 35 q 204 79 275 35 q 94 206 133 124 q 54 397 54 288 q 94 586 54 504 q 203 715 133 668 q 364 761 272 761 q 502 725 446 761 q 588 629 558 689 l 588 744 l 792 744 l 792 74 q 745 -93 792 -26 q 617 -192 699 -160 q 428 -225 536 -225 m 426 189 q 540 244 497 189 q 583 399 583 299 q 541 552 583 496 q 426 608 499 608 q 310 551 351 608 q 268 399 268 494 q 311 246 268 303 q 426 189 354 189 m 199 1033 l 343 1033 l 432 910 l 519 1033 l 665 1033 l 532 821 l 332 821 l 199 1033 z "},"ĝ":{"ha":882,"x_min":54,"x_max":792,"o":"m 428 -225 q 185 -167 268 -225 q 76 -17 101 -108 l 290 -1 q 332 -58 301 -37 q 428 -79 363 -79 q 542 -44 501 -79 q 582 69 582 -8 l 582 149 q 497 66 556 97 q 367 35 438 35 q 204 79 275 35 q 94 206 133 124 q 54 397 54 288 q 94 586 54 504 q 203 715 133 668 q 364 761 272 761 q 502 725 446 761 q 588 629 558 689 l 588 744 l 792 744 l 792 74 q 745 -93 792 -26 q 617 -192 699 -160 q 428 -225 536 -225 m 426 189 q 540 244 497 189 q 583 399 583 299 q 541 552 583 496 q 426 608 499 608 q 310 551 351 608 q 268 399 268 494 q 311 246 268 303 q 426 189 354 189 m 199 821 l 332 1033 l 532 1033 l 665 821 l 519 821 l 432 944 l 343 821 l 199 821 z "},"ģ":{"ha":882,"x_min":54,"x_max":792,"o":"m 428 -225 q 185 -167 268 -225 q 76 -17 101 -108 l 290 -1 q 332 -58 301 -37 q 428 -79 363 -79 q 542 -44 501 -79 q 582 69 582 -8 l 582 149 q 497 66 556 97 q 367 35 438 35 q 204 79 275 35 q 94 206 133 124 q 54 397 54 288 q 94 586 54 504 q 203 715 133 668 q 364 761 272 761 q 502 725 446 761 q 588 629 558 689 l 588 744 l 792 744 l 792 74 q 745 -93 792 -26 q 617 -192 699 -160 q 428 -225 536 -225 m 426 189 q 540 244 497 189 q 583 399 583 299 q 541 552 583 496 q 426 608 499 608 q 310 551 351 608 q 268 399 268 494 q 311 246 268 303 q 426 189 354 189 m 343 822 l 343 967 l 425 1106 l 547 1106 l 475 983 l 524 983 l 524 822 l 343 822 z "},"ġ":{"ha":882,"x_min":54,"x_max":792,"o":"m 428 -225 q 185 -167 268 -225 q 76 -17 101 -108 l 290 -1 q 332 -58 301 -37 q 428 -79 363 -79 q 542 -44 501 -79 q 582 69 582 -8 l 582 149 q 497 66 556 97 q 367 35 438 35 q 204 79 275 35 q 94 206 133 124 q 54 397 54 288 q 94 586 54 504 q 203 715 133 668 q 364 761 272 761 q 502 725 446 761 q 588 629 558 689 l 588 744 l 792 744 l 792 74 q 745 -93 792 -26 q 617 -192 699 -160 q 428 -225 536 -225 m 426 189 q 540 244 497 189 q 583 399 583 299 q 541 552 583 496 q 426 608 499 608 q 310 551 351 608 q 268 399 268 494 q 311 246 268 303 q 426 189 354 189 m 325 836 l 325 1003 l 540 1003 l 540 836 l 325 836 z "},"ḡ":{"ha":882,"x_min":54,"x_max":792,"o":"m 428 -225 q 185 -167 268 -225 q 76 -17 101 -108 l 290 -1 q 332 -58 301 -37 q 428 -79 363 -79 q 542 -44 501 -79 q 582 69 582 -8 l 582 149 q 497 66 556 97 q 367 35 438 35 q 204 79 275 35 q 94 206 133 124 q 54 397 54 288 q 94 586 54 504 q 203 715 133 668 q 364 761 272 761 q 502 725 446 761 q 588 629 558 689 l 588 744 l 792 744 l 792 74 q 745 -93 792 -26 q 617 -192 699 -160 q 428 -225 536 -225 m 426 189 q 540 244 497 189 q 583 399 583 299 q 541 552 583 496 q 426 608 499 608 q 310 551 351 608 q 268 399 268 494 q 311 246 268 303 q 426 189 354 189 m 225 843 l 225 996 l 640 996 l 640 843 l 225 843 z "},"ǥ":{"ha":914,"x_min":54,"x_max":879,"o":"m 428 -225 q 185 -167 268 -225 q 76 -17 101 -108 l 290 -1 q 332 -58 301 -37 q 428 -79 363 -79 q 542 -44 501 -79 q 582 69 582 -8 l 582 149 q 497 66 556 97 q 367 35 438 35 q 204 79 275 35 q 94 206 133 124 q 54 397 54 288 q 94 586 54 504 q 203 715 133 668 q 364 761 272 761 q 502 725 446 761 q 588 629 558 689 l 588 744 l 792 744 l 792 453 l 879 453 l 879 331 l 792 331 l 792 74 q 745 -93 792 -26 q 617 -192 699 -160 q 428 -225 536 -225 m 426 189 q 524 226 485 189 q 576 331 563 263 l 388 331 l 388 453 l 579 453 q 528 567 569 526 q 426 608 488 608 q 310 551 351 608 q 268 399 268 494 q 311 246 268 303 q 426 189 354 189 z "},"h":{"ha":849,"x_min":92,"x_max":757,"o":"m 92 0 l 92 986 l 300 986 l 300 653 q 385 735 331 708 q 506 761 439 761 q 694 682 631 761 q 757 479 757 603 l 757 0 l 549 0 l 549 429 q 522 554 549 513 q 436 596 496 596 q 336 552 372 596 q 300 424 300 508 l 300 0 l 92 0 z "},"ħ":{"ha":849,"x_min":-3,"x_max":757,"o":"m 92 0 l 92 986 l 300 986 l 300 653 q 385 735 331 708 q 506 761 439 761 q 694 682 631 761 q 757 479 757 603 l 757 0 l 549 0 l 549 429 q 522 554 549 513 q 436 596 496 596 q 336 552 372 596 q 300 424 300 508 l 300 0 l 92 0 m -3 800 l -3 921 l 481 921 l 481 800 l -3 800 z "},"ĥ":{"ha":849,"x_min":-35,"x_max":757,"o":"m 92 0 l 92 986 l 300 986 l 300 653 q 385 735 331 708 q 506 761 439 761 q 694 682 631 761 q 757 479 757 603 l 757 0 l 549 0 l 549 429 q 522 554 549 513 q 436 596 496 596 q 336 552 372 596 q 300 424 300 508 l 300 0 l 92 0 m -35 1035 l 99 1247 l 299 1247 l 432 1035 l 286 1035 l 199 1158 l 110 1035 l -35 1035 z "},"i":{"ha":390,"x_min":88,"x_max":303,"o":"m 92 0 l 92 744 l 300 744 l 300 0 l 92 0 m 88 836 l 88 1003 l 303 1003 l 303 836 l 88 836 z "},"ı":{"ha":390,"x_min":92,"x_max":300,"o":"m 92 0 l 92 744 l 300 744 l 300 0 l 92 0 z "},"í":{"ha":390,"x_min":92,"x_max":385,"o":"m 92 0 l 92 744 l 300 744 l 300 0 l 92 0 m 101 821 l 182 1026 l 385 1026 l 260 821 l 101 821 z "},"î":{"ha":390,"x_min":-37,"x_max":429,"o":"m 92 0 l 92 744 l 300 744 l 300 0 l 92 0 m -37 821 l 96 1033 l 296 1033 l 429 821 l 283 821 l 196 944 l 107 821 l -37 821 z "},"ï":{"ha":390,"x_min":-53,"x_max":444,"o":"m 92 0 l 92 744 l 300 744 l 300 0 l 92 0 m -53 832 l -53 1000 l 146 1000 l 146 832 l -53 832 m 244 832 l 244 1000 l 444 1000 l 444 832 l 244 832 z "},"ì":{"ha":390,"x_min":4,"x_max":300,"o":"m 92 0 l 92 744 l 300 744 l 300 0 l 92 0 m 129 831 l 4 1035 l 206 1035 l 288 831 l 129 831 z "},"ī":{"ha":390,"x_min":-12,"x_max":403,"o":"m 92 0 l 92 744 l 300 744 l 300 0 l 92 0 m -12 843 l -12 996 l 403 996 l 403 843 l -12 843 z "},"į":{"ha":390,"x_min":46,"x_max":350,"o":"m 92 0 l 92 744 l 300 744 l 300 0 l 92 0 m 88 836 l 88 1003 l 303 1003 l 303 836 l 88 836 m 203 -301 q 87 -271 128 -301 q 46 -183 46 -240 q 67 -101 46 -140 q 114 -28 89 -61 l 161 33 l 300 0 l 257 -56 q 226 -104 238 -83 q 214 -143 214 -125 q 224 -169 214 -160 q 250 -178 235 -178 q 313 -160 288 -178 l 350 -265 q 290 -291 332 -281 q 203 -301 247 -301 z "},"ĩ":{"ha":390,"x_min":-43,"x_max":432,"o":"m 92 0 l 92 744 l 300 744 l 300 0 l 92 0 m 272 833 q 217 844 240 833 q 167 878 194 854 q 140 897 151 890 q 114 903 128 903 q 78 886 93 903 q 60 826 64 869 l -43 826 q -3 970 -43 917 q 110 1024 38 1024 q 169 1013 143 1024 q 224 979 196 1001 q 276 954 254 954 q 311 972 297 954 q 328 1033 325 989 l 432 1033 q 390 888 431 942 q 272 833 349 833 z "},"ĳ":{"ha":838,"x_min":88,"x_max":750,"o":"m 92 0 l 92 744 l 300 744 l 300 0 l 92 0 m 88 836 l 88 1003 l 303 1003 l 303 836 l 88 836 m 372 -208 l 372 -53 l 454 -53 q 515 -36 494 -53 q 536 31 536 -19 l 536 744 l 746 744 l 746 25 q 690 -154 746 -100 q 497 -208 633 -208 l 372 -208 m 535 836 l 535 1003 l 750 1003 l 750 836 l 535 836 z "},"j":{"ha":460,"x_min":-4,"x_max":374,"o":"m -4 -208 l -4 -53 l 78 -53 q 139 -36 118 -53 q 160 31 160 -19 l 160 744 l 369 744 l 369 25 q 313 -154 369 -100 q 121 -208 257 -208 l -4 -208 m 158 836 l 158 1003 l 374 1003 l 374 836 l 158 836 z "},"ȷ":{"ha":460,"x_min":-4,"x_max":369,"o":"m -4 -208 l -4 -53 l 78 -53 q 139 -36 118 -53 q 160 31 160 -19 l 160 744 l 369 744 l 369 25 q 313 -154 369 -100 q 121 -208 257 -208 l -4 -208 z "},"ĵ":{"ha":460,"x_min":-4,"x_max":499,"o":"m -4 -208 l -4 -53 l 78 -53 q 139 -36 118 -53 q 160 31 160 -19 l 160 744 l 369 744 l 369 25 q 313 -154 369 -100 q 121 -208 257 -208 l -4 -208 m 32 821 l 165 1033 l 365 1033 l 499 821 l 353 821 l 265 944 l 176 821 l 32 821 z "},"k":{"ha":899,"x_min":92,"x_max":835,"o":"m 92 0 l 92 986 l 300 986 l 300 439 l 576 744 l 826 744 l 538 438 l 835 0 l 607 0 l 403 319 l 300 210 l 300 0 l 92 0 z "},"ǩ":{"ha":899,"x_min":-37,"x_max":835,"o":"m 92 0 l 92 986 l 300 986 l 300 439 l 576 744 l 826 744 l 538 438 l 835 0 l 607 0 l 403 319 l 300 210 l 300 0 l 92 0 m -37 1244 l 107 1244 l 196 1121 l 283 1244 l 429 1244 l 296 1032 l 96 1032 l -37 1244 z "},"ķ":{"ha":899,"x_min":92,"x_max":835,"o":"m 92 0 l 92 986 l 300 986 l 300 439 l 576 744 l 826 744 l 538 438 l 835 0 l 607 0 l 403 319 l 300 210 l 300 0 l 92 0 m 326 -351 l 399 -229 l 350 -229 l 350 -68 l 531 -68 l 531 -214 l 449 -351 l 326 -351 z "},"l":{"ha":456,"x_min":92,"x_max":410,"o":"m 286 0 q 143 45 194 0 q 92 194 92 90 l 92 986 l 300 986 l 300 217 q 315 169 300 183 q 360 156 331 156 l 410 156 l 410 0 l 286 0 z "},"ĺ":{"ha":456,"x_min":92,"x_max":410,"o":"m 286 0 q 143 45 194 0 q 92 194 92 90 l 92 986 l 300 986 l 300 217 q 315 169 300 183 q 360 156 331 156 l 410 156 l 410 0 l 286 0 m 101 1032 l 182 1238 l 385 1238 l 260 1032 l 101 1032 z "},"ľ":{"ha":542,"x_min":92,"x_max":586,"o":"m 286 0 q 143 45 194 0 q 92 194 92 90 l 92 986 l 300 986 l 300 217 q 315 169 300 183 q 360 156 331 156 l 410 156 l 410 0 l 286 0 m 367 589 l 407 986 l 586 986 l 511 589 l 367 589 z "},"ļ":{"ha":456,"x_min":92,"x_max":410,"o":"m 286 0 q 143 45 194 0 q 92 194 92 90 l 92 986 l 300 986 l 300 217 q 315 169 300 183 q 360 156 331 156 l 410 156 l 410 0 l 286 0 m 142 -351 l 214 -229 l 165 -229 l 165 -68 l 346 -68 l 346 -214 l 264 -351 l 142 -351 z "},"ł":{"ha":456,"x_min":3,"x_max":425,"o":"m 286 0 q 143 45 194 0 q 92 194 92 90 l 92 986 l 300 986 l 300 217 q 315 169 300 183 q 360 156 331 156 l 410 156 l 410 0 l 286 0 m 3 390 l 3 526 l 425 693 l 425 557 l 3 390 z "},"m":{"ha":1250,"x_min":92,"x_max":1158,"o":"m 92 0 l 92 744 l 279 744 l 283 624 q 365 725 311 689 q 486 761 418 761 q 621 720 567 761 q 699 610 675 679 q 780 722 725 683 q 908 761 835 761 q 1090 689 1022 761 q 1158 479 1158 617 l 1158 0 l 950 0 l 950 421 q 838 596 950 596 q 749 549 781 596 q 718 418 718 503 l 718 0 l 531 0 l 531 418 q 506 550 531 504 q 419 596 481 596 q 331 549 363 596 q 300 418 300 501 l 300 0 l 92 0 z "},"n":{"ha":849,"x_min":92,"x_max":757,"o":"m 92 0 l 92 744 l 279 744 l 283 621 q 372 729 314 697 q 504 761 431 761 q 691 685 625 761 q 757 479 757 608 l 757 0 l 549 0 l 549 410 q 524 547 549 499 q 435 596 500 596 q 335 547 369 596 q 300 410 300 499 l 300 0 l 92 0 z "},"ń":{"ha":849,"x_min":92,"x_max":757,"o":"m 92 0 l 92 744 l 279 744 l 283 621 q 372 729 314 697 q 504 761 431 761 q 691 685 625 761 q 757 479 757 608 l 757 0 l 549 0 l 549 410 q 524 547 549 499 q 435 596 500 596 q 335 547 369 596 q 300 410 300 499 l 300 0 l 92 0 m 331 821 l 411 1026 l 614 1026 l 489 821 l 331 821 z "},"ň":{"ha":849,"x_min":92,"x_max":757,"o":"m 92 0 l 92 744 l 279 744 l 283 621 q 372 729 314 697 q 504 761 431 761 q 691 685 625 761 q 757 479 757 608 l 757 0 l 549 0 l 549 410 q 524 547 549 499 q 435 596 500 596 q 335 547 369 596 q 300 410 300 499 l 300 0 l 92 0 m 192 1033 l 336 1033 l 425 910 l 513 1033 l 658 1033 l 525 821 l 325 821 l 192 1033 z "},"ņ":{"ha":849,"x_min":92,"x_max":757,"o":"m 92 0 l 92 744 l 279 744 l 283 621 q 372 729 314 697 q 504 761 431 761 q 691 685 625 761 q 757 479 757 608 l 757 0 l 549 0 l 549 410 q 524 547 549 499 q 435 596 500 596 q 335 547 369 596 q 300 410 300 499 l 300 0 l 92 0 m 311 -351 l 383 -229 l 335 -229 l 335 -68 l 515 -68 l 515 -214 l 433 -351 l 311 -351 z "},"ñ":{"ha":849,"x_min":92,"x_max":757,"o":"m 92 0 l 92 744 l 279 744 l 283 621 q 372 729 314 697 q 504 761 431 761 q 691 685 625 761 q 757 479 757 608 l 757 0 l 549 0 l 549 410 q 524 547 549 499 q 435 596 500 596 q 335 547 369 596 q 300 410 300 499 l 300 0 l 92 0 m 501 833 q 447 844 469 833 q 396 878 424 854 q 369 897 381 890 q 343 903 357 903 q 308 886 322 903 q 289 826 293 869 l 186 826 q 226 970 186 917 q 339 1024 267 1024 q 399 1013 372 1024 q 453 979 425 1001 q 506 954 483 954 q 540 972 526 954 q 557 1033 554 989 l 661 1033 q 619 888 660 942 q 501 833 578 833 z "},"ŋ":{"ha":849,"x_min":92,"x_max":757,"o":"m 92 0 l 92 744 l 279 744 l 283 621 q 372 729 314 697 q 504 761 431 761 q 691 685 625 761 q 757 479 757 608 l 757 -4 q 694 -150 757 -92 q 524 -208 632 -208 l 383 -208 l 383 -67 l 467 -67 q 527 -45 506 -67 q 549 13 549 -24 l 549 410 q 524 547 549 499 q 435 596 500 596 q 335 547 369 596 q 300 410 300 499 l 300 0 l 92 0 z "},"o":{"ha":864,"x_min":54,"x_max":810,"o":"m 432 -17 q 233 31 318 -17 q 101 167 147 79 q 54 372 54 254 q 101 577 54 490 q 233 713 147 664 q 432 761 318 761 q 631 713 546 761 q 763 577 715 664 q 810 372 810 490 q 763 167 810 254 q 631 31 715 79 q 432 -17 546 -17 m 432 143 q 552 203 510 143 q 594 372 594 264 q 552 541 594 481 q 432 601 510 601 q 311 541 354 601 q 268 372 268 481 q 311 203 268 264 q 432 143 354 143 z "},"ó":{"ha":864,"x_min":54,"x_max":810,"o":"m 432 -17 q 233 31 318 -17 q 101 167 147 79 q 54 372 54 254 q 101 577 54 490 q 233 713 147 664 q 432 761 318 761 q 631 713 546 761 q 763 577 715 664 q 810 372 810 490 q 763 167 810 254 q 631 31 715 79 q 432 -17 546 -17 m 432 143 q 552 203 510 143 q 594 372 594 264 q 552 541 594 481 q 432 601 510 601 q 311 541 354 601 q 268 372 268 481 q 311 203 268 264 q 432 143 354 143 m 338 821 l 418 1026 l 621 1026 l 496 821 l 338 821 z "},"ô":{"ha":864,"x_min":54,"x_max":810,"o":"m 432 -17 q 233 31 318 -17 q 101 167 147 79 q 54 372 54 254 q 101 577 54 490 q 233 713 147 664 q 432 761 318 761 q 631 713 546 761 q 763 577 715 664 q 810 372 810 490 q 763 167 810 254 q 631 31 715 79 q 432 -17 546 -17 m 432 143 q 552 203 510 143 q 594 372 594 264 q 552 541 594 481 q 432 601 510 601 q 311 541 354 601 q 268 372 268 481 q 311 203 268 264 q 432 143 354 143 m 199 821 l 332 1033 l 532 1033 l 665 821 l 519 821 l 432 944 l 343 821 l 199 821 z "},"ö":{"ha":864,"x_min":54,"x_max":810,"o":"m 432 -17 q 233 31 318 -17 q 101 167 147 79 q 54 372 54 254 q 101 577 54 490 q 233 713 147 664 q 432 761 318 761 q 631 713 546 761 q 763 577 715 664 q 810 372 810 490 q 763 167 810 254 q 631 31 715 79 q 432 -17 546 -17 m 432 143 q 552 203 510 143 q 594 372 594 264 q 552 541 594 481 q 432 601 510 601 q 311 541 354 601 q 268 372 268 481 q 311 203 268 264 q 432 143 354 143 m 183 832 l 183 1000 l 382 1000 l 382 832 l 183 832 m 481 832 l 481 1000 l 681 1000 l 681 832 l 481 832 z "},"ò":{"ha":864,"x_min":54,"x_max":810,"o":"m 432 -17 q 233 31 318 -17 q 101 167 147 79 q 54 372 54 254 q 101 577 54 490 q 233 713 147 664 q 432 761 318 761 q 631 713 546 761 q 763 577 715 664 q 810 372 810 490 q 763 167 810 254 q 631 31 715 79 q 432 -17 546 -17 m 432 143 q 552 203 510 143 q 594 372 594 264 q 552 541 594 481 q 432 601 510 601 q 311 541 354 601 q 268 372 268 481 q 311 203 268 264 q 432 143 354 143 m 367 831 l 242 1035 l 443 1035 l 525 831 l 367 831 z "},"ő":{"ha":864,"x_min":54,"x_max":810,"o":"m 432 -17 q 233 31 318 -17 q 101 167 147 79 q 54 372 54 254 q 101 577 54 490 q 233 713 147 664 q 432 761 318 761 q 631 713 546 761 q 763 577 715 664 q 810 372 810 490 q 763 167 810 254 q 631 31 715 79 q 432 -17 546 -17 m 432 143 q 552 203 510 143 q 594 372 594 264 q 552 541 594 481 q 432 601 510 601 q 311 541 354 601 q 268 372 268 481 q 311 203 268 264 q 432 143 354 143 m 232 821 l 313 1026 l 515 1026 l 390 821 l 232 821 m 478 821 l 558 1026 l 761 1026 l 636 821 l 478 821 z "},"ō":{"ha":864,"x_min":54,"x_max":810,"o":"m 432 -17 q 233 31 318 -17 q 101 167 147 79 q 54 372 54 254 q 101 577 54 490 q 233 713 147 664 q 432 761 318 761 q 631 713 546 761 q 763 577 715 664 q 810 372 810 490 q 763 167 810 254 q 631 31 715 79 q 432 -17 546 -17 m 432 143 q 552 203 510 143 q 594 372 594 264 q 552 541 594 481 q 432 601 510 601 q 311 541 354 601 q 268 372 268 481 q 311 203 268 264 q 432 143 354 143 m 225 843 l 225 996 l 640 996 l 640 843 l 225 843 z "},"ø":{"ha":864,"x_min":54,"x_max":810,"o":"m 432 -17 q 233 31 318 -17 q 101 167 147 79 q 54 372 54 254 q 101 577 54 490 q 233 713 147 664 q 432 761 318 761 q 631 713 546 761 q 763 577 715 664 q 810 372 810 490 q 763 167 810 254 q 631 31 715 79 q 432 -17 546 -17 m 432 143 q 552 203 510 143 q 594 372 594 264 q 552 541 594 481 q 432 601 510 601 q 311 541 354 601 q 268 372 268 481 q 311 203 268 264 q 432 143 354 143 m 89 -19 l 643 764 l 775 764 l 221 -19 l 89 -19 z "},"õ":{"ha":864,"x_min":54,"x_max":810,"o":"m 432 -17 q 233 31 318 -17 q 101 167 147 79 q 54 372 54 254 q 101 577 54 490 q 233 713 147 664 q 432 761 318 761 q 631 713 546 761 q 763 577 715 664 q 810 372 810 490 q 763 167 810 254 q 631 31 715 79 q 432 -17 546 -17 m 432 143 q 552 203 510 143 q 594 372 594 264 q 552 541 594 481 q 432 601 510 601 q 311 541 354 601 q 268 372 268 481 q 311 203 268 264 q 432 143 354 143 m 510 833 q 455 844 478 833 q 404 878 432 854 q 377 897 389 890 q 351 903 365 903 q 316 886 331 903 q 297 826 301 869 l 194 826 q 235 970 194 917 q 347 1024 275 1024 q 407 1013 381 1024 q 461 979 433 1001 q 514 954 492 954 q 549 972 535 954 q 565 1033 563 989 l 669 1033 q 627 888 668 942 q 510 833 586 833 z "},"œ":{"ha":1393,"x_min":54,"x_max":1339,"o":"m 432 -17 q 233 31 318 -17 q 101 167 147 79 q 54 372 54 254 q 101 577 54 490 q 233 713 147 664 q 432 761 318 761 q 631 713 546 761 q 763 577 715 664 q 810 372 810 490 q 763 167 810 254 q 631 31 715 79 q 432 -17 546 -17 m 432 143 q 552 203 510 143 q 594 372 594 264 q 552 541 594 481 q 432 601 510 601 q 311 541 354 601 q 268 372 268 481 q 311 203 268 264 q 432 143 354 143 m 976 -17 q 778 32 863 -17 q 647 167 693 81 q 601 372 601 254 q 647 576 601 489 q 777 713 693 664 q 975 761 861 761 q 1167 713 1085 761 q 1294 574 1249 664 q 1339 358 1339 483 l 1339 317 l 817 317 q 865 185 821 228 q 981 142 908 142 q 1119 232 1089 142 l 1329 219 q 1205 46 1299 108 q 976 -17 1111 -17 m 817 444 l 1126 444 q 1081 567 1122 526 q 975 607 1039 607 q 867 565 910 607 q 817 444 825 522 z "},"p":{"ha":883,"x_min":92,"x_max":829,"o":"m 92 -208 l 92 744 l 292 744 l 294 633 q 385 728 328 696 q 515 761 442 761 q 690 710 619 761 q 794 570 760 658 q 829 372 829 482 q 794 174 829 263 q 688 35 758 86 q 514 -17 618 -17 q 388 15 444 -17 q 300 104 331 47 l 300 -208 l 92 -208 m 457 143 q 573 204 531 143 q 615 372 615 265 q 573 540 615 479 q 457 601 531 601 q 342 543 383 601 q 300 372 300 485 q 341 201 300 260 q 457 143 382 143 z "},"þ":{"ha":869,"x_min":92,"x_max":815,"o":"m 92 -208 l 92 986 l 303 986 l 303 681 q 375 740 329 718 q 488 761 421 761 q 667 710 594 761 q 778 570 740 658 q 815 372 815 482 q 778 174 815 263 q 667 35 740 86 q 488 -17 594 -17 q 381 5 428 -17 q 303 64 333 26 l 303 -208 l 92 -208 m 444 158 q 533 188 499 158 q 584 266 568 217 q 600 372 600 315 q 584 481 600 432 q 533 560 568 531 q 444 590 499 590 q 357 560 392 590 q 306 480 322 529 q 289 372 289 431 q 306 267 289 315 q 357 188 322 218 q 444 158 392 158 z "},"q":{"ha":883,"x_min":54,"x_max":792,"o":"m 792 -208 l 583 -208 l 583 104 q 496 15 553 47 q 369 -17 439 -17 q 195 35 265 -17 q 90 174 125 86 q 54 372 54 263 q 89 570 54 482 q 194 710 124 658 q 368 761 264 761 q 499 728 442 761 q 588 633 556 696 l 592 744 l 792 744 l 792 -208 m 426 143 q 542 201 500 143 q 583 372 583 260 q 542 543 583 485 q 426 601 500 601 q 310 540 353 601 q 268 372 268 479 q 310 204 268 265 q 426 143 353 143 z "},"r":{"ha":592,"x_min":92,"x_max":539,"o":"m 92 0 l 92 744 l 289 744 l 294 596 q 360 709 317 674 q 471 744 403 744 l 539 744 l 539 572 l 471 572 q 342 537 383 572 q 300 418 300 501 l 300 0 l 92 0 z "},"ŕ":{"ha":592,"x_min":92,"x_max":539,"o":"m 92 0 l 92 744 l 289 744 l 294 596 q 360 709 317 674 q 471 744 403 744 l 539 744 l 539 572 l 471 572 q 342 537 383 572 q 300 418 300 501 l 300 0 l 92 0 m 228 821 l 308 1026 l 511 1026 l 386 821 l 228 821 z "},"ř":{"ha":592,"x_min":89,"x_max":556,"o":"m 92 0 l 92 744 l 289 744 l 294 596 q 360 709 317 674 q 471 744 403 744 l 539 744 l 539 572 l 471 572 q 342 537 383 572 q 300 418 300 501 l 300 0 l 92 0 m 89 1033 l 233 1033 l 322 910 l 410 1033 l 556 1033 l 422 821 l 222 821 l 89 1033 z "},"ŗ":{"ha":592,"x_min":82,"x_max":539,"o":"m 92 0 l 92 744 l 289 744 l 294 596 q 360 709 317 674 q 471 744 403 744 l 539 744 l 539 572 l 471 572 q 342 537 383 572 q 300 418 300 501 l 300 0 l 92 0 m 82 -351 l 154 -229 l 106 -229 l 106 -68 l 286 -68 l 286 -214 l 204 -351 l 82 -351 z "},"s":{"ha":799,"x_min":54,"x_max":744,"o":"m 411 -17 q 151 54 239 -17 q 54 235 63 125 l 265 242 q 309 160 274 189 q 413 131 344 131 q 499 149 468 131 q 531 204 531 167 q 519 244 531 228 q 475 272 507 260 q 379 293 443 283 q 194 342 261 313 q 100 415 128 371 q 72 522 72 458 q 155 695 72 629 q 403 761 238 761 q 642 689 560 761 q 739 506 725 617 l 531 497 q 490 583 524 551 q 400 614 456 614 q 315 591 344 614 q 286 531 286 568 q 317 470 286 490 q 425 439 347 450 q 615 392 544 421 q 715 318 685 363 q 744 208 744 274 q 654 42 744 100 q 411 -17 564 -17 z "},"ś":{"ha":799,"x_min":54,"x_max":744,"o":"m 411 -17 q 151 54 239 -17 q 54 235 63 125 l 265 242 q 309 160 274 189 q 413 131 344 131 q 499 149 468 131 q 531 204 531 167 q 519 244 531 228 q 475 272 507 260 q 379 293 443 283 q 194 342 261 313 q 100 415 128 371 q 72 522 72 458 q 155 695 72 629 q 403 761 238 761 q 642 689 560 761 q 739 506 725 617 l 531 497 q 490 583 524 551 q 400 614 456 614 q 315 591 344 614 q 286 531 286 568 q 317 470 286 490 q 425 439 347 450 q 615 392 544 421 q 715 318 685 363 q 744 208 744 274 q 654 42 744 100 q 411 -17 564 -17 m 307 821 l 388 1026 l 590 1026 l 465 821 l 307 821 z "},"š":{"ha":799,"x_min":54,"x_max":744,"o":"m 411 -17 q 151 54 239 -17 q 54 235 63 125 l 265 242 q 309 160 274 189 q 413 131 344 131 q 499 149 468 131 q 531 204 531 167 q 519 244 531 228 q 475 272 507 260 q 379 293 443 283 q 194 342 261 313 q 100 415 128 371 q 72 522 72 458 q 155 695 72 629 q 403 761 238 761 q 642 689 560 761 q 739 506 725 617 l 531 497 q 490 583 524 551 q 400 614 456 614 q 315 591 344 614 q 286 531 286 568 q 317 470 286 490 q 425 439 347 450 q 615 392 544 421 q 715 318 685 363 q 744 208 744 274 q 654 42 744 100 q 411 -17 564 -17 m 168 1033 l 313 1033 l 401 910 l 489 1033 l 635 1033 l 501 821 l 301 821 l 168 1033 z "},"ş":{"ha":799,"x_min":54,"x_max":744,"o":"m 411 -17 q 151 54 239 -17 q 54 235 63 125 l 265 242 q 309 160 274 189 q 413 131 344 131 q 499 149 468 131 q 531 204 531 167 q 519 244 531 228 q 475 272 507 260 q 379 293 443 283 q 194 342 261 313 q 100 415 128 371 q 72 522 72 458 q 155 695 72 629 q 403 761 238 761 q 642 689 560 761 q 739 506 725 617 l 531 497 q 490 583 524 551 q 400 614 456 614 q 315 591 344 614 q 286 531 286 568 q 317 470 286 490 q 425 439 347 450 q 615 392 544 421 q 715 318 685 363 q 744 208 744 274 q 654 42 744 100 q 411 -17 564 -17 m 400 -322 q 285 -290 331 -322 q 222 -207 240 -258 l 314 -168 q 344 -208 325 -194 q 396 -221 363 -221 q 444 -208 426 -221 q 463 -171 463 -194 q 445 -131 463 -146 q 372 -117 428 -117 l 315 -62 l 361 14 l 481 14 l 442 -43 q 544 -87 513 -50 q 575 -175 575 -124 q 524 -286 575 -250 q 400 -322 472 -322 z "},"ŝ":{"ha":799,"x_min":54,"x_max":744,"o":"m 411 -17 q 151 54 239 -17 q 54 235 63 125 l 265 242 q 309 160 274 189 q 413 131 344 131 q 499 149 468 131 q 531 204 531 167 q 519 244 531 228 q 475 272 507 260 q 379 293 443 283 q 194 342 261 313 q 100 415 128 371 q 72 522 72 458 q 155 695 72 629 q 403 761 238 761 q 642 689 560 761 q 739 506 725 617 l 531 497 q 490 583 524 551 q 400 614 456 614 q 315 591 344 614 q 286 531 286 568 q 317 470 286 490 q 425 439 347 450 q 615 392 544 421 q 715 318 685 363 q 744 208 744 274 q 654 42 744 100 q 411 -17 564 -17 m 168 821 l 301 1033 l 501 1033 l 635 821 l 489 821 l 401 944 l 313 821 l 168 821 z "},"ș":{"ha":799,"x_min":54,"x_max":744,"o":"m 411 -17 q 151 54 239 -17 q 54 235 63 125 l 265 242 q 309 160 274 189 q 413 131 344 131 q 499 149 468 131 q 531 204 531 167 q 519 244 531 228 q 475 272 507 260 q 379 293 443 283 q 194 342 261 313 q 100 415 128 371 q 72 522 72 458 q 155 695 72 629 q 403 761 238 761 q 642 689 560 761 q 739 506 725 617 l 531 497 q 490 583 524 551 q 400 614 456 614 q 315 591 344 614 q 286 531 286 568 q 317 470 286 490 q 425 439 347 450 q 615 392 544 421 q 715 318 685 363 q 744 208 744 274 q 654 42 744 100 q 411 -17 564 -17 m 294 -351 l 367 -229 l 318 -229 l 318 -68 l 499 -68 l 499 -214 l 417 -351 l 294 -351 z "},"ß":{"ha":914,"x_min":92,"x_max":867,"o":"m 92 0 l 92 643 q 190 907 92 814 q 464 1000 288 1000 q 716 928 626 1000 q 806 733 806 857 q 760 599 806 654 q 635 522 714 544 q 804 434 742 500 q 867 274 867 368 q 766 72 867 144 q 479 0 665 0 l 388 0 l 388 175 l 476 175 q 653 300 653 175 q 467 429 653 429 l 400 429 l 400 599 l 457 599 q 558 629 521 599 q 596 714 596 660 q 563 794 596 764 q 464 825 529 825 q 344 776 388 825 q 300 643 300 728 l 300 0 l 92 0 z "},"t":{"ha":621,"x_min":57,"x_max":581,"o":"m 400 0 q 231 53 285 0 q 176 224 176 107 l 176 589 l 57 589 l 57 744 l 176 744 l 176 919 l 385 919 l 385 744 l 581 744 l 581 589 l 385 589 l 385 249 q 408 175 385 194 q 476 156 431 156 l 581 156 l 581 0 l 400 0 z "},"ŧ":{"ha":621,"x_min":57,"x_max":581,"o":"m 64 332 l 64 453 l 176 453 l 176 589 l 57 589 l 57 744 l 176 744 l 176 919 l 385 919 l 385 744 l 581 744 l 581 589 l 385 589 l 385 453 l 558 453 l 558 332 l 385 332 l 385 249 q 408 175 385 194 q 476 156 431 156 l 581 156 l 581 0 l 400 0 q 231 53 285 0 q 176 224 176 107 l 176 332 l 64 332 z "},"ť":{"ha":783,"x_min":57,"x_max":842,"o":"m 400 0 q 231 53 285 0 q 176 224 176 107 l 176 589 l 57 589 l 57 744 l 176 744 l 176 919 l 385 919 l 385 744 l 581 744 l 581 589 l 385 589 l 385 249 q 408 175 385 194 q 476 156 431 156 l 581 156 l 581 0 l 400 0 m 622 589 l 663 986 l 842 986 l 767 589 l 622 589 z "},"ţ":{"ha":621,"x_min":57,"x_max":581,"o":"m 400 0 q 231 53 285 0 q 176 224 176 107 l 176 589 l 57 589 l 57 744 l 176 744 l 176 919 l 385 919 l 385 744 l 581 744 l 581 589 l 385 589 l 385 249 q 408 175 385 194 q 476 156 431 156 l 581 156 l 581 0 l 400 0 m 356 -322 q 241 -290 286 -322 q 178 -207 196 -258 l 269 -168 q 299 -208 281 -194 q 351 -221 318 -221 q 400 -208 382 -221 q 418 -171 418 -194 q 401 -131 418 -146 q 328 -117 383 -117 l 271 -62 l 317 14 l 436 14 l 397 -43 q 499 -87 468 -50 q 531 -175 531 -124 q 479 -286 531 -250 q 356 -322 428 -322 z "},"ț":{"ha":621,"x_min":57,"x_max":581,"o":"m 400 0 q 231 53 285 0 q 176 224 176 107 l 176 589 l 57 589 l 57 744 l 176 744 l 176 919 l 385 919 l 385 744 l 581 744 l 581 589 l 385 589 l 385 249 q 408 175 385 194 q 476 156 431 156 l 581 156 l 581 0 l 400 0 m 250 -351 l 322 -229 l 274 -229 l 274 -68 l 454 -68 l 454 -214 l 372 -351 l 250 -351 z "},"u":{"ha":843,"x_min":92,"x_max":753,"o":"m 336 -17 q 156 58 221 -17 q 92 265 92 132 l 92 744 l 300 744 l 300 314 q 326 188 300 228 q 410 149 353 149 q 509 192 474 149 q 544 324 544 236 l 544 744 l 753 744 l 753 0 l 563 0 l 560 121 q 336 -17 503 -17 z "},"ú":{"ha":843,"x_min":92,"x_max":753,"o":"m 336 -17 q 156 58 221 -17 q 92 265 92 132 l 92 744 l 300 744 l 300 314 q 326 188 300 228 q 410 149 353 149 q 509 192 474 149 q 544 324 544 236 l 544 744 l 753 744 l 753 0 l 563 0 l 560 121 q 336 -17 503 -17 m 325 821 l 406 1026 l 608 1026 l 483 821 l 325 821 z "},"ŭ":{"ha":843,"x_min":92,"x_max":753,"o":"m 336 -17 q 156 58 221 -17 q 92 265 92 132 l 92 744 l 300 744 l 300 314 q 326 188 300 228 q 410 149 353 149 q 509 192 474 149 q 544 324 544 236 l 544 744 l 753 744 l 753 0 l 563 0 l 560 121 q 336 -17 503 -17 m 418 822 q 264 876 322 822 q 201 1026 206 929 l 321 1026 q 351 957 326 978 q 418 936 376 936 q 485 957 460 936 q 515 1026 510 978 l 636 1026 q 574 876 632 929 q 418 822 515 822 z "},"û":{"ha":843,"x_min":92,"x_max":753,"o":"m 336 -17 q 156 58 221 -17 q 92 265 92 132 l 92 744 l 300 744 l 300 314 q 326 188 300 228 q 410 149 353 149 q 509 192 474 149 q 544 324 544 236 l 544 744 l 753 744 l 753 0 l 563 0 l 560 121 q 336 -17 503 -17 m 186 821 l 319 1033 l 519 1033 l 653 821 l 507 821 l 419 944 l 331 821 l 186 821 z "},"ü":{"ha":843,"x_min":92,"x_max":753,"o":"m 336 -17 q 156 58 221 -17 q 92 265 92 132 l 92 744 l 300 744 l 300 314 q 326 188 300 228 q 410 149 353 149 q 509 192 474 149 q 544 324 544 236 l 544 744 l 753 744 l 753 0 l 563 0 l 560 121 q 336 -17 503 -17 m 171 832 l 171 1000 l 369 1000 l 369 832 l 171 832 m 468 832 l 468 1000 l 668 1000 l 668 832 l 468 832 z "},"ù":{"ha":843,"x_min":92,"x_max":753,"o":"m 336 -17 q 156 58 221 -17 q 92 265 92 132 l 92 744 l 300 744 l 300 314 q 326 188 300 228 q 410 149 353 149 q 509 192 474 149 q 544 324 544 236 l 544 744 l 753 744 l 753 0 l 563 0 l 560 121 q 336 -17 503 -17 m 353 831 l 228 1035 l 429 1035 l 511 831 l 353 831 z "},"ű":{"ha":843,"x_min":92,"x_max":753,"o":"m 336 -17 q 156 58 221 -17 q 92 265 92 132 l 92 744 l 300 744 l 300 314 q 326 188 300 228 q 410 149 353 149 q 509 192 474 149 q 544 324 544 236 l 544 744 l 753 744 l 753 0 l 563 0 l 560 121 q 336 -17 503 -17 m 219 829 l 300 1035 l 503 1035 l 378 829 l 219 829 m 465 829 l 546 1035 l 749 1035 l 624 829 l 465 829 z "},"ū":{"ha":843,"x_min":92,"x_max":753,"o":"m 336 -17 q 156 58 221 -17 q 92 265 92 132 l 92 744 l 300 744 l 300 314 q 326 188 300 228 q 410 149 353 149 q 509 192 474 149 q 544 324 544 236 l 544 744 l 753 744 l 753 0 l 563 0 l 560 121 q 336 -17 503 -17 m 211 843 l 211 996 l 626 996 l 626 843 l 211 843 z "},"ų":{"ha":843,"x_min":92,"x_max":803,"o":"m 336 -17 q 156 58 221 -17 q 92 265 92 132 l 92 744 l 300 744 l 300 314 q 326 188 300 228 q 410 149 353 149 q 509 192 474 149 q 544 324 544 236 l 544 744 l 753 744 l 753 0 l 563 0 l 560 121 q 336 -17 503 -17 m 656 -301 q 540 -271 581 -301 q 499 -183 499 -240 q 520 -101 499 -140 q 567 -28 542 -61 l 614 33 l 753 0 l 710 -56 q 678 -104 690 -83 q 667 -143 667 -125 q 677 -169 667 -160 q 703 -178 688 -178 q 765 -160 740 -178 l 803 -265 q 742 -291 785 -281 q 656 -301 700 -301 z "},"ů":{"ha":843,"x_min":92,"x_max":753,"o":"m 336 -17 q 156 58 221 -17 q 92 265 92 132 l 92 744 l 300 744 l 300 314 q 326 188 300 228 q 410 149 353 149 q 509 192 474 149 q 544 324 544 236 l 544 744 l 753 744 l 753 0 l 563 0 l 560 121 q 336 -17 503 -17 m 418 799 q 317 839 358 799 q 276 939 276 879 q 317 1040 276 1000 q 418 1081 358 1081 q 520 1040 479 1081 q 561 939 561 1000 q 520 839 561 879 q 418 799 479 799 m 418 888 q 456 902 442 888 q 471 939 471 917 q 456 977 471 963 q 418 992 442 992 q 381 977 396 992 q 367 939 367 963 q 381 902 367 917 q 418 888 396 888 z "},"ũ":{"ha":844,"x_min":92,"x_max":753,"o":"m 336 -17 q 156 58 221 -17 q 92 265 92 132 l 92 744 l 300 744 l 300 314 q 326 188 300 228 q 410 149 353 149 q 509 192 474 149 q 544 324 544 236 l 544 744 l 753 744 l 753 0 l 563 0 l 560 121 q 336 -17 503 -17 m 490 833 q 435 844 458 833 q 385 878 413 854 q 358 897 369 890 q 332 903 346 903 q 297 886 311 903 q 278 826 282 869 l 175 826 q 215 970 175 917 q 328 1024 256 1024 q 388 1013 361 1024 q 442 979 414 1001 q 494 954 472 954 q 529 972 515 954 q 546 1033 543 989 l 650 1033 q 608 888 649 942 q 490 833 567 833 z "},"v":{"ha":846,"x_min":29,"x_max":817,"o":"m 301 0 l 29 744 l 247 744 l 424 210 l 600 744 l 817 744 l 544 0 l 301 0 z "},"w":{"ha":1181,"x_min":29,"x_max":1151,"o":"m 251 0 l 29 744 l 239 744 l 368 240 l 504 744 l 675 744 l 813 240 l 942 744 l 1151 744 l 931 0 l 728 0 l 590 465 l 453 0 l 251 0 z "},"ẃ":{"ha":1181,"x_min":29,"x_max":1151,"o":"m 251 0 l 29 744 l 239 744 l 368 240 l 504 744 l 675 744 l 813 240 l 942 744 l 1151 744 l 931 0 l 728 0 l 590 465 l 453 0 l 251 0 m 497 821 l 578 1026 l 781 1026 l 656 821 l 497 821 z "},"ŵ":{"ha":1181,"x_min":29,"x_max":1151,"o":"m 251 0 l 29 744 l 239 744 l 368 240 l 504 744 l 675 744 l 813 240 l 942 744 l 1151 744 l 931 0 l 728 0 l 590 465 l 453 0 l 251 0 m 358 821 l 492 1033 l 692 1033 l 825 821 l 679 821 l 592 944 l 503 821 l 358 821 z "},"ẅ":{"ha":1181,"x_min":29,"x_max":1151,"o":"m 251 0 l 29 744 l 239 744 l 368 240 l 504 744 l 675 744 l 813 240 l 942 744 l 1151 744 l 931 0 l 728 0 l 590 465 l 453 0 l 251 0 m 343 832 l 343 1000 l 542 1000 l 542 832 l 343 832 m 640 832 l 640 1000 l 840 1000 l 840 832 l 640 832 z "},"ẁ":{"ha":1181,"x_min":29,"x_max":1151,"o":"m 251 0 l 29 744 l 239 744 l 368 240 l 504 744 l 675 744 l 813 240 l 942 744 l 1151 744 l 931 0 l 728 0 l 590 465 l 453 0 l 251 0 m 525 831 l 400 1035 l 601 1035 l 683 831 l 525 831 z "},"x":{"ha":903,"x_min":64,"x_max":840,"o":"m 64 0 l 329 378 l 72 744 l 293 744 l 451 506 l 607 744 l 832 744 l 575 376 l 840 0 l 618 0 l 456 253 l 290 0 l 64 0 z "},"y":{"ha":815,"x_min":29,"x_max":786,"o":"m 154 -208 l 154 -53 l 253 -53 q 306 -42 289 -53 q 332 -6 322 -32 l 349 38 l 292 38 l 29 744 l 243 744 l 413 232 l 574 744 l 786 744 l 500 -71 q 427 -176 474 -144 q 296 -208 381 -208 l 154 -208 z "},"ý":{"ha":815,"x_min":29,"x_max":786,"o":"m 154 -208 l 154 -53 l 253 -53 q 306 -42 289 -53 q 332 -6 322 -32 l 349 38 l 292 38 l 29 744 l 243 744 l 413 232 l 574 744 l 786 744 l 500 -71 q 427 -176 474 -144 q 296 -208 381 -208 l 154 -208 m 315 821 l 396 1026 l 599 1026 l 474 821 l 315 821 z "},"ŷ":{"ha":815,"x_min":29,"x_max":786,"o":"m 154 -208 l 154 -53 l 253 -53 q 306 -42 289 -53 q 332 -6 322 -32 l 349 38 l 292 38 l 29 744 l 243 744 l 413 232 l 574 744 l 786 744 l 500 -71 q 427 -176 474 -144 q 296 -208 381 -208 l 154 -208 m 176 821 l 310 1033 l 510 1033 l 643 821 l 497 821 l 410 944 l 321 821 l 176 821 z "},"ÿ":{"ha":815,"x_min":29,"x_max":786,"o":"m 154 -208 l 154 -53 l 253 -53 q 306 -42 289 -53 q 332 -6 322 -32 l 349 38 l 292 38 l 29 744 l 243 744 l 413 232 l 574 744 l 786 744 l 500 -71 q 427 -176 474 -144 q 296 -208 381 -208 l 154 -208 m 161 832 l 161 1000 l 360 1000 l 360 832 l 161 832 m 458 832 l 458 1000 l 658 1000 l 658 832 l 458 832 z "},"ỳ":{"ha":815,"x_min":29,"x_max":786,"o":"m 154 -208 l 154 -53 l 253 -53 q 306 -42 289 -53 q 332 -6 322 -32 l 349 38 l 292 38 l 29 744 l 243 744 l 413 232 l 574 744 l 786 744 l 500 -71 q 427 -176 474 -144 q 296 -208 381 -208 l 154 -208 m 343 831 l 218 1035 l 419 1035 l 501 831 l 343 831 z "},"ỹ":{"ha":815,"x_min":29,"x_max":786,"o":"m 154 -208 l 154 -53 l 253 -53 q 306 -42 289 -53 q 332 -6 322 -32 l 349 38 l 292 38 l 29 744 l 243 744 l 413 232 l 574 744 l 786 744 l 500 -71 q 427 -176 474 -144 q 296 -208 381 -208 l 154 -208 m 486 833 q 431 844 454 833 q 381 878 408 854 q 353 897 365 890 q 328 903 342 903 q 292 886 307 903 q 274 826 278 869 l 171 826 q 211 970 171 917 q 324 1024 251 1024 q 383 1013 357 1024 q 438 979 410 1001 q 490 954 468 954 q 525 972 511 954 q 542 1033 539 989 l 646 1033 q 603 888 644 942 q 486 833 563 833 z "},"z":{"ha":826,"x_min":78,"x_max":749,"o":"m 78 0 l 78 164 l 489 589 l 96 589 l 96 744 l 739 744 l 739 581 l 322 156 l 749 156 l 749 0 l 78 0 z "},"ź":{"ha":826,"x_min":78,"x_max":749,"o":"m 78 0 l 78 164 l 489 589 l 96 589 l 96 744 l 739 744 l 739 581 l 322 156 l 749 156 l 749 0 l 78 0 m 324 821 l 404 1026 l 607 1026 l 482 821 l 324 821 z "},"ž":{"ha":826,"x_min":78,"x_max":749,"o":"m 78 0 l 78 164 l 489 589 l 96 589 l 96 744 l 739 744 l 739 581 l 322 156 l 749 156 l 749 0 l 78 0 m 185 1033 l 329 1033 l 418 910 l 506 1033 l 651 1033 l 518 821 l 318 821 l 185 1033 z "},"ż":{"ha":826,"x_min":78,"x_max":749,"o":"m 78 0 l 78 164 l 489 589 l 96 589 l 96 744 l 739 744 l 739 581 l 322 156 l 749 156 l 749 0 l 78 0 m 311 836 l 311 1003 l 526 1003 l 526 836 l 311 836 z "},"ꞌ":{"ha":369,"x_min":92,"x_max":278,"o":"m 110 486 l 92 847 l 92 986 l 278 986 l 278 847 l 260 486 l 110 486 z "},"ﬁ":{"ha":1014,"x_min":64,"x_max":926,"o":"m 172 0 l 172 561 l 64 561 l 64 717 l 172 717 l 172 754 q 232 925 172 864 q 418 986 292 986 l 576 986 l 576 831 l 463 831 q 400 809 419 831 q 381 744 381 788 l 381 717 l 565 717 l 565 561 l 381 561 l 381 0 l 172 0 m 714 0 l 714 744 l 922 744 l 922 0 l 714 0 m 711 836 l 711 1003 l 926 1003 l 926 836 l 711 836 z "},"ﬂ":{"ha":1057,"x_min":64,"x_max":1011,"o":"m 172 0 l 172 561 l 64 561 l 64 717 l 172 717 l 172 754 q 232 925 172 864 q 418 986 292 986 l 576 986 l 576 831 l 463 831 q 400 809 419 831 q 381 744 381 788 l 381 717 l 565 717 l 565 561 l 381 561 l 381 0 l 172 0 m 888 0 q 744 45 796 0 q 693 194 693 90 l 693 986 l 901 986 l 901 217 q 917 169 901 183 q 961 156 932 156 l 1011 156 l 1011 0 l 888 0 z "},"ª":{"ha":600,"x_min":56,"x_max":558,"o":"m 229 522 q 103 555 150 522 q 56 649 56 588 q 97 745 56 713 q 219 794 139 778 l 364 824 q 346 885 364 864 q 296 906 328 906 q 221 844 232 906 l 64 850 q 296 1008 90 1008 q 465 958 410 1008 q 521 813 521 908 l 521 663 q 528 635 521 642 q 547 628 535 628 l 558 628 l 558 528 q 497 522 540 522 q 431 538 463 522 q 390 604 400 554 q 333 544 374 567 q 229 522 292 522 m 267 618 q 336 643 308 618 q 364 714 364 668 l 364 736 l 274 715 q 217 663 217 701 q 267 618 217 618 z "},"º":{"ha":619,"x_min":56,"x_max":564,"o":"m 310 522 q 124 588 192 522 q 56 765 56 654 q 124 942 56 875 q 310 1008 192 1008 q 496 942 428 1008 q 564 765 564 875 q 496 588 564 654 q 310 522 428 522 m 310 633 q 403 765 403 633 q 379 863 403 829 q 310 897 356 897 q 240 863 264 897 q 217 765 217 828 q 310 633 217 633 z "},"А":{"ha":1029,"x_min":35,"x_max":996,"o":"m 35 0 l 390 986 l 640 986 l 996 0 l 776 0 l 704 210 l 325 210 l 253 0 l 35 0 m 385 383 l 646 383 l 515 764 l 385 383 z "},"Б":{"ha":947,"x_min":103,"x_max":876,"o":"m 103 0 l 103 986 l 832 986 l 832 808 l 314 808 l 314 626 l 497 626 q 776 543 675 626 q 876 313 876 460 q 776 83 876 167 q 497 0 675 0 l 103 0 m 314 178 l 485 178 q 660 313 660 178 q 485 450 660 450 l 314 450 l 314 178 z "},"В":{"ha":976,"x_min":103,"x_max":906,"o":"m 103 0 l 103 986 l 486 986 q 767 922 669 986 q 864 718 864 857 q 811 574 864 629 q 660 510 758 519 q 842 438 779 500 q 906 272 906 375 q 809 67 906 135 q 533 0 713 0 l 103 0 m 314 578 l 481 578 q 605 608 558 578 q 651 696 651 638 q 606 785 651 757 q 481 814 561 814 l 314 814 l 314 578 m 314 172 l 524 172 q 646 203 599 172 q 693 297 693 233 q 647 392 693 360 q 524 425 600 425 l 314 425 l 314 172 z "},"Г":{"ha":861,"x_min":103,"x_max":832,"o":"m 103 0 l 103 986 l 832 986 l 832 808 l 314 808 l 314 0 l 103 0 z "},"Ѓ":{"ha":861,"x_min":103,"x_max":832,"o":"m 103 0 l 103 986 l 832 986 l 832 808 l 314 808 l 314 0 l 103 0 m 372 1063 l 453 1268 l 656 1268 l 531 1063 l 372 1063 z "},"Ґ":{"ha":806,"x_min":103,"x_max":775,"o":"m 103 0 l 103 986 l 564 986 l 564 1201 l 775 1201 l 775 808 l 314 808 l 314 0 l 103 0 z "},"Ғ":{"ha":935,"x_min":75,"x_max":906,"o":"m 176 0 l 176 367 l 75 367 l 75 544 l 176 544 l 176 986 l 906 986 l 906 808 l 388 808 l 388 544 l 689 544 l 689 367 l 388 367 l 388 0 l 176 0 z "},"Д":{"ha":1189,"x_min":69,"x_max":1119,"o":"m 69 -208 l 69 178 l 113 178 q 244 361 222 178 l 317 986 l 997 986 l 997 178 l 1119 178 l 1119 -208 l 908 -208 l 908 0 l 282 0 l 282 -208 l 69 -208 m 403 178 l 786 178 l 786 808 l 511 808 l 458 347 q 403 178 444 235 z "},"Е":{"ha":864,"x_min":103,"x_max":800,"o":"m 103 0 l 103 986 l 789 986 l 789 808 l 314 808 l 314 582 l 772 582 l 772 407 l 314 407 l 314 178 l 800 178 l 800 0 l 103 0 z "},"Ѐ":{"ha":864,"x_min":103,"x_max":800,"o":"m 103 0 l 103 986 l 789 986 l 789 808 l 314 808 l 314 582 l 772 582 l 772 407 l 314 407 l 314 178 l 800 178 l 800 0 l 103 0 m 390 1072 l 265 1276 l 467 1276 l 549 1072 l 390 1072 z "},"Ё":{"ha":864,"x_min":103,"x_max":800,"o":"m 103 0 l 103 986 l 789 986 l 789 808 l 314 808 l 314 582 l 772 582 l 772 407 l 314 407 l 314 178 l 800 178 l 800 0 l 103 0 m 199 1074 l 199 1242 l 397 1242 l 397 1074 l 199 1074 m 496 1074 l 496 1242 l 696 1242 l 696 1074 l 496 1074 z "},"Ж":{"ha":1472,"x_min":39,"x_max":1433,"o":"m 39 0 l 407 493 l 53 986 l 317 986 l 631 550 l 631 986 l 843 986 l 843 550 l 1156 986 l 1419 986 l 1065 493 l 1433 0 l 1169 0 l 843 439 l 843 0 l 631 0 l 631 439 l 303 0 l 39 0 z "},"З":{"ha":957,"x_min":64,"x_max":893,"o":"m 478 -22 q 267 17 358 -22 q 122 126 175 56 q 64 289 68 196 l 279 297 q 339 194 285 232 q 479 156 393 156 q 623 196 571 156 q 675 304 675 236 q 649 386 675 354 q 581 434 622 418 q 492 449 539 450 l 392 447 l 392 594 l 492 593 q 564 606 529 593 q 620 648 599 619 q 642 722 642 676 q 597 802 642 774 q 474 831 551 831 q 352 803 399 831 q 300 731 306 776 l 86 740 q 148 881 96 821 q 285 975 200 942 q 478 1008 369 1008 q 678 976 592 1008 q 812 887 764 944 q 860 751 860 829 q 803 610 860 665 q 642 533 747 554 q 828 442 763 510 q 893 271 893 374 q 841 117 893 183 q 696 15 789 51 q 478 -22 603 -22 z "},"И":{"ha":1039,"x_min":100,"x_max":936,"o":"m 936 0 l 725 0 l 725 657 l 336 0 l 100 0 l 100 986 l 311 986 l 311 306 l 704 986 l 936 986 l 936 0 z "},"Й":{"ha":1039,"x_min":100,"x_max":936,"o":"m 518 1072 q 363 1126 421 1072 q 300 1276 304 1179 l 421 1276 q 451 1207 426 1228 q 518 1186 476 1186 q 585 1207 560 1186 q 615 1276 610 1228 l 735 1276 q 673 1126 731 1179 q 518 1072 615 1072 m 936 0 l 725 0 l 725 657 l 336 0 l 100 0 l 100 986 l 311 986 l 311 306 l 704 986 l 936 986 l 936 0 z "},"Ѝ":{"ha":1039,"x_min":100,"x_max":936,"o":"m 443 1072 l 318 1276 l 521 1276 l 603 1072 l 443 1072 m 936 0 l 725 0 l 725 657 l 336 0 l 100 0 l 100 986 l 311 986 l 311 306 l 704 986 l 936 986 l 936 0 z "},"К":{"ha":976,"x_min":103,"x_max":938,"o":"m 103 0 l 103 986 l 314 986 l 314 506 l 682 986 l 924 986 l 544 493 l 938 0 l 693 0 l 314 481 l 314 0 l 103 0 z "},"Ќ":{"ha":976,"x_min":103,"x_max":938,"o":"m 103 0 l 103 986 l 314 986 l 314 506 l 682 986 l 924 986 l 544 493 l 938 0 l 693 0 l 314 481 l 314 0 l 103 0 m 399 1063 l 479 1268 l 682 1268 l 557 1063 l 399 1063 z "},"Л":{"ha":1085,"x_min":68,"x_max":982,"o":"m 68 0 l 68 178 l 147 178 q 209 204 188 178 q 236 278 231 231 l 300 986 l 982 986 l 982 0 l 772 0 l 772 808 l 492 808 l 440 240 q 372 65 429 131 q 210 0 314 0 l 68 0 z "},"М":{"ha":1271,"x_min":103,"x_max":1168,"o":"m 103 0 l 103 986 l 385 986 l 636 268 l 886 986 l 1168 986 l 1168 0 l 957 0 l 957 639 l 725 3 l 544 3 l 314 639 l 314 0 l 103 0 z "},"Н":{"ha":1001,"x_min":103,"x_max":899,"o":"m 103 0 l 103 986 l 314 986 l 314 585 l 688 585 l 688 986 l 899 986 l 899 0 l 688 0 l 688 407 l 314 407 l 314 0 l 103 0 z "},"О":{"ha":1074,"x_min":57,"x_max":1017,"o":"m 536 -22 q 278 40 386 -22 q 114 218 171 103 q 57 492 57 333 q 114 766 57 650 q 278 945 171 882 q 536 1008 386 1008 q 794 945 686 1008 q 959 766 901 882 q 1017 492 1017 650 q 959 218 1017 333 q 794 40 901 103 q 536 -22 686 -22 m 536 156 q 730 244 660 156 q 800 492 800 332 q 730 741 800 651 q 536 831 660 831 q 343 741 413 831 q 274 492 274 651 q 343 244 274 332 q 536 156 413 156 z "},"П":{"ha":996,"x_min":103,"x_max":893,"o":"m 103 0 l 103 986 l 893 986 l 893 0 l 682 0 l 682 808 l 314 808 l 314 0 l 103 0 z "},"Р":{"ha":933,"x_min":103,"x_max":876,"o":"m 103 0 l 103 986 l 497 986 q 776 900 675 986 q 876 664 876 814 q 776 427 876 514 q 497 340 675 340 l 314 340 l 314 0 l 103 0 m 314 518 l 485 518 q 614 555 568 518 q 660 664 660 592 q 614 772 660 736 q 485 808 568 808 l 314 808 l 314 518 z "},"С":{"ha":1011,"x_min":57,"x_max":967,"o":"m 519 -22 q 280 39 385 -22 q 116 215 175 100 q 57 492 57 331 q 114 765 57 649 q 276 944 171 881 q 522 1008 381 1008 q 824 913 717 1008 q 963 642 931 818 l 743 633 q 669 778 725 726 q 522 831 614 831 q 340 738 406 831 q 274 492 274 646 q 340 246 274 336 q 521 156 407 156 q 676 212 621 156 q 746 368 731 268 l 967 360 q 824 78 936 179 q 519 -22 711 -22 z "},"Т":{"ha":878,"x_min":31,"x_max":832,"o":"m 325 0 l 325 808 l 31 808 l 31 986 l 832 986 l 832 808 l 538 808 l 538 0 l 325 0 z "},"У":{"ha":865,"x_min":35,"x_max":832,"o":"m 154 0 l 154 172 l 267 172 q 350 221 335 172 l 375 288 l 300 288 l 35 986 l 253 986 l 436 468 l 614 986 l 832 986 l 528 138 q 452 33 501 67 q 322 0 403 0 l 154 0 z "},"Ў":{"ha":867,"x_min":35,"x_max":832,"o":"m 154 0 l 154 172 l 267 172 q 350 221 335 172 l 375 288 l 300 288 l 35 986 l 253 986 l 436 468 l 614 986 l 832 986 l 528 138 q 452 33 501 67 q 322 0 403 0 l 154 0 m 435 1064 q 281 1117 339 1064 q 218 1268 222 1171 l 338 1268 q 368 1199 343 1219 q 435 1178 393 1178 q 501 1199 476 1178 q 532 1268 526 1219 l 653 1268 q 590 1117 649 1171 q 435 1064 532 1064 z "},"Ф":{"ha":1203,"x_min":57,"x_max":1146,"o":"m 501 0 l 501 107 q 267 172 367 121 q 112 306 167 224 q 57 493 57 388 q 112 681 57 599 q 267 814 167 763 q 501 879 367 865 l 501 986 l 700 986 l 700 879 q 936 813 836 865 q 1091 680 1036 761 q 1146 493 1146 599 q 1091 306 1146 388 q 936 173 1036 225 q 700 107 836 121 l 700 0 l 501 0 m 274 493 q 335 358 274 413 q 501 286 396 304 l 501 700 q 335 628 396 682 q 274 493 274 574 m 929 493 q 868 628 929 574 q 700 700 807 682 l 700 286 q 868 358 807 304 q 929 493 929 413 z "},"Х":{"ha":1000,"x_min":39,"x_max":961,"o":"m 39 0 l 375 494 l 42 986 l 288 986 l 503 654 l 711 986 l 957 986 l 625 497 l 961 0 l 715 0 l 500 338 l 285 0 l 39 0 z "},"Ц":{"ha":1125,"x_min":103,"x_max":1050,"o":"m 839 -208 l 839 0 l 103 0 l 103 986 l 314 986 l 314 178 l 682 178 l 682 986 l 893 986 l 893 178 l 1050 178 l 1050 -208 l 839 -208 z "},"Ч":{"ha":933,"x_min":50,"x_max":831,"o":"m 619 0 l 619 451 q 515 363 582 396 q 365 331 449 331 q 133 413 217 331 q 50 632 50 494 l 50 986 l 261 986 l 261 683 q 301 551 261 597 q 421 504 342 504 q 565 552 511 504 q 619 683 619 600 l 619 986 l 831 986 l 831 0 l 619 0 z "},"Ш":{"ha":1344,"x_min":103,"x_max":1242,"o":"m 103 0 l 103 986 l 314 986 l 314 178 l 567 178 l 567 986 l 779 986 l 779 178 l 1031 178 l 1031 986 l 1242 986 l 1242 0 l 103 0 z "},"Щ":{"ha":1471,"x_min":103,"x_max":1396,"o":"m 103 0 l 103 986 l 314 986 l 314 178 l 567 178 l 567 986 l 779 986 l 779 178 l 1031 178 l 1031 986 l 1242 986 l 1242 178 l 1396 178 l 1396 -208 l 1185 -208 l 1185 0 l 103 0 z "},"Џ":{"ha":996,"x_min":103,"x_max":893,"o":"m 393 -208 l 393 0 l 103 0 l 103 986 l 314 986 l 314 178 l 682 178 l 682 986 l 893 986 l 893 0 l 604 0 l 604 -208 l 393 -208 z "},"Ь":{"ha":947,"x_min":103,"x_max":876,"o":"m 103 986 l 314 986 l 314 646 l 497 646 q 776 559 675 646 q 876 322 876 472 q 776 86 876 172 q 497 0 675 0 l 103 0 l 103 986 m 314 468 l 314 178 l 485 178 q 614 215 568 178 q 660 322 660 251 q 614 431 660 394 q 485 468 568 468 l 314 468 z "},"Ы":{"ha":1288,"x_min":103,"x_max":1185,"o":"m 975 0 l 975 986 l 1185 986 l 1185 0 l 975 0 m 103 986 l 314 986 l 314 646 l 497 646 q 776 559 675 646 q 876 322 876 472 q 776 86 876 172 q 497 0 675 0 l 103 0 l 103 986 m 314 468 l 314 178 l 485 178 q 614 215 568 178 q 660 322 660 251 q 614 431 660 394 q 485 468 568 468 l 314 468 z "},"Ъ":{"ha":1049,"x_min":75,"x_max":993,"o":"m 75 808 l 75 986 l 431 986 l 431 646 l 614 646 q 892 559 792 646 q 993 322 993 472 q 892 86 993 172 q 614 0 792 0 l 219 0 l 219 808 l 75 808 m 431 468 l 431 178 l 601 178 q 731 215 685 178 q 776 322 776 251 q 731 431 776 394 q 601 468 685 468 l 431 468 z "},"Љ":{"ha":1615,"x_min":68,"x_max":1544,"o":"m 68 0 l 68 178 l 147 178 q 209 204 188 178 q 236 278 231 231 l 300 986 l 982 986 l 982 646 l 1167 646 q 1444 559 1343 646 q 1544 322 1544 472 q 1444 86 1544 172 q 1167 0 1343 0 l 771 0 l 771 808 l 492 808 l 440 240 q 372 65 429 131 q 210 0 314 0 l 68 0 m 982 468 l 982 178 l 1154 178 q 1283 215 1238 178 q 1328 322 1328 251 q 1282 431 1328 394 q 1154 468 1236 468 l 982 468 z "},"Њ":{"ha":1526,"x_min":103,"x_max":1456,"o":"m 103 0 l 103 986 l 314 986 l 314 646 l 682 646 l 682 986 l 893 986 l 893 646 l 1078 646 q 1355 559 1254 646 q 1456 322 1456 472 q 1355 86 1456 172 q 1078 0 1254 0 l 682 0 l 682 468 l 314 468 l 314 0 l 103 0 m 893 468 l 893 178 l 1065 178 q 1194 215 1149 178 q 1239 322 1239 251 q 1193 431 1239 394 q 1065 468 1147 468 l 893 468 z "},"Ѕ":{"ha":943,"x_min":71,"x_max":872,"o":"m 490 -22 q 191 72 300 -22 q 71 325 82 167 l 283 335 q 347 200 294 247 q 493 153 399 153 q 615 181 572 153 q 658 267 658 210 q 642 327 658 301 q 579 374 626 353 q 439 417 532 396 q 236 482 313 446 q 124 573 160 518 q 89 711 89 628 q 133 866 89 799 q 260 971 178 933 q 458 1008 343 1008 q 667 965 582 1008 q 799 847 751 922 q 857 675 846 772 l 646 664 q 589 787 638 740 q 456 833 540 833 q 344 801 385 833 q 303 718 303 769 q 321 658 303 682 q 383 615 339 633 q 508 581 428 597 q 724 510 644 553 q 838 410 804 468 q 872 276 872 351 q 826 117 872 185 q 693 14 779 50 q 490 -22 607 -22 z "},"Є":{"ha":1060,"x_min":57,"x_max":1004,"o":"m 538 -22 q 280 40 388 -22 q 115 218 172 103 q 57 492 57 333 q 115 767 57 651 q 280 946 172 883 q 538 1008 388 1008 q 849 908 728 1008 q 1004 631 969 808 l 781 631 q 693 778 756 726 q 538 831 631 831 q 363 763 429 831 q 279 574 296 696 l 597 574 l 597 411 l 279 411 q 363 222 296 289 q 538 156 429 156 q 693 207 631 156 q 781 353 756 258 l 1004 353 q 849 78 969 178 q 538 -22 728 -22 z "},"Э":{"ha":1060,"x_min":57,"x_max":1003,"o":"m 524 -22 q 212 78 333 -22 q 57 353 90 178 l 281 353 q 368 207 306 258 q 524 156 431 156 q 698 222 632 156 q 781 411 764 289 l 463 411 l 463 574 l 781 574 q 698 763 764 696 q 524 831 632 831 q 368 778 431 831 q 281 631 306 726 l 57 631 q 212 908 90 808 q 524 1008 333 1008 q 781 946 674 1008 q 946 767 889 883 q 1003 492 1003 651 q 946 218 1003 333 q 781 40 889 103 q 524 -22 674 -22 z "},"І":{"ha":417,"x_min":103,"x_max":314,"o":"m 103 0 l 103 986 l 314 986 l 314 0 l 103 0 z "},"Ї":{"ha":417,"x_min":-44,"x_max":453,"o":"m 103 0 l 103 986 l 314 986 l 314 0 l 103 0 m -44 1082 l -44 1250 l 154 1250 l 154 1082 l -44 1082 m 253 1082 l 253 1250 l 453 1250 l 453 1082 l 253 1082 z "},"Ј":{"ha":871,"x_min":68,"x_max":789,"o":"m 429 -22 q 234 26 314 -22 q 112 159 154 75 q 68 351 69 243 l 281 361 q 321 206 282 256 q 429 156 360 156 q 539 204 500 156 q 578 354 578 253 l 578 986 l 789 986 l 789 354 q 744 155 789 239 q 618 24 699 71 q 429 -22 538 -22 z "},"Ћ":{"ha":1104,"x_min":31,"x_max":1056,"o":"m 31 808 l 31 986 l 767 986 l 767 808 l 486 808 l 486 535 q 589 623 522 590 q 739 656 656 656 q 972 574 889 656 q 1056 354 1056 492 l 1056 0 l 844 0 l 844 303 q 804 435 844 389 q 683 482 764 482 q 540 434 593 482 q 486 303 486 386 l 486 0 l 275 0 l 275 808 l 31 808 z "},"Ю":{"ha":1460,"x_min":103,"x_max":1403,"o":"m 103 0 l 103 986 l 314 986 l 314 582 l 449 582 q 597 894 472 781 q 922 1008 721 1008 q 1181 945 1074 1008 q 1345 766 1288 882 q 1403 492 1403 650 q 1345 218 1403 333 q 1181 40 1288 103 q 922 -22 1074 -22 q 595 91 719 -22 q 447 404 471 204 l 314 404 l 314 0 l 103 0 m 922 156 q 1117 244 1047 156 q 1186 492 1186 332 q 1117 741 1186 651 q 922 831 1047 831 q 730 741 800 831 q 660 492 660 651 q 730 244 660 332 q 922 156 800 156 z "},"Я":{"ha":985,"x_min":71,"x_max":882,"o":"m 882 0 l 671 0 l 671 363 l 490 363 l 299 0 l 71 0 l 290 400 q 154 506 200 432 q 108 674 108 579 q 207 904 108 822 q 486 986 306 986 l 882 986 l 882 0 m 671 538 l 671 808 l 499 808 q 371 774 418 808 q 324 672 324 739 q 371 572 324 606 q 499 538 418 538 l 671 538 z "},"Ђ":{"ha":1111,"x_min":31,"x_max":1056,"o":"m 275 0 l 275 808 l 31 808 l 31 986 l 767 986 l 767 808 l 486 808 l 486 536 q 587 623 522 590 q 735 656 651 656 q 903 616 832 656 q 1015 505 975 576 q 1056 338 1056 433 q 1006 158 1056 233 q 865 41 956 82 q 647 0 774 0 l 647 178 q 791 219 740 178 q 842 332 842 261 q 798 441 842 400 q 682 482 754 482 q 539 431 592 482 q 486 294 486 381 l 486 0 l 275 0 z "},"Ѣ":{"ha":1039,"x_min":61,"x_max":968,"o":"m 61 736 l 61 860 l 194 860 l 194 986 l 406 986 l 406 860 l 540 860 l 540 736 l 406 736 l 406 646 l 590 646 q 867 559 767 646 q 968 322 968 472 q 867 86 968 172 q 590 0 767 0 l 194 0 l 194 736 l 61 736 m 406 468 l 406 178 l 578 178 q 706 215 661 178 q 751 322 751 251 q 706 431 751 394 q 578 468 660 468 l 406 468 z "},"Ѫ":{"ha":1081,"x_min":39,"x_max":1042,"o":"m 39 0 l 160 358 q 340 532 208 513 l 139 808 l 139 986 l 943 986 l 943 808 l 742 532 q 919 358 872 513 l 1042 0 l 829 0 l 739 285 q 703 349 725 335 q 643 363 682 363 l 642 363 l 642 0 l 440 0 l 440 363 l 438 363 q 377 349 399 363 q 342 285 356 335 l 251 0 l 39 0 m 350 808 l 542 547 l 732 808 l 350 808 z "},"Ѳ":{"ha":1074,"x_min":57,"x_max":1017,"o":"m 536 -22 q 278 40 386 -22 q 114 218 171 103 q 57 492 57 333 q 114 766 57 650 q 278 945 171 882 q 536 1008 386 1008 q 794 945 686 1008 q 959 766 901 882 q 1017 492 1017 650 q 959 218 1017 333 q 794 40 901 103 q 536 -22 686 -22 m 515 592 q 655 549 606 558 q 742 546 704 539 q 796 561 769 549 q 713 760 781 689 q 536 831 646 831 q 374 774 439 831 q 286 614 310 718 q 311 618 300 618 q 409 619 353 626 q 515 592 465 611 m 536 156 q 699 212 635 156 q 788 374 764 268 q 772 369 779 371 q 672 372 731 363 q 518 414 614 382 q 420 440 468 432 q 342 444 372 449 q 278 425 310 439 q 359 226 292 296 q 536 156 426 156 z "},"Ѵ":{"ha":1090,"x_min":35,"x_max":1056,"o":"m 392 0 l 35 986 l 253 986 l 515 239 l 703 775 q 812 931 738 875 q 988 986 886 986 l 1056 986 l 1056 808 l 1035 808 q 945 783 978 808 q 889 694 913 757 l 638 0 l 392 0 z "},"Җ":{"ha":1524,"x_min":39,"x_max":1492,"o":"m 39 0 l 407 493 l 53 986 l 317 986 l 631 550 l 631 986 l 843 986 l 843 550 l 1156 986 l 1419 986 l 1065 493 l 1336 131 l 1492 131 l 1492 -208 l 1281 -208 l 1281 0 l 1169 0 l 843 439 l 843 0 l 631 0 l 631 439 l 303 0 l 39 0 z "},"Қ":{"ha":1050,"x_min":103,"x_max":1011,"o":"m 103 0 l 103 986 l 314 986 l 314 506 l 682 986 l 924 986 l 544 493 l 833 131 l 1011 131 l 1011 -208 l 800 -208 l 800 0 l 693 0 l 314 481 l 314 0 l 103 0 z "},"Ң":{"ha":1096,"x_min":103,"x_max":1021,"o":"m 103 0 l 103 986 l 314 986 l 314 585 l 688 585 l 688 986 l 899 986 l 899 131 l 1021 131 l 1021 -208 l 810 -208 l 810 0 l 688 0 l 688 407 l 314 407 l 314 0 l 103 0 z "},"Ү":{"ha":965,"x_min":35,"x_max":931,"o":"m 376 0 l 376 383 l 35 986 l 268 986 l 483 589 l 697 986 l 931 986 l 589 383 l 589 0 l 376 0 z "},"Ұ":{"ha":965,"x_min":35,"x_max":931,"o":"m 163 258 l 163 435 l 347 435 l 35 986 l 268 986 l 483 589 l 697 986 l 931 986 l 618 435 l 801 435 l 801 258 l 589 258 l 589 0 l 376 0 l 376 258 l 163 258 z "},"Ҳ":{"ha":1071,"x_min":39,"x_max":1032,"o":"m 39 0 l 375 494 l 42 986 l 288 986 l 503 654 l 711 986 l 957 986 l 625 497 l 872 131 l 1032 131 l 1032 -208 l 821 -208 l 821 0 l 715 0 l 500 338 l 285 0 l 39 0 z "},"Ҷ":{"ha":1029,"x_min":50,"x_max":954,"o":"m 619 0 l 619 451 q 515 363 582 396 q 365 331 449 331 q 133 413 217 331 q 50 632 50 494 l 50 986 l 261 986 l 261 683 q 301 551 261 597 q 421 504 342 504 q 565 552 511 504 q 619 683 619 600 l 619 986 l 831 986 l 831 131 l 954 131 l 954 -208 l 743 -208 l 743 0 l 619 0 z "},"Һ":{"ha":933,"x_min":103,"x_max":883,"o":"m 314 986 l 314 535 q 417 623 351 590 q 567 656 483 656 q 800 574 717 656 q 883 354 883 492 l 883 0 l 672 0 l 672 303 q 632 435 672 389 q 513 482 592 482 q 368 434 422 482 q 314 303 314 386 l 314 0 l 103 0 l 103 986 l 314 986 z "},"Ӏ":{"ha":417,"x_min":103,"x_max":314,"o":"m 103 0 l 103 986 l 314 986 l 314 0 l 103 0 z "},"Ә":{"ha":1049,"x_min":57,"x_max":992,"o":"m 992 493 q 927 209 992 324 q 754 36 863 94 q 515 -22 646 -22 q 341 10 424 -22 q 194 105 258 42 q 94 263 131 168 q 57 483 57 358 l 57 561 l 771 561 q 688 760 757 690 q 514 831 618 831 q 392 793 447 831 q 307 683 338 756 l 85 696 q 242 924 131 840 q 515 1008 354 1008 q 762 948 654 1008 q 931 772 869 888 q 992 493 992 657 m 517 156 q 688 217 621 156 q 769 396 754 278 l 282 396 q 362 213 301 271 q 517 156 422 156 z "},"Ӣ":{"ha":1039,"x_min":100,"x_max":936,"o":"m 936 0 l 725 0 l 725 657 l 336 0 l 100 0 l 100 986 l 311 986 l 311 306 l 704 986 l 936 986 l 936 0 m 303 1085 l 303 1238 l 718 1238 l 718 1085 l 303 1085 z "},"Ө":{"ha":1074,"x_min":57,"x_max":1017,"o":"m 536 -22 q 278 40 386 -22 q 114 218 171 103 q 57 492 57 333 q 114 766 57 650 q 278 945 171 882 q 536 1008 386 1008 q 794 945 686 1008 q 959 766 901 882 q 1017 492 1017 650 q 959 218 1017 333 q 794 40 901 103 q 536 -22 686 -22 m 536 831 q 365 765 432 831 q 281 582 299 700 l 793 582 q 708 765 775 700 q 536 831 642 831 m 536 156 q 708 220 642 156 q 793 404 775 285 l 281 404 q 364 220 297 285 q 536 156 431 156 z "},"Ӯ":{"ha":867,"x_min":35,"x_max":832,"o":"m 154 0 l 154 172 l 267 172 q 350 221 335 172 l 375 288 l 300 288 l 35 986 l 253 986 l 436 468 l 614 986 l 832 986 l 528 138 q 452 33 501 67 q 322 0 403 0 l 154 0 m 228 1085 l 228 1238 l 643 1238 l 643 1085 l 228 1085 z "},"а":{"ha":849,"x_min":54,"x_max":810,"o":"m 315 -17 q 126 37 199 -17 q 54 186 54 90 q 115 338 54 285 q 299 417 176 392 l 539 464 q 411 610 539 610 q 275 503 297 610 l 67 513 q 177 698 88 635 q 411 761 267 761 q 663 681 578 761 q 747 450 747 601 l 747 196 q 758 153 747 164 q 789 143 768 143 l 810 143 l 810 0 q 778 -6 800 -3 q 735 -8 757 -8 q 632 17 678 -8 q 572 114 586 43 q 478 19 544 54 q 315 -17 411 -17 m 365 126 q 491 172 443 126 q 539 297 539 218 l 539 333 l 369 297 q 268 206 268 278 q 365 126 268 126 z "},"б":{"ha":883,"x_min":57,"x_max":828,"o":"m 444 -22 q 287 7 363 -22 q 154 106 211 36 q 57 440 57 217 q 83 666 57 574 q 165 819 108 758 q 311 919 221 881 q 401 981 378 950 q 425 1067 425 1011 l 601 1068 q 565 908 601 972 q 438 803 528 844 q 340 749 382 776 q 273 682 299 722 q 240 575 247 642 q 335 652 278 625 q 464 679 393 679 q 656 635 574 679 q 783 514 738 592 q 828 331 828 436 q 780 143 828 222 q 646 21 732 64 q 444 -22 560 -22 m 447 138 q 567 192 521 138 q 614 331 614 246 q 569 466 614 414 q 453 518 524 518 q 327 467 376 518 q 276 331 278 417 q 322 192 275 246 q 447 138 369 138 z "},"в":{"ha":860,"x_min":92,"x_max":782,"o":"m 92 0 l 92 744 l 431 744 q 669 692 588 744 q 751 538 751 639 q 706 429 751 469 q 578 385 660 389 q 729 334 676 379 q 782 211 782 289 q 703 55 782 110 q 471 0 624 0 l 92 0 m 301 440 l 426 440 q 509 461 479 440 q 539 518 539 482 q 509 574 539 554 q 426 594 479 594 l 301 594 l 301 440 m 301 150 l 458 150 q 540 171 510 150 q 569 229 569 192 q 540 292 569 269 q 458 315 511 315 l 301 315 l 301 150 z "},"г":{"ha":694,"x_min":92,"x_max":654,"o":"m 92 0 l 92 744 l 654 744 l 654 589 l 300 589 l 300 0 l 92 0 z "},"ѓ":{"ha":694,"x_min":92,"x_max":654,"o":"m 92 0 l 92 744 l 654 744 l 654 589 l 300 589 l 300 0 l 92 0 m 279 821 l 360 1026 l 563 1026 l 438 821 l 279 821 z "},"ґ":{"ha":649,"x_min":92,"x_max":619,"o":"m 92 0 l 92 744 l 410 744 l 410 961 l 619 961 l 619 589 l 300 589 l 300 0 l 92 0 z "},"ғ":{"ha":760,"x_min":64,"x_max":706,"o":"m 142 0 l 142 275 l 64 275 l 64 431 l 142 431 l 142 744 l 706 744 l 706 589 l 350 589 l 350 431 l 547 431 l 547 275 l 350 275 l 350 0 l 142 0 z "},"д":{"ha":1029,"x_min":50,"x_max":979,"o":"m 50 -208 l 50 154 l 103 154 q 171 186 146 154 q 206 288 196 218 l 272 744 l 860 744 l 860 154 l 979 154 l 979 -208 l 771 -208 l 771 0 l 258 0 l 258 -208 l 50 -208 m 399 281 q 360 154 389 206 l 651 154 l 651 589 l 439 589 l 399 281 z "},"е":{"ha":846,"x_min":54,"x_max":792,"o":"m 429 -17 q 231 32 315 -17 q 100 167 146 81 q 54 372 54 254 q 100 576 54 489 q 230 713 146 664 q 428 761 314 761 q 619 713 538 761 q 747 574 701 664 q 792 358 792 483 l 792 317 l 269 317 q 317 185 274 228 q 433 142 361 142 q 572 232 542 142 l 782 219 q 658 46 751 108 q 429 -17 564 -17 m 269 444 l 579 444 q 533 567 575 526 q 428 607 492 607 q 320 565 363 607 q 269 444 278 522 z "},"ѐ":{"ha":846,"x_min":54,"x_max":792,"o":"m 429 -17 q 231 32 315 -17 q 100 167 146 81 q 54 372 54 254 q 100 576 54 489 q 230 713 146 664 q 428 761 314 761 q 619 713 538 761 q 747 574 701 664 q 792 358 792 483 l 792 317 l 269 317 q 317 185 274 228 q 433 142 361 142 q 572 232 542 142 l 782 219 q 658 46 751 108 q 429 -17 564 -17 m 269 444 l 579 444 q 533 567 575 526 q 428 607 492 607 q 320 565 363 607 q 269 444 278 522 m 367 828 l 242 1032 l 443 1032 l 525 828 l 367 828 z "},"ё":{"ha":846,"x_min":54,"x_max":792,"o":"m 429 -17 q 231 32 315 -17 q 100 167 146 81 q 54 372 54 254 q 100 576 54 489 q 230 713 146 664 q 428 761 314 761 q 619 713 538 761 q 747 574 701 664 q 792 358 792 483 l 792 317 l 269 317 q 317 185 274 228 q 433 142 361 142 q 572 232 542 142 l 782 219 q 658 46 751 108 q 429 -17 564 -17 m 269 444 l 579 444 q 533 567 575 526 q 428 607 492 607 q 320 565 363 607 q 269 444 278 522 m 183 829 l 183 997 l 382 997 l 382 829 l 183 829 m 481 829 l 481 997 l 681 997 l 681 829 l 481 829 z "},"ж":{"ha":1376,"x_min":64,"x_max":1314,"o":"m 64 0 l 365 372 l 78 744 l 335 744 l 586 406 l 586 744 l 794 744 l 794 408 l 1043 744 l 1300 744 l 1011 372 l 1314 0 l 1057 0 l 794 338 l 794 0 l 586 0 l 586 340 l 321 0 l 64 0 z "},"з":{"ha":782,"x_min":28,"x_max":708,"o":"m 374 -17 q 126 49 218 -17 q 28 232 33 115 l 240 238 q 279 165 244 192 q 371 138 314 138 q 462 162 428 138 q 496 226 496 186 q 461 303 496 275 q 368 332 426 332 l 306 331 l 306 456 l 368 454 q 444 479 417 454 q 471 551 471 504 q 443 613 471 590 q 368 636 415 636 q 296 613 322 636 q 265 549 269 590 l 54 556 q 150 706 64 651 q 372 761 236 761 q 601 705 517 761 q 686 551 686 649 q 642 458 686 497 q 519 399 599 418 q 659 326 610 378 q 708 203 708 275 q 618 42 708 101 q 374 -17 528 -17 z "},"и":{"ha":828,"x_min":92,"x_max":736,"o":"m 92 0 l 92 744 l 300 744 l 300 304 l 542 744 l 736 744 l 736 0 l 528 0 l 528 428 l 292 0 l 92 0 z "},"й":{"ha":828,"x_min":92,"x_max":736,"o":"m 92 0 l 92 744 l 300 744 l 300 304 l 542 744 l 736 744 l 736 0 l 528 0 l 528 428 l 292 0 l 92 0 m 413 822 q 258 876 317 822 q 196 1026 200 929 l 315 1026 q 346 957 321 978 q 413 936 371 936 q 479 957 454 936 q 510 1026 504 978 l 631 1026 q 568 876 626 929 q 413 822 510 822 z "},"ѝ":{"ha":828,"x_min":92,"x_max":736,"o":"m 92 0 l 92 744 l 300 744 l 300 304 l 542 744 l 736 744 l 736 0 l 528 0 l 528 428 l 292 0 l 92 0 m 349 831 l 224 1035 l 425 1035 l 507 831 l 349 831 z "},"к":{"ha":904,"x_min":92,"x_max":842,"o":"m 92 0 l 92 744 l 301 744 l 301 388 l 579 744 l 825 744 l 529 372 l 842 0 l 593 0 l 301 358 l 301 0 l 92 0 z "},"ќ":{"ha":904,"x_min":92,"x_max":842,"o":"m 92 0 l 92 744 l 301 744 l 301 388 l 579 744 l 825 744 l 529 372 l 842 0 l 593 0 l 301 358 l 301 0 l 92 0 m 346 821 l 426 1026 l 629 1026 l 504 821 l 346 821 z "},"л":{"ha":946,"x_min":64,"x_max":854,"o":"m 64 0 l 64 164 l 107 164 q 188 264 178 164 l 240 744 l 854 744 l 854 0 l 646 0 l 646 589 l 429 589 l 389 207 q 196 0 368 0 l 64 0 z "},"м":{"ha":1042,"x_min":92,"x_max":950,"o":"m 92 0 l 92 744 l 338 744 l 522 189 l 704 744 l 950 744 l 950 0 l 742 0 l 742 408 l 594 0 l 447 0 l 300 408 l 300 0 l 92 0 z "},"н":{"ha":835,"x_min":92,"x_max":744,"o":"m 92 0 l 92 746 l 300 746 l 300 449 l 536 449 l 536 744 l 744 744 l 744 0 l 536 0 l 536 293 l 300 293 l 300 0 l 92 0 z "},"о":{"ha":864,"x_min":54,"x_max":810,"o":"m 432 -17 q 233 31 318 -17 q 101 167 147 79 q 54 372 54 254 q 101 577 54 490 q 233 713 147 664 q 432 761 318 761 q 631 713 546 761 q 763 577 715 664 q 810 372 810 490 q 763 167 810 254 q 631 31 715 79 q 432 -17 546 -17 m 432 143 q 552 203 510 143 q 594 372 594 264 q 552 541 594 481 q 432 601 510 601 q 311 541 354 601 q 268 372 268 481 q 311 203 268 264 q 432 143 354 143 z "},"п":{"ha":854,"x_min":92,"x_max":763,"o":"m 92 0 l 92 744 l 763 744 l 763 0 l 554 0 l 554 589 l 300 589 l 300 0 l 92 0 z "},"р":{"ha":883,"x_min":92,"x_max":829,"o":"m 92 -208 l 92 744 l 292 744 l 294 633 q 385 728 328 696 q 515 761 442 761 q 690 710 619 761 q 794 570 760 658 q 829 372 829 482 q 794 174 829 263 q 688 35 758 86 q 514 -17 618 -17 q 388 15 444 -17 q 300 104 331 47 l 300 -208 l 92 -208 m 457 143 q 573 204 531 143 q 615 372 615 265 q 573 540 615 479 q 457 601 531 601 q 342 543 383 601 q 300 372 300 485 q 341 201 300 260 q 457 143 382 143 z "},"с":{"ha":835,"x_min":54,"x_max":796,"o":"m 432 -17 q 233 32 318 -17 q 101 167 147 81 q 54 372 54 254 q 101 576 54 489 q 233 713 147 664 q 432 761 318 761 q 609 726 531 761 q 736 626 688 692 q 796 469 785 561 l 581 460 q 531 565 571 529 q 432 600 492 600 q 311 540 354 600 q 268 372 268 481 q 311 203 268 264 q 432 143 354 143 q 532 180 492 143 q 581 292 572 217 l 796 283 q 737 124 785 192 q 611 20 689 57 q 432 -17 533 -17 z "},"т":{"ha":817,"x_min":54,"x_max":763,"o":"m 304 0 l 304 589 l 54 589 l 54 744 l 763 744 l 763 589 l 514 589 l 514 0 l 304 0 z "},"у":{"ha":815,"x_min":29,"x_max":786,"o":"m 154 -208 l 154 -53 l 253 -53 q 306 -42 289 -53 q 332 -6 322 -32 l 349 38 l 292 38 l 29 744 l 243 744 l 413 232 l 574 744 l 786 744 l 500 -71 q 427 -176 474 -144 q 296 -208 381 -208 l 154 -208 z "},"ў":{"ha":815,"x_min":29,"x_max":786,"o":"m 154 -208 l 154 -53 l 253 -53 q 306 -42 289 -53 q 332 -6 322 -32 l 349 38 l 292 38 l 29 744 l 243 744 l 413 232 l 574 744 l 786 744 l 500 -71 q 427 -176 474 -144 q 296 -208 381 -208 l 154 -208 m 407 822 q 253 876 311 822 q 190 1026 194 929 l 310 1026 q 340 957 315 978 q 407 936 365 936 q 474 957 449 936 q 504 1026 499 978 l 625 1026 q 563 876 621 929 q 407 822 504 822 z "},"ф":{"ha":1010,"x_min":54,"x_max":956,"o":"m 411 -211 l 411 35 q 149 146 244 56 q 54 376 54 236 q 149 607 54 517 q 411 718 244 697 l 411 986 l 599 986 l 599 718 q 860 607 765 697 q 956 376 956 517 q 860 146 956 236 q 599 35 765 56 l 599 -211 l 411 -211 m 264 376 q 303 266 264 311 q 411 204 342 221 l 411 549 q 303 486 342 531 q 264 376 264 442 m 746 376 q 708 486 746 442 q 599 549 669 531 l 599 204 q 708 267 669 222 q 746 376 746 311 z "},"х":{"ha":903,"x_min":64,"x_max":840,"o":"m 64 0 l 329 378 l 72 744 l 293 744 l 451 506 l 607 744 l 832 744 l 575 376 l 840 0 l 618 0 l 456 253 l 290 0 l 64 0 z "},"ц":{"ha":986,"x_min":92,"x_max":910,"o":"m 700 -211 l 700 0 l 92 0 l 92 744 l 300 744 l 300 156 l 554 156 l 554 744 l 763 744 l 763 154 l 910 154 l 910 -211 l 700 -211 z "},"ч":{"ha":900,"x_min":92,"x_max":810,"o":"m 600 0 l 600 339 q 510 253 568 285 q 379 222 453 222 q 169 305 247 222 q 92 528 92 388 l 92 744 l 300 744 l 300 578 q 335 437 300 488 q 435 386 371 386 q 556 437 513 386 q 600 578 600 488 l 600 744 l 810 744 l 810 0 l 600 0 z "},"ш":{"ha":1194,"x_min":92,"x_max":1103,"o":"m 92 0 l 92 744 l 300 744 l 300 154 l 499 154 l 499 744 l 697 744 l 697 154 l 894 154 l 894 744 l 1103 744 l 1103 0 l 92 0 z "},"щ":{"ha":1315,"x_min":92,"x_max":1253,"o":"m 92 0 l 92 744 l 300 744 l 300 154 l 499 154 l 499 744 l 697 744 l 697 154 l 894 154 l 894 744 l 1103 744 l 1103 154 l 1253 154 l 1253 -211 l 1043 -211 l 1043 0 l 92 0 z "},"џ":{"ha":854,"x_min":92,"x_max":763,"o":"m 324 -211 l 324 0 l 92 0 l 92 744 l 300 744 l 300 156 l 554 156 l 554 744 l 763 744 l 763 0 l 532 0 l 532 -211 l 324 -211 z "},"ь":{"ha":850,"x_min":92,"x_max":796,"o":"m 92 0 l 92 744 l 300 744 l 300 476 l 450 476 q 708 415 621 476 q 796 235 796 354 q 708 59 796 118 q 450 0 621 0 l 92 0 m 300 144 l 432 144 q 582 235 582 144 q 432 328 582 328 l 300 328 l 300 144 z "},"ы":{"ha":1210,"x_min":92,"x_max":1118,"o":"m 910 0 l 910 744 l 1118 744 l 1118 0 l 910 0 m 92 0 l 92 744 l 300 744 l 300 476 l 450 476 q 708 415 621 476 q 796 235 796 354 q 708 59 796 118 q 450 0 621 0 l 92 0 m 300 144 l 432 144 q 582 235 582 144 q 432 328 582 328 l 300 328 l 300 144 z "},"ъ":{"ha":938,"x_min":64,"x_max":883,"o":"m 179 0 l 179 589 l 64 589 l 64 744 l 388 744 l 388 476 l 539 476 q 796 415 708 476 q 883 235 883 354 q 796 59 883 118 q 539 0 708 0 l 179 0 m 388 144 l 519 144 q 669 235 669 144 q 519 328 669 328 l 388 328 l 388 144 z "},"љ":{"ha":1406,"x_min":64,"x_max":1351,"o":"m 647 0 l 647 744 l 856 744 l 856 476 l 1006 476 q 1264 415 1176 476 q 1351 235 1351 354 q 1264 59 1351 118 q 1006 0 1176 0 l 647 0 m 856 144 l 988 144 q 1138 235 1138 144 q 988 328 1138 328 l 856 328 l 856 144 m 64 0 l 64 164 l 107 164 q 188 264 178 164 l 240 744 l 854 744 l 854 0 l 646 0 l 646 589 l 429 589 l 389 207 q 196 0 368 0 l 64 0 z "},"њ":{"ha":1293,"x_min":92,"x_max":1240,"o":"m 92 0 l 92 746 l 300 746 l 300 478 l 535 478 l 535 744 l 743 744 l 743 476 l 894 476 q 1153 415 1065 476 q 1240 235 1240 354 q 1153 59 1240 118 q 894 0 1065 0 l 535 0 l 535 322 l 300 322 l 300 0 l 92 0 m 743 144 l 876 144 q 1026 235 1026 144 q 876 328 1026 328 l 743 328 l 743 144 z "},"ѕ":{"ha":799,"x_min":54,"x_max":744,"o":"m 411 -17 q 151 54 239 -17 q 54 235 63 125 l 265 242 q 309 160 274 189 q 413 131 344 131 q 499 149 468 131 q 531 204 531 167 q 519 244 531 228 q 475 272 507 260 q 379 293 443 283 q 194 342 261 313 q 100 415 128 371 q 72 522 72 458 q 155 695 72 629 q 403 761 238 761 q 642 689 560 761 q 739 506 725 617 l 531 497 q 490 583 524 551 q 400 614 456 614 q 315 591 344 614 q 286 531 286 568 q 317 470 286 490 q 425 439 347 450 q 615 392 544 421 q 715 318 685 363 q 744 208 744 274 q 654 42 744 100 q 411 -17 564 -17 z "},"є":{"ha":851,"x_min":54,"x_max":797,"o":"m 432 -17 q 233 31 318 -17 q 101 167 147 79 q 54 372 54 254 q 101 577 54 490 q 233 713 147 664 q 432 761 318 761 q 671 684 574 761 q 797 469 768 607 l 579 469 q 432 600 546 600 q 326 558 367 600 q 274 439 285 517 l 457 439 l 457 306 l 274 306 q 326 185 285 228 q 432 143 367 143 q 578 269 544 143 l 796 269 q 669 58 765 133 q 432 -17 572 -17 z "},"э":{"ha":851,"x_min":54,"x_max":797,"o":"m 419 -17 q 183 58 279 -17 q 56 269 86 133 l 274 269 q 419 143 307 143 q 526 185 485 143 q 578 306 567 228 l 394 306 l 394 439 l 578 439 q 526 558 567 517 q 419 600 485 600 q 272 469 306 600 l 54 469 q 181 684 83 607 q 419 761 278 761 q 619 713 533 761 q 751 577 704 664 q 797 372 797 490 q 751 167 797 254 q 619 31 704 79 q 419 -17 533 -17 z "},"і":{"ha":390,"x_min":88,"x_max":303,"o":"m 92 0 l 92 744 l 300 744 l 300 0 l 92 0 m 88 836 l 88 1003 l 303 1003 l 303 836 l 88 836 z "},"ї":{"ha":390,"x_min":-53,"x_max":444,"o":"m 92 0 l 92 744 l 300 744 l 300 0 l 92 0 m -53 832 l -53 1000 l 146 1000 l 146 832 l -53 832 m 244 832 l 244 1000 l 444 1000 l 444 832 l 244 832 z "},"ј":{"ha":460,"x_min":-4,"x_max":374,"o":"m -4 -208 l -4 -53 l 78 -53 q 139 -36 118 -53 q 160 31 160 -19 l 160 744 l 369 744 l 369 25 q 313 -154 369 -100 q 121 -208 257 -208 l -4 -208 m 158 836 l 158 1003 l 374 1003 l 374 836 l 158 836 z "},"ћ":{"ha":849,"x_min":-3,"x_max":757,"o":"m 92 0 l 92 986 l 300 986 l 300 653 q 385 735 331 708 q 506 761 439 761 q 694 682 631 761 q 757 479 757 603 l 757 0 l 549 0 l 549 429 q 522 554 549 513 q 436 596 496 596 q 336 552 372 596 q 300 424 300 508 l 300 0 l 92 0 m -3 800 l -3 921 l 481 921 l 481 800 l -3 800 z "},"ю":{"ha":1201,"x_min":92,"x_max":1147,"o":"m 92 0 l 92 744 l 300 744 l 300 450 l 397 450 q 519 677 419 593 q 769 761 618 761 q 969 713 883 761 q 1101 577 1054 664 q 1147 372 1147 490 q 1101 167 1147 254 q 969 31 1054 79 q 769 -17 883 -17 q 519 67 618 -17 q 397 294 419 151 l 300 294 l 300 0 l 92 0 m 769 143 q 890 203 847 143 q 933 372 933 264 q 890 541 933 481 q 769 601 847 601 q 649 541 692 601 q 606 372 606 481 q 649 203 606 264 q 769 143 692 143 z "},"я":{"ha":868,"x_min":92,"x_max":776,"o":"m 92 0 l 267 300 q 158 386 197 333 q 119 508 119 439 q 203 685 119 625 q 450 744 288 744 l 776 744 l 776 0 l 569 0 l 569 269 l 456 269 l 306 0 l 92 0 m 450 414 l 569 414 l 569 599 l 450 599 q 361 574 393 599 q 329 506 329 550 q 361 438 329 463 q 450 414 393 414 z "},"ђ":{"ha":906,"x_min":64,"x_max":814,"o":"m 149 0 l 149 808 l 64 808 l 64 925 l 149 925 l 149 997 l 357 997 l 357 925 l 510 925 l 510 808 l 357 808 l 357 649 q 444 735 389 710 q 567 761 500 761 q 748 683 682 761 q 814 479 814 604 l 814 39 q 754 -146 814 -83 q 568 -208 694 -208 l 479 -208 l 479 -53 l 526 -53 q 584 -28 563 -53 q 606 39 606 -3 l 606 404 q 581 543 606 496 q 492 590 556 590 q 392 542 426 590 q 357 404 357 494 l 357 0 l 149 0 z "},"ѣ":{"ha":965,"x_min":64,"x_max":913,"o":"m 207 0 l 207 739 l 64 739 l 64 863 l 207 863 l 207 997 l 415 997 l 415 863 l 558 863 l 558 739 l 415 739 l 415 504 l 565 504 q 822 438 732 504 q 913 249 913 371 q 822 64 913 128 q 565 0 732 0 l 207 0 m 415 144 l 549 144 q 658 171 619 144 q 697 249 697 197 q 658 328 697 300 q 549 356 619 356 l 415 356 l 415 144 z "},"ѫ":{"ha":1050,"x_min":64,"x_max":986,"o":"m 64 0 l 169 275 q 233 356 189 325 q 335 393 278 388 l 132 594 l 132 744 l 919 744 l 919 594 l 717 393 q 818 356 774 386 q 881 275 863 325 l 986 0 l 781 0 l 707 231 q 677 280 696 267 q 622 293 658 293 l 622 0 l 429 0 l 429 293 q 373 279 392 293 q 343 231 354 265 l 271 0 l 64 0 m 329 594 l 526 400 l 722 594 l 329 594 z "},"ѳ":{"ha":864,"x_min":54,"x_max":810,"o":"m 432 -17 q 233 31 318 -17 q 101 167 147 79 q 54 372 54 254 q 101 577 54 490 q 233 713 147 664 q 432 761 318 761 q 631 713 546 761 q 763 577 715 664 q 810 372 810 490 q 763 167 810 254 q 631 31 715 79 q 432 -17 546 -17 m 418 451 q 500 419 469 429 q 551 408 531 410 q 592 411 571 407 l 593 411 q 544 551 586 501 q 432 601 503 601 q 337 569 375 601 q 282 478 299 536 q 418 451 343 485 m 432 143 q 579 257 542 143 q 519 267 554 257 q 426 300 483 276 q 351 324 383 318 q 290 325 318 329 q 271 319 281 324 q 322 189 281 235 q 432 143 364 143 z "},"ѵ":{"ha":892,"x_min":29,"x_max":863,"o":"m 301 0 l 29 744 l 244 744 l 424 208 l 532 536 q 636 692 565 639 q 803 744 707 744 l 863 744 l 863 589 l 849 589 q 724 492 760 589 l 544 0 l 301 0 z "},"җ":{"ha":1401,"x_min":64,"x_max":1338,"o":"m 64 0 l 365 372 l 78 744 l 335 744 l 586 406 l 586 744 l 794 744 l 794 408 l 1043 744 l 1300 744 l 1011 372 l 1229 104 l 1338 104 l 1338 -211 l 1129 -211 l 1129 0 l 1057 0 l 794 338 l 794 0 l 586 0 l 586 340 l 321 0 l 64 0 z "},"қ":{"ha":944,"x_min":92,"x_max":882,"o":"m 92 0 l 92 744 l 301 744 l 301 388 l 579 744 l 825 744 l 529 372 l 754 104 l 882 104 l 882 -211 l 674 -211 l 674 0 l 593 0 l 301 358 l 301 0 l 92 0 z "},"ң":{"ha":961,"x_min":92,"x_max":871,"o":"m 92 0 l 92 746 l 300 746 l 300 449 l 536 449 l 536 744 l 744 744 l 744 104 l 871 104 l 871 -211 l 663 -211 l 663 0 l 536 0 l 536 293 l 300 293 l 300 0 l 92 0 z "},"ү":{"ha":846,"x_min":29,"x_max":817,"o":"m 319 0 l 29 744 l 244 744 l 424 217 l 603 744 l 817 744 l 528 0 l 528 -208 l 319 -208 l 319 0 z "},"ұ":{"ha":846,"x_min":29,"x_max":817,"o":"m 157 -78 l 157 78 l 289 78 l 29 744 l 244 744 l 424 217 l 603 744 l 817 744 l 557 78 l 689 78 l 689 -78 l 528 -78 l 528 -208 l 319 -208 l 319 -78 l 157 -78 z "},"ҳ":{"ha":963,"x_min":64,"x_max":899,"o":"m 64 0 l 329 378 l 72 744 l 293 744 l 451 506 l 607 744 l 832 744 l 575 376 l 767 104 l 899 104 l 899 -211 l 690 -211 l 690 0 l 618 0 l 456 253 l 290 0 l 64 0 z "},"ҷ":{"ha":1003,"x_min":92,"x_max":932,"o":"m 600 0 l 600 339 q 510 253 568 285 q 379 222 453 222 q 169 305 247 222 q 92 528 92 388 l 92 744 l 300 744 l 300 578 q 335 437 300 488 q 435 386 371 386 q 556 437 513 386 q 600 578 600 488 l 600 744 l 810 744 l 810 104 l 932 104 l 932 -208 l 724 -208 l 724 0 l 600 0 z "},"һ":{"ha":849,"x_min":92,"x_max":757,"o":"m 92 0 l 92 986 l 300 986 l 300 653 q 385 735 331 708 q 506 761 439 761 q 694 682 631 761 q 757 479 757 603 l 757 0 l 549 0 l 549 429 q 522 554 549 513 q 436 596 496 596 q 336 552 372 596 q 300 424 300 508 l 300 0 l 92 0 z "},"ӏ":{"ha":414,"x_min":103,"x_max":311,"o":"m 103 0 l 103 986 l 311 986 l 311 0 l 103 0 z "},"ә":{"ha":846,"x_min":54,"x_max":792,"o":"m 417 761 q 615 713 531 761 q 746 578 700 665 q 792 372 792 490 q 746 168 792 256 q 616 32 700 81 q 418 -17 532 -17 q 226 32 308 -17 q 99 171 144 81 q 54 386 54 261 l 54 428 l 576 428 q 529 560 574 517 q 413 603 485 603 q 274 513 304 603 l 64 525 q 188 699 94 636 q 417 761 282 761 m 576 300 l 267 300 q 313 178 271 218 q 418 138 354 138 q 526 180 483 138 q 576 300 568 222 z "},"ӣ":{"ha":828,"x_min":92,"x_max":736,"o":"m 92 0 l 92 744 l 300 744 l 300 304 l 542 744 l 736 744 l 736 0 l 528 0 l 528 428 l 292 0 l 92 0 m 207 843 l 207 996 l 622 996 l 622 843 l 207 843 z "},"ө":{"ha":864,"x_min":54,"x_max":810,"o":"m 432 -17 q 233 31 318 -17 q 101 167 147 79 q 54 372 54 254 q 101 577 54 490 q 233 713 147 664 q 432 761 318 761 q 631 713 546 761 q 763 577 715 664 q 810 372 810 490 q 763 167 810 254 q 631 31 715 79 q 432 -17 546 -17 m 432 601 q 329 562 369 601 q 275 450 289 522 l 589 450 q 535 562 575 522 q 432 601 494 601 m 432 143 q 535 183 494 143 q 589 294 575 222 l 275 294 q 329 183 289 222 q 432 143 369 143 z "},"ӯ":{"ha":815,"x_min":29,"x_max":786,"o":"m 154 -208 l 154 -53 l 253 -53 q 306 -42 289 -53 q 332 -6 322 -32 l 349 38 l 292 38 l 29 744 l 243 744 l 413 232 l 574 744 l 786 744 l 500 -71 q 427 -176 474 -144 q 296 -208 381 -208 l 154 -208 m 200 843 l 200 996 l 615 996 l 615 843 l 200 843 z "},"Λ":{"ha":1017,"x_min":35,"x_max":983,"o":"m 35 0 l 390 986 l 628 986 l 983 0 l 771 0 l 508 764 l 246 0 l 35 0 z "},"Ω":{"ha":1063,"x_min":57,"x_max":1006,"o":"m 58 0 l 58 178 l 263 174 q 114 315 171 219 q 57 546 57 411 q 115 783 57 678 q 279 948 172 888 q 531 1008 386 1008 q 783 948 676 1008 q 948 783 890 888 q 1006 546 1006 678 q 949 315 1006 411 q 800 174 892 219 l 1004 178 l 1004 0 l 589 0 l 589 178 q 692 225 646 181 q 764 343 738 269 q 790 506 790 417 q 722 743 790 656 q 531 831 653 831 q 341 743 410 831 q 272 506 272 656 q 299 343 272 417 q 371 225 325 269 q 474 178 417 181 l 474 0 l 58 0 z "},"λ":{"ha":904,"x_min":35,"x_max":869,"o":"m 35 0 l 336 692 l 317 740 q 278 810 297 788 q 218 832 260 832 l 146 832 l 146 986 l 278 986 q 419 937 368 986 q 510 789 469 888 l 729 244 q 765 176 749 199 q 819 154 782 154 l 869 154 l 869 0 l 763 -1 q 626 47 674 -1 q 536 197 578 94 l 438 440 l 249 0 l 35 0 z "},"π":{"ha":932,"x_min":57,"x_max":893,"o":"m 199 0 l 199 589 l 57 589 l 57 744 l 893 744 l 893 589 l 756 589 l 756 246 q 778 180 756 204 q 840 156 800 156 l 890 156 l 890 0 l 832 0 q 642 63 703 0 q 582 246 582 126 l 582 589 l 372 589 l 372 0 l 199 0 z "},"ℇ":{"ha":832,"x_min":50,"x_max":782,"o":"m 411 -22 q 222 16 303 -22 q 95 122 140 54 q 50 276 50 189 q 105 438 50 372 q 261 528 160 503 q 130 610 176 553 q 83 749 83 667 q 124 883 83 825 q 239 975 165 942 q 411 1008 313 1008 q 599 969 508 1008 q 754 861 690 931 l 646 728 q 541 820 603 785 q 422 856 479 856 q 304 822 349 856 q 260 732 260 788 q 284 652 260 683 q 345 606 308 621 q 422 592 382 590 l 485 593 l 485 444 l 422 446 q 279 406 332 449 q 226 290 226 364 q 279 175 226 219 q 422 131 332 131 q 556 168 486 131 q 681 272 626 206 l 782 136 q 688 52 746 88 q 558 -3 629 17 q 411 -22 486 -22 z "},"⓿":{"ha":1132,"x_min":54,"x_max":1079,"o":"m 567 -17 q 367 23 460 -17 q 203 133 274 63 q 94 297 133 204 q 54 497 54 390 q 94 695 54 603 q 203 858 133 788 q 367 969 274 929 q 567 1008 460 1008 q 765 969 672 1008 q 928 858 858 929 q 1039 695 999 788 q 1079 497 1079 603 q 1039 297 1079 390 q 928 133 999 204 q 765 23 858 63 q 567 -17 672 -17 m 567 211 q 742 285 678 211 q 807 492 807 360 q 743 697 807 624 q 567 771 679 771 q 389 697 453 771 q 325 492 325 624 q 390 285 325 360 q 567 211 454 211 m 472 408 q 463 492 463 443 q 488 622 463 581 q 567 664 513 664 q 617 650 596 664 l 472 408 m 567 318 q 517 333 538 318 l 661 575 q 671 492 671 540 q 567 318 671 318 z "},"❶":{"ha":1132,"x_min":54,"x_max":1079,"o":"m 567 -17 q 367 23 460 -17 q 203 133 274 63 q 94 297 133 204 q 54 497 54 390 q 94 695 54 603 q 203 858 133 788 q 367 969 274 929 q 567 1008 460 1008 q 765 969 672 1008 q 928 858 858 929 q 1039 695 999 788 q 1079 497 1079 603 q 1039 297 1079 390 q 928 133 999 204 q 765 23 858 63 q 567 -17 672 -17 m 529 222 l 665 222 l 665 760 l 553 760 q 520 667 553 701 q 424 633 488 633 l 385 633 l 385 531 l 529 532 l 529 222 z "},"❷":{"ha":1132,"x_min":54,"x_max":1079,"o":"m 567 -17 q 367 23 460 -17 q 203 133 274 63 q 94 297 133 204 q 54 497 54 390 q 94 695 54 603 q 203 858 133 788 q 367 969 274 929 q 567 1008 460 1008 q 765 969 672 1008 q 928 858 858 929 q 1039 695 999 788 q 1079 497 1079 603 q 1039 297 1079 390 q 928 133 999 204 q 765 23 858 63 q 567 -17 672 -17 m 374 222 l 772 222 l 772 338 l 515 338 q 529 369 515 353 q 581 404 543 386 l 643 435 q 738 504 706 465 q 771 607 771 543 q 723 725 771 679 q 575 771 675 771 q 431 725 485 771 q 368 593 378 679 l 493 586 q 519 647 499 629 q 576 665 539 665 q 628 648 610 665 q 646 604 646 631 q 633 558 646 574 q 585 526 619 543 l 519 493 q 428 429 460 464 q 385 346 396 394 q 374 222 374 297 z "},"❸":{"ha":1132,"x_min":54,"x_max":1079,"o":"m 567 -17 q 367 23 460 -17 q 203 133 274 63 q 94 297 133 204 q 54 497 54 390 q 94 695 54 603 q 203 858 133 788 q 367 969 274 929 q 567 1008 460 1008 q 765 969 672 1008 q 928 858 858 929 q 1039 695 999 788 q 1079 497 1079 603 q 1039 297 1079 390 q 928 133 999 204 q 765 23 858 63 q 567 -17 672 -17 m 571 211 q 737 257 682 211 q 792 375 792 303 q 763 459 792 426 q 668 504 733 492 q 769 626 769 529 q 722 731 769 690 q 564 771 674 771 q 413 730 463 771 q 354 613 363 689 l 489 606 q 564 665 494 665 q 619 648 603 665 q 636 601 636 631 q 617 560 636 575 q 565 544 597 544 l 522 544 l 522 450 l 565 450 q 633 432 611 450 q 656 383 656 414 q 633 334 656 351 q 571 317 610 317 q 508 333 529 317 q 485 375 488 349 l 349 369 q 401 251 356 290 q 571 211 447 211 z "},"❹":{"ha":1132,"x_min":54,"x_max":1079,"o":"m 567 -17 q 367 23 460 -17 q 203 133 274 63 q 94 297 133 204 q 54 497 54 390 q 94 695 54 603 q 203 858 133 788 q 367 969 274 929 q 567 1008 460 1008 q 765 969 672 1008 q 928 858 858 929 q 1039 695 999 788 q 1079 497 1079 603 q 1039 297 1079 390 q 928 133 999 204 q 765 23 858 63 q 567 -17 672 -17 m 569 222 l 706 222 l 706 328 l 774 328 l 774 435 l 706 435 l 706 760 l 557 760 l 315 426 l 315 328 l 569 328 l 569 222 m 444 435 l 569 596 l 569 435 l 444 435 z "},"❺":{"ha":1132,"x_min":54,"x_max":1079,"o":"m 567 -17 q 367 23 460 -17 q 203 133 274 63 q 94 297 133 204 q 54 497 54 390 q 94 695 54 603 q 203 858 133 788 q 367 969 274 929 q 567 1008 460 1008 q 765 969 672 1008 q 928 858 858 929 q 1039 695 999 788 q 1079 497 1079 603 q 1039 297 1079 390 q 928 133 999 204 q 765 23 858 63 q 567 -17 672 -17 m 568 211 q 730 263 674 211 q 786 403 786 315 q 742 531 786 483 q 606 579 697 579 q 546 571 571 579 q 506 547 521 563 l 519 653 l 753 653 l 753 760 l 404 760 l 364 443 l 492 443 q 522 475 503 463 q 574 488 540 488 q 630 465 610 488 q 650 403 650 442 q 630 341 650 365 q 567 317 610 317 q 489 369 500 317 l 354 363 q 411 251 360 292 q 568 211 463 211 z "},"❻":{"ha":1132,"x_min":54,"x_max":1079,"o":"m 567 -17 q 367 23 460 -17 q 203 133 274 63 q 94 297 133 204 q 54 497 54 390 q 94 695 54 603 q 203 858 133 788 q 367 969 274 929 q 567 1008 460 1008 q 765 969 672 1008 q 928 858 858 929 q 1039 695 999 788 q 1079 497 1079 603 q 1039 297 1079 390 q 928 133 999 204 q 765 23 858 63 q 567 -17 672 -17 m 571 211 q 731 262 671 211 q 792 401 792 313 q 738 540 792 493 q 594 588 685 588 q 523 574 551 588 q 479 540 494 560 q 589 668 490 668 q 668 619 658 668 l 792 635 q 593 771 764 771 q 406 688 467 771 q 346 469 346 604 q 406 275 346 339 q 571 211 465 211 m 574 317 q 508 341 533 317 q 485 406 483 365 q 510 469 486 446 q 574 492 535 492 q 641 469 617 492 q 665 404 665 447 q 640 340 665 364 q 574 317 615 317 z "},"❼":{"ha":1132,"x_min":54,"x_max":1079,"o":"m 567 -17 q 367 23 460 -17 q 203 133 274 63 q 94 297 133 204 q 54 497 54 390 q 94 695 54 603 q 203 858 133 788 q 367 969 274 929 q 567 1008 460 1008 q 765 969 672 1008 q 928 858 858 929 q 1039 695 999 788 q 1079 497 1079 603 q 1039 297 1079 390 q 928 133 999 204 q 765 23 858 63 q 567 -17 672 -17 m 472 222 l 608 222 q 647 460 608 358 q 765 658 685 561 l 765 761 l 382 761 l 382 646 l 625 646 q 513 446 554 556 q 472 222 472 336 z "},"❽":{"ha":1132,"x_min":54,"x_max":1079,"o":"m 567 -17 q 367 23 460 -17 q 203 133 274 63 q 94 297 133 204 q 54 497 54 390 q 94 695 54 603 q 203 858 133 788 q 367 969 274 929 q 567 1008 460 1008 q 765 969 672 1008 q 928 858 858 929 q 1039 695 999 788 q 1079 497 1079 603 q 1039 297 1079 390 q 928 133 999 204 q 765 23 858 63 q 567 -17 672 -17 m 571 211 q 744 253 692 211 q 797 365 797 294 q 672 513 797 472 q 747 554 721 526 q 774 633 774 582 q 726 735 774 699 q 571 771 679 771 q 415 735 463 771 q 368 633 368 699 q 394 554 368 582 q 469 513 421 526 q 344 365 344 475 q 397 253 344 294 q 571 211 450 211 m 571 551 q 519 565 539 551 q 500 610 500 579 q 571 665 500 665 q 642 610 642 665 q 622 565 642 579 q 571 551 603 551 m 571 317 q 481 386 481 317 q 503 440 481 418 q 571 463 526 463 q 638 440 615 463 q 661 386 661 418 q 571 317 661 317 z "},"❾":{"ha":1132,"x_min":54,"x_max":1079,"o":"m 567 -17 q 367 23 460 -17 q 203 133 274 63 q 94 297 133 204 q 54 497 54 390 q 94 695 54 603 q 203 858 133 788 q 367 969 274 929 q 567 1008 460 1008 q 765 969 672 1008 q 928 858 858 929 q 1039 695 999 788 q 1079 497 1079 603 q 1039 297 1079 390 q 928 133 999 204 q 765 23 858 63 q 567 -17 672 -17 m 574 771 q 412 720 472 771 q 351 581 351 669 q 405 442 351 489 q 549 394 458 394 q 621 409 592 394 q 664 442 650 424 q 554 314 653 314 q 475 363 485 314 l 353 347 q 550 211 379 211 q 737 294 676 211 q 797 513 797 378 q 738 708 797 644 q 574 771 678 771 m 569 665 q 635 641 610 665 q 658 576 660 617 q 633 513 658 536 q 569 490 608 490 q 502 513 526 490 q 478 578 478 535 q 503 642 478 618 q 569 665 528 665 z "},"⓪":{"ha":1174,"x_min":54,"x_max":1119,"o":"m 586 -36 q 378 5 475 -36 q 209 119 282 46 q 95 290 136 193 q 54 497 54 386 q 95 703 54 607 q 209 873 136 800 q 378 987 282 946 q 586 1028 475 1028 q 793 987 696 1028 q 963 873 890 946 q 1078 703 1036 800 q 1119 497 1119 607 q 1078 290 1119 386 q 963 119 1036 193 q 793 5 890 46 q 586 -36 696 -36 m 586 81 q 748 113 672 81 q 881 203 824 146 q 969 335 938 260 q 1001 497 1001 411 q 969 658 1001 583 q 881 790 938 733 q 748 879 824 847 q 586 911 672 911 q 424 879 500 911 q 292 790 349 847 q 203 658 236 733 q 171 497 171 583 q 203 335 171 411 q 292 203 236 260 q 424 113 349 146 q 586 81 500 81 m 586 211 q 410 285 475 211 q 346 492 346 360 q 410 697 346 624 q 586 771 474 771 q 764 697 700 771 q 828 492 828 624 q 763 285 828 360 q 586 211 699 211 m 482 492 q 492 407 482 443 l 638 650 q 586 664 617 664 q 508 622 533 664 q 482 492 482 581 m 586 318 q 690 492 690 318 q 682 578 690 542 l 538 333 q 586 318 558 318 z "},"①":{"ha":1174,"x_min":54,"x_max":1119,"o":"m 586 -36 q 378 5 475 -36 q 209 119 282 46 q 95 290 136 193 q 54 497 54 386 q 95 703 54 607 q 209 873 136 800 q 378 987 282 946 q 586 1028 475 1028 q 793 987 696 1028 q 963 873 890 946 q 1078 703 1036 800 q 1119 497 1119 607 q 1078 290 1119 386 q 963 119 1036 193 q 793 5 890 46 q 586 -36 696 -36 m 586 81 q 748 113 672 81 q 881 203 824 146 q 969 335 938 260 q 1001 497 1001 411 q 969 658 1001 583 q 881 790 938 733 q 748 879 824 847 q 586 911 672 911 q 424 879 500 911 q 292 790 349 847 q 203 658 236 733 q 171 497 171 583 q 203 335 171 411 q 292 203 236 260 q 424 113 349 146 q 586 81 500 81 m 544 222 l 544 532 l 401 531 l 401 633 l 440 633 q 536 667 503 633 q 569 760 569 701 l 682 760 l 682 222 l 544 222 z "},"②":{"ha":1174,"x_min":54,"x_max":1119,"o":"m 586 -36 q 378 5 475 -36 q 209 119 282 46 q 95 290 136 193 q 54 497 54 386 q 95 703 54 607 q 209 873 136 800 q 378 987 282 946 q 586 1028 475 1028 q 793 987 696 1028 q 963 873 890 946 q 1078 703 1036 800 q 1119 497 1119 607 q 1078 290 1119 386 q 963 119 1036 193 q 793 5 890 46 q 586 -36 696 -36 m 586 81 q 748 113 672 81 q 881 203 824 146 q 969 335 938 260 q 1001 497 1001 411 q 969 658 1001 583 q 881 790 938 733 q 748 879 824 847 q 586 911 672 911 q 424 879 500 911 q 292 790 349 847 q 203 658 236 733 q 171 497 171 583 q 203 335 171 411 q 292 203 236 260 q 424 113 349 146 q 586 81 500 81 m 388 222 q 399 346 388 297 q 442 429 410 394 q 533 493 474 464 l 599 526 q 647 558 633 543 q 660 604 660 574 q 642 648 660 631 q 590 665 624 665 q 533 647 553 665 q 507 586 513 629 l 382 593 q 445 725 392 679 q 589 771 499 771 q 737 725 689 771 q 785 607 785 679 q 752 504 785 543 q 657 435 719 465 l 594 404 q 543 369 557 386 q 529 338 529 353 l 786 338 l 786 222 l 388 222 z "},"③":{"ha":1174,"x_min":54,"x_max":1119,"o":"m 586 -36 q 378 5 475 -36 q 209 119 282 46 q 95 290 136 193 q 54 497 54 386 q 95 703 54 607 q 209 873 136 800 q 378 987 282 946 q 586 1028 475 1028 q 793 987 696 1028 q 963 873 890 946 q 1078 703 1036 800 q 1119 497 1119 607 q 1078 290 1119 386 q 963 119 1036 193 q 793 5 890 46 q 586 -36 696 -36 m 586 81 q 748 113 672 81 q 881 203 824 146 q 969 335 938 260 q 1001 497 1001 411 q 969 658 1001 583 q 881 790 938 733 q 748 879 824 847 q 586 911 672 911 q 424 879 500 911 q 292 790 349 847 q 203 658 236 733 q 171 497 171 583 q 203 335 171 411 q 292 203 236 260 q 424 113 349 146 q 586 81 500 81 m 588 211 q 417 251 464 211 q 365 369 371 290 l 501 375 q 524 333 503 349 q 588 317 544 317 q 649 334 626 317 q 672 383 672 351 q 650 432 672 414 q 582 450 628 450 l 539 450 l 539 544 l 582 544 q 633 560 614 544 q 651 601 651 575 q 635 648 651 631 q 581 665 619 665 q 506 606 511 665 l 371 613 q 429 730 379 689 q 581 771 479 771 q 738 731 690 771 q 786 626 786 690 q 685 504 786 529 q 779 459 750 492 q 808 375 808 426 q 753 257 808 303 q 588 211 699 211 z "},"④":{"ha":1174,"x_min":54,"x_max":1119,"o":"m 586 -36 q 378 5 475 -36 q 209 119 282 46 q 95 290 136 193 q 54 497 54 386 q 95 703 54 607 q 209 873 136 800 q 378 987 282 946 q 586 1028 475 1028 q 793 987 696 1028 q 963 873 890 946 q 1078 703 1036 800 q 1119 497 1119 607 q 1078 290 1119 386 q 963 119 1036 193 q 793 5 890 46 q 586 -36 696 -36 m 586 81 q 748 113 672 81 q 881 203 824 146 q 969 335 938 260 q 1001 497 1001 411 q 969 658 1001 583 q 881 790 938 733 q 748 879 824 847 q 586 911 672 911 q 424 879 500 911 q 292 790 349 847 q 203 658 236 733 q 171 497 171 583 q 203 335 171 411 q 292 203 236 260 q 424 113 349 146 q 586 81 500 81 m 583 222 l 583 328 l 331 328 l 331 426 l 571 760 l 721 760 l 721 435 l 789 435 l 789 328 l 721 328 l 721 222 l 583 222 m 460 435 l 583 435 l 583 596 l 460 435 z "},"⑤":{"ha":1174,"x_min":54,"x_max":1119,"o":"m 586 -36 q 378 5 475 -36 q 209 119 282 46 q 95 290 136 193 q 54 497 54 386 q 95 703 54 607 q 209 873 136 800 q 378 987 282 946 q 586 1028 475 1028 q 793 987 696 1028 q 963 873 890 946 q 1078 703 1036 800 q 1119 497 1119 607 q 1078 290 1119 386 q 963 119 1036 193 q 793 5 890 46 q 586 -36 696 -36 m 586 81 q 748 113 672 81 q 881 203 824 146 q 969 335 938 260 q 1001 497 1001 411 q 969 658 1001 583 q 881 790 938 733 q 748 879 824 847 q 586 911 672 911 q 424 879 500 911 q 292 790 349 847 q 203 658 236 733 q 171 497 171 583 q 203 335 171 411 q 292 203 236 260 q 424 113 349 146 q 586 81 500 81 m 585 211 q 429 251 481 211 q 371 363 378 292 l 507 369 q 585 317 517 317 q 647 341 628 317 q 667 403 667 365 q 647 465 667 442 q 590 488 626 488 q 539 475 557 488 q 508 443 521 463 l 381 443 l 422 760 l 769 760 l 769 653 l 536 653 l 524 547 q 563 571 539 563 q 624 579 588 579 q 758 531 714 579 q 803 403 803 483 q 747 263 803 315 q 585 211 690 211 z "},"⑥":{"ha":1174,"x_min":54,"x_max":1119,"o":"m 586 -36 q 378 5 475 -36 q 209 119 282 46 q 95 290 136 193 q 54 497 54 386 q 95 703 54 607 q 209 873 136 800 q 378 987 282 946 q 586 1028 475 1028 q 793 987 696 1028 q 963 873 890 946 q 1078 703 1036 800 q 1119 497 1119 607 q 1078 290 1119 386 q 963 119 1036 193 q 793 5 890 46 q 586 -36 696 -36 m 586 81 q 748 113 672 81 q 881 203 824 146 q 969 335 938 260 q 1001 497 1001 411 q 969 658 1001 583 q 881 790 938 733 q 748 879 824 847 q 586 911 672 911 q 424 879 500 911 q 292 790 349 847 q 203 658 236 733 q 171 497 171 583 q 203 335 171 411 q 292 203 236 260 q 424 113 349 146 q 586 81 500 81 m 586 211 q 422 275 482 211 q 363 469 363 339 q 423 688 363 604 q 610 771 483 771 q 807 635 781 771 l 685 619 q 606 668 675 668 q 496 540 507 668 q 540 574 511 560 q 611 588 568 588 q 755 540 701 588 q 808 401 808 493 q 748 262 808 313 q 586 211 688 211 m 590 317 q 657 340 632 317 q 682 404 682 364 q 658 469 682 447 q 590 492 633 492 q 526 469 551 492 q 501 406 501 446 q 525 341 500 365 q 590 317 550 317 z "},"⑦":{"ha":1174,"x_min":54,"x_max":1119,"o":"m 586 -36 q 378 5 475 -36 q 209 119 282 46 q 95 290 136 193 q 54 497 54 386 q 95 703 54 607 q 209 873 136 800 q 378 987 282 946 q 586 1028 475 1028 q 793 987 696 1028 q 963 873 890 946 q 1078 703 1036 800 q 1119 497 1119 607 q 1078 290 1119 386 q 963 119 1036 193 q 793 5 890 46 q 586 -36 696 -36 m 586 81 q 748 113 672 81 q 881 203 824 146 q 969 335 938 260 q 1001 497 1001 411 q 969 658 1001 583 q 881 790 938 733 q 748 879 824 847 q 586 911 672 911 q 424 879 500 911 q 292 790 349 847 q 203 658 236 733 q 171 497 171 583 q 203 335 171 411 q 292 203 236 260 q 424 113 349 146 q 586 81 500 81 m 489 222 q 530 446 489 336 q 642 646 571 556 l 399 646 l 399 761 l 782 761 l 782 658 q 663 460 701 561 q 625 222 625 358 l 489 222 z "},"⑧":{"ha":1174,"x_min":54,"x_max":1119,"o":"m 586 -36 q 378 5 475 -36 q 209 119 282 46 q 95 290 136 193 q 54 497 54 386 q 95 703 54 607 q 209 873 136 800 q 378 987 282 946 q 586 1028 475 1028 q 793 987 696 1028 q 963 873 890 946 q 1078 703 1036 800 q 1119 497 1119 607 q 1078 290 1119 386 q 963 119 1036 193 q 793 5 890 46 q 586 -36 696 -36 m 586 81 q 748 113 672 81 q 881 203 824 146 q 969 335 938 260 q 1001 497 1001 411 q 969 658 1001 583 q 881 790 938 733 q 748 879 824 847 q 586 911 672 911 q 424 879 500 911 q 292 790 349 847 q 203 658 236 733 q 171 497 171 583 q 203 335 171 411 q 292 203 236 260 q 424 113 349 146 q 586 81 500 81 m 588 211 q 414 253 467 211 q 361 365 361 294 q 486 513 361 475 q 411 554 438 526 q 385 633 385 582 q 432 735 385 699 q 588 771 479 771 q 743 735 696 771 q 790 633 790 699 q 764 554 790 582 q 689 513 738 526 q 814 365 814 472 q 761 253 814 294 q 588 211 708 211 m 588 551 q 639 565 619 551 q 658 610 658 579 q 588 665 658 665 q 517 610 517 665 q 536 565 517 579 q 588 551 556 551 m 588 317 q 678 386 678 317 q 655 440 678 418 q 588 463 632 463 q 520 440 543 463 q 497 386 497 418 q 588 317 497 317 z "},"⑨":{"ha":1174,"x_min":54,"x_max":1119,"o":"m 586 -36 q 378 5 475 -36 q 209 119 282 46 q 95 290 136 193 q 54 497 54 386 q 95 703 54 607 q 209 873 136 800 q 378 987 282 946 q 586 1028 475 1028 q 793 987 696 1028 q 963 873 890 946 q 1078 703 1036 800 q 1119 497 1119 607 q 1078 290 1119 386 q 963 119 1036 193 q 793 5 890 46 q 586 -36 696 -36 m 586 81 q 748 113 672 81 q 881 203 824 146 q 969 335 938 260 q 1001 497 1001 411 q 969 658 1001 583 q 881 790 938 733 q 748 879 824 847 q 586 911 672 911 q 424 879 500 911 q 292 790 349 847 q 203 658 236 733 q 171 497 171 583 q 203 335 171 411 q 292 203 236 260 q 424 113 349 146 q 586 81 500 81 m 593 771 q 758 708 699 771 q 818 513 818 644 q 758 294 818 378 q 571 211 697 211 q 372 347 400 211 l 496 363 q 575 314 506 314 q 685 442 674 314 q 641 409 669 424 q 569 394 613 394 q 426 442 479 394 q 372 581 372 489 q 433 720 372 669 q 593 771 493 771 m 590 665 q 524 642 549 665 q 499 578 499 618 q 523 513 499 535 q 590 490 547 490 q 653 513 629 490 q 679 576 678 536 q 656 641 681 617 q 590 665 631 665 z "},"⁄":{"ha":228,"x_min":-278,"x_max":506,"o":"m -278 0 l 378 986 l 506 986 l -150 0 l -278 0 z "},"½":{"ha":1175,"x_min":28,"x_max":1118,"o":"m 171 449 l 171 758 l 28 757 l 28 860 l 67 860 q 163 894 129 860 q 196 986 196 928 l 308 986 l 308 449 l 171 449 m 153 0 l 808 986 l 936 986 l 281 0 l 153 0 m 719 0 q 731 124 719 75 q 774 207 742 172 q 865 271 806 242 l 931 304 q 978 336 965 321 q 992 382 992 351 q 974 426 992 408 q 922 443 956 443 q 865 425 885 443 q 839 364 844 407 l 714 371 q 777 503 724 457 q 921 549 831 549 q 1069 503 1021 549 q 1117 385 1117 457 q 1084 282 1117 321 q 989 213 1051 243 l 926 182 q 875 147 889 164 q 861 115 861 131 l 1118 115 l 1118 0 l 719 0 z "},"⅓":{"ha":1171,"x_min":28,"x_max":1129,"o":"m 171 449 l 171 758 l 28 757 l 28 860 l 67 860 q 163 894 129 860 q 196 986 196 928 l 308 986 l 308 449 l 171 449 m 153 0 l 808 986 l 936 986 l 281 0 l 153 0 m 908 -11 q 738 28 785 -11 q 686 147 692 68 l 822 153 q 844 110 824 126 q 908 94 865 94 q 970 112 947 94 q 993 161 993 129 q 971 210 993 192 q 903 228 949 228 l 860 228 l 860 322 l 903 322 q 953 338 935 322 q 972 379 972 353 q 956 426 972 408 q 901 443 940 443 q 826 383 832 443 l 692 390 q 750 508 700 467 q 901 549 800 549 q 1059 508 1011 549 q 1107 404 1107 468 q 1006 282 1107 307 q 1100 237 1071 269 q 1129 153 1129 204 q 1074 35 1129 81 q 908 -11 1019 -11 z "},"⅔":{"ha":1257,"x_min":56,"x_max":1215,"o":"m 61 449 q 72 572 61 524 q 115 656 83 621 q 207 719 147 690 l 272 753 q 320 785 307 769 q 333 831 333 800 q 315 874 333 857 q 264 892 297 892 q 206 874 226 892 q 181 813 186 856 l 56 819 q 119 951 65 906 q 263 997 172 997 q 410 951 363 997 q 458 833 458 906 q 426 731 458 769 q 331 661 393 692 l 268 631 q 217 596 231 613 q 203 564 203 579 l 460 564 l 460 449 l 61 449 m 239 0 l 894 986 l 1022 986 l 367 0 l 239 0 m 994 -11 q 824 28 871 -11 q 772 147 778 68 l 908 153 q 931 110 910 126 q 994 94 951 94 q 1056 112 1033 94 q 1079 161 1079 129 q 1057 210 1079 192 q 989 228 1035 228 l 946 228 l 946 322 l 989 322 q 1040 338 1021 322 q 1058 379 1058 353 q 1042 426 1058 408 q 988 443 1026 443 q 913 383 918 443 l 778 390 q 836 508 786 467 q 988 549 886 549 q 1145 508 1097 549 q 1193 404 1193 468 q 1092 282 1193 307 q 1186 237 1157 269 q 1215 153 1215 204 q 1160 35 1215 81 q 994 -11 1106 -11 z "},"¼":{"ha":1097,"x_min":28,"x_max":1069,"o":"m 171 449 l 171 758 l 28 757 l 28 860 l 67 860 q 163 894 129 860 q 196 986 196 928 l 308 986 l 308 449 l 171 449 m 153 0 l 808 986 l 936 986 l 281 0 l 153 0 m 864 0 l 864 106 l 611 106 l 611 204 l 851 538 l 1001 538 l 1001 213 l 1069 213 l 1069 106 l 1001 106 l 1001 0 l 864 0 m 740 213 l 864 213 l 864 374 l 740 213 z "},"¾":{"ha":1179,"x_min":28,"x_max":1151,"o":"m 250 438 q 80 477 126 438 q 28 596 33 517 l 164 601 q 186 559 165 575 q 250 543 207 543 q 312 560 289 543 q 335 610 335 578 q 313 658 335 640 q 244 676 290 676 l 201 676 l 201 771 l 244 771 q 295 786 276 771 q 314 828 314 801 q 298 874 314 857 q 243 892 282 892 q 168 832 174 892 l 33 839 q 92 956 42 915 q 243 997 142 997 q 401 957 353 997 q 449 853 449 917 q 347 731 449 756 q 442 685 413 718 q 471 601 471 653 q 416 483 471 529 q 250 438 361 438 m 235 0 l 890 986 l 1018 986 l 363 0 l 235 0 m 946 0 l 946 106 l 693 106 l 693 204 l 933 538 l 1083 538 l 1083 213 l 1151 213 l 1151 106 l 1083 106 l 1083 0 l 946 0 m 822 213 l 946 213 l 946 374 l 822 213 z "},"⅕":{"ha":1188,"x_min":28,"x_max":1146,"o":"m 171 449 l 171 758 l 28 757 l 28 860 l 67 860 q 163 894 129 860 q 196 986 196 928 l 308 986 l 308 449 l 171 449 m 153 0 l 808 986 l 936 986 l 281 0 l 153 0 m 928 -11 q 772 29 824 -11 q 714 140 721 69 l 850 147 q 928 94 860 94 q 990 119 971 94 q 1010 181 1010 143 q 990 242 1010 219 q 933 265 969 265 q 882 253 900 265 q 851 221 864 240 l 724 221 l 765 538 l 1113 538 l 1113 431 l 879 431 l 867 325 q 906 349 882 340 q 967 357 931 357 q 1101 309 1057 357 q 1146 181 1146 261 q 1090 41 1146 93 q 928 -11 1033 -11 z "},"⅛":{"ha":1194,"x_min":28,"x_max":1153,"o":"m 171 449 l 171 758 l 28 757 l 28 860 l 67 860 q 163 894 129 860 q 196 986 196 928 l 308 986 l 308 449 l 171 449 m 153 0 l 808 986 l 936 986 l 281 0 l 153 0 m 926 -11 q 753 31 806 -11 q 700 143 700 72 q 825 290 700 253 q 750 332 776 304 q 724 411 724 360 q 771 513 724 476 q 926 549 818 549 q 1082 513 1035 549 q 1129 411 1129 476 q 1103 332 1129 360 q 1028 290 1076 304 q 1153 143 1153 250 q 1100 31 1153 72 q 926 -11 1047 -11 m 926 329 q 978 343 958 329 q 997 388 997 357 q 926 443 997 443 q 856 388 856 443 q 875 343 856 357 q 926 329 894 329 m 926 94 q 1017 164 1017 94 q 994 218 1017 196 q 926 240 971 240 q 859 218 882 240 q 836 164 836 196 q 926 94 836 94 z "},"⅜":{"ha":1276,"x_min":28,"x_max":1235,"o":"m 250 438 q 80 477 126 438 q 28 596 33 517 l 164 601 q 186 559 165 575 q 250 543 207 543 q 312 560 289 543 q 335 610 335 578 q 313 658 335 640 q 244 676 290 676 l 201 676 l 201 771 l 244 771 q 295 786 276 771 q 314 828 314 801 q 298 874 314 857 q 243 892 282 892 q 168 832 174 892 l 33 839 q 92 956 42 915 q 243 997 142 997 q 401 957 353 997 q 449 853 449 917 q 347 731 449 756 q 442 685 413 718 q 471 601 471 653 q 416 483 471 529 q 250 438 361 438 m 235 0 l 890 986 l 1018 986 l 363 0 l 235 0 m 1008 -11 q 835 31 888 -11 q 782 143 782 72 q 907 290 782 253 q 832 332 858 304 q 806 411 806 360 q 853 513 806 476 q 1008 549 900 549 q 1164 513 1117 549 q 1211 411 1211 476 q 1185 332 1211 360 q 1110 290 1158 304 q 1235 143 1235 250 q 1182 31 1235 72 q 1008 -11 1129 -11 m 1008 329 q 1060 343 1040 329 q 1079 388 1079 357 q 1008 443 1079 443 q 938 388 938 443 q 957 343 938 357 q 1008 329 976 329 m 1008 94 q 1099 164 1099 94 q 1076 218 1099 196 q 1008 240 1053 240 q 941 218 964 240 q 918 164 918 196 q 1008 94 918 94 z "},"⅝":{"ha":1293,"x_min":56,"x_max":1251,"o":"m 269 438 q 114 478 165 438 q 56 589 63 518 l 192 596 q 269 543 201 543 q 332 567 313 543 q 351 629 351 592 q 331 691 351 668 q 275 714 311 714 q 224 701 242 714 q 193 669 206 689 l 65 669 l 107 986 l 454 986 l 454 879 l 221 879 l 208 774 q 248 797 224 789 q 308 806 272 806 q 443 758 399 806 q 488 629 488 710 q 431 490 488 542 q 269 438 375 438 m 251 0 l 907 986 l 1035 986 l 379 0 l 251 0 m 1025 -11 q 851 31 904 -11 q 799 143 799 72 q 924 290 799 253 q 849 332 875 304 q 822 411 822 360 q 869 513 822 476 q 1025 549 917 549 q 1181 513 1133 549 q 1228 411 1228 476 q 1201 332 1228 360 q 1126 290 1175 304 q 1251 143 1251 250 q 1199 31 1251 72 q 1025 -11 1146 -11 m 1025 329 q 1076 343 1057 329 q 1096 388 1096 357 q 1025 443 1096 443 q 954 388 954 443 q 974 343 954 357 q 1025 329 993 329 m 1025 94 q 1115 164 1115 94 q 1092 218 1115 196 q 1025 240 1069 240 q 958 218 981 240 q 935 164 935 196 q 1025 94 935 94 z "},"⅞":{"ha":1161,"x_min":28,"x_max":1119,"o":"m 118 447 q 159 671 118 561 q 271 871 200 781 l 28 871 l 28 986 l 411 986 l 411 883 q 292 685 331 786 q 254 447 254 583 l 118 447 m 119 0 l 775 986 l 903 986 l 247 0 l 119 0 m 893 -11 q 719 31 772 -11 q 667 143 667 72 q 792 290 667 253 q 717 332 743 304 q 690 411 690 360 q 738 513 690 476 q 893 549 785 549 q 1049 513 1001 549 q 1096 411 1096 476 q 1069 332 1096 360 q 994 290 1043 304 q 1119 143 1119 250 q 1067 31 1119 72 q 893 -11 1014 -11 m 893 329 q 944 343 925 329 q 964 388 964 357 q 893 443 964 443 q 822 388 822 443 q 842 343 822 357 q 893 329 861 329 m 893 94 q 983 164 983 94 q 960 218 983 196 q 893 240 938 240 q 826 218 849 240 q 803 164 803 196 q 893 94 803 94 z "},"₀":{"ha":593,"x_min":56,"x_max":538,"o":"m 296 -150 q 120 -76 185 -150 q 56 131 56 -1 q 119 336 56 263 q 296 410 183 410 q 474 336 410 410 q 538 131 538 263 q 473 -76 538 -1 q 296 -150 408 -150 m 192 131 q 201 46 192 82 l 347 289 q 296 303 326 303 q 217 261 243 303 q 192 131 192 219 m 296 -43 q 400 131 400 -43 q 392 217 400 181 l 247 -28 q 296 -43 268 -43 z "},"₁":{"ha":392,"x_min":28,"x_max":308,"o":"m 171 -139 l 171 171 l 28 169 l 28 272 l 67 272 q 163 306 129 272 q 196 399 196 340 l 308 399 l 308 -139 l 171 -139 z "},"₂":{"ha":517,"x_min":56,"x_max":460,"o":"m 61 -139 q 72 -15 61 -64 q 115 68 83 33 q 207 132 147 103 l 272 165 q 320 197 307 182 q 333 243 333 213 q 315 287 333 269 q 264 304 297 304 q 206 286 226 304 q 181 225 186 268 l 56 232 q 119 364 65 318 q 263 410 172 410 q 410 364 363 410 q 458 246 458 318 q 426 143 458 182 q 331 74 393 104 l 268 43 q 217 8 231 25 q 203 -24 203 -8 l 460 -24 l 460 -139 l 61 -139 z "},"₃":{"ha":513,"x_min":28,"x_max":471,"o":"m 250 -150 q 80 -110 126 -150 q 28 8 33 -71 l 164 14 q 186 -28 165 -12 q 250 -44 207 -44 q 312 -27 289 -44 q 335 22 335 -10 q 313 71 335 53 q 244 89 290 89 l 201 89 l 201 183 l 244 183 q 295 199 276 183 q 314 240 314 214 q 298 287 314 269 q 243 304 282 304 q 168 244 174 304 l 33 251 q 92 369 42 328 q 243 410 142 410 q 401 369 353 410 q 449 265 449 329 q 347 143 449 168 q 442 98 413 131 q 471 14 471 65 q 416 -104 471 -58 q 250 -150 361 -150 z "},"₄":{"ha":500,"x_min":14,"x_max":472,"o":"m 267 -139 l 267 -33 l 14 -33 l 14 65 l 254 399 l 404 399 l 404 74 l 472 74 l 472 -33 l 404 -33 l 404 -139 l 267 -139 m 143 74 l 267 74 l 267 235 l 143 74 z "},"₅":{"ha":529,"x_min":56,"x_max":488,"o":"m 269 -150 q 114 -110 165 -150 q 56 1 63 -69 l 192 8 q 269 -44 201 -44 q 332 -20 313 -44 q 351 42 351 4 q 331 103 351 81 q 275 126 311 126 q 224 114 242 126 q 193 82 206 101 l 65 82 l 107 399 l 454 399 l 454 292 l 221 292 l 208 186 q 248 210 224 201 q 308 218 272 218 q 443 170 399 218 q 488 42 488 122 q 431 -98 488 -46 q 269 -150 375 -150 z "},"₆":{"ha":558,"x_min":56,"x_max":501,"o":"m 279 -150 q 115 -86 175 -150 q 56 108 56 -22 q 116 326 56 243 q 303 410 176 410 q 500 274 474 410 l 378 258 q 299 307 368 307 q 189 179 200 307 q 233 213 204 199 q 304 226 261 226 q 448 179 394 226 q 501 40 501 132 q 441 -99 501 -49 q 279 -150 381 -150 m 283 -44 q 350 -21 325 -44 q 375 43 375 3 q 351 108 375 86 q 283 131 326 131 q 219 108 244 131 q 194 44 194 85 q 218 -20 193 4 q 283 -44 243 -44 z "},"₇":{"ha":439,"x_min":28,"x_max":411,"o":"m 118 -139 q 159 85 118 -25 q 271 285 200 194 l 28 285 l 28 400 l 411 400 l 411 297 q 292 99 331 200 q 254 -139 254 -3 l 118 -139 z "},"₈":{"ha":536,"x_min":42,"x_max":494,"o":"m 268 -150 q 94 -108 147 -150 q 42 4 42 -67 q 167 151 42 114 q 92 193 118 165 q 65 272 65 221 q 113 374 65 338 q 268 410 160 410 q 424 374 376 410 q 471 272 471 338 q 444 193 471 221 q 369 151 418 165 q 494 4 494 111 q 442 -108 494 -67 q 268 -150 389 -150 m 268 190 q 319 204 300 190 q 339 249 339 218 q 268 304 339 304 q 197 249 197 304 q 217 204 197 218 q 268 190 236 190 m 268 -44 q 358 25 358 -44 q 335 79 358 57 q 268 101 313 101 q 201 79 224 101 q 178 25 178 57 q 268 -44 178 -44 z "},"₉":{"ha":558,"x_min":58,"x_max":503,"o":"m 279 410 q 444 347 385 410 q 503 151 503 283 q 443 -67 503 17 q 256 -150 383 -150 q 58 -14 86 -150 l 181 1 q 260 -47 192 -47 q 369 81 358 -47 q 327 48 356 63 q 254 33 299 33 q 111 81 164 33 q 58 219 58 128 q 119 359 58 308 q 279 410 179 410 m 276 304 q 209 281 233 304 q 185 217 185 257 q 209 151 185 174 q 275 129 233 129 q 339 152 314 129 q 365 215 364 175 q 342 280 367 256 q 276 304 317 304 z "},"⁰":{"ha":593,"x_min":56,"x_max":538,"o":"m 296 438 q 120 512 185 438 q 56 718 56 586 q 119 924 56 850 q 296 997 183 997 q 474 924 410 997 q 538 718 538 850 q 473 512 538 586 q 296 438 408 438 m 192 718 q 201 633 192 669 l 347 876 q 296 890 326 890 q 217 849 243 890 q 192 718 192 807 m 296 544 q 400 718 400 544 q 392 804 400 768 l 247 560 q 296 544 268 544 z "},"¹":{"ha":392,"x_min":28,"x_max":308,"o":"m 171 449 l 171 758 l 28 757 l 28 860 l 67 860 q 163 894 129 860 q 196 986 196 928 l 308 986 l 308 449 l 171 449 z "},"²":{"ha":517,"x_min":56,"x_max":460,"o":"m 61 449 q 72 572 61 524 q 115 656 83 621 q 207 719 147 690 l 272 753 q 320 785 307 769 q 333 831 333 800 q 315 874 333 857 q 264 892 297 892 q 206 874 226 892 q 181 813 186 856 l 56 819 q 119 951 65 906 q 263 997 172 997 q 410 951 363 997 q 458 833 458 906 q 426 731 458 769 q 331 661 393 692 l 268 631 q 217 596 231 613 q 203 564 203 579 l 460 564 l 460 449 l 61 449 z "},"³":{"ha":513,"x_min":28,"x_max":471,"o":"m 250 438 q 80 477 126 438 q 28 596 33 517 l 164 601 q 186 559 165 575 q 250 543 207 543 q 312 560 289 543 q 335 610 335 578 q 313 658 335 640 q 244 676 290 676 l 201 676 l 201 771 l 244 771 q 295 786 276 771 q 314 828 314 801 q 298 874 314 857 q 243 892 282 892 q 168 832 174 892 l 33 839 q 92 956 42 915 q 243 997 142 997 q 401 957 353 997 q 449 853 449 917 q 347 731 449 756 q 442 685 413 718 q 471 601 471 653 q 416 483 471 529 q 250 438 361 438 z "},"⁴":{"ha":500,"x_min":14,"x_max":472,"o":"m 267 449 l 267 554 l 14 554 l 14 653 l 254 986 l 404 986 l 404 661 l 472 661 l 472 554 l 404 554 l 404 449 l 267 449 m 143 661 l 267 661 l 267 822 l 143 661 z "},"⁵":{"ha":529,"x_min":56,"x_max":488,"o":"m 269 438 q 114 478 165 438 q 56 589 63 518 l 192 596 q 269 543 201 543 q 332 567 313 543 q 351 629 351 592 q 331 691 351 668 q 275 714 311 714 q 224 701 242 714 q 193 669 206 689 l 65 669 l 107 986 l 454 986 l 454 879 l 221 879 l 208 774 q 248 797 224 789 q 308 806 272 806 q 443 758 399 806 q 488 629 488 710 q 431 490 488 542 q 269 438 375 438 z "},"⁶":{"ha":558,"x_min":56,"x_max":501,"o":"m 279 438 q 115 501 175 438 q 56 696 56 565 q 116 914 56 831 q 303 997 176 997 q 500 861 474 997 l 378 846 q 299 894 368 894 q 189 767 200 894 q 233 800 204 786 q 304 814 261 814 q 448 767 394 814 q 501 628 501 719 q 441 488 501 539 q 279 438 381 438 m 283 543 q 350 567 325 543 q 375 631 375 590 q 351 696 375 674 q 283 718 326 718 q 219 695 244 718 q 194 632 194 672 q 218 567 193 592 q 283 543 243 543 z "},"⁷":{"ha":439,"x_min":28,"x_max":411,"o":"m 118 447 q 159 671 118 561 q 271 871 200 781 l 28 871 l 28 986 l 411 986 l 411 883 q 292 685 331 786 q 254 447 254 583 l 118 447 z "},"⁸":{"ha":536,"x_min":42,"x_max":494,"o":"m 268 438 q 94 479 147 438 q 42 592 42 521 q 167 739 42 701 q 92 781 118 753 q 65 860 65 808 q 113 961 65 925 q 268 997 160 997 q 424 961 376 997 q 471 860 471 925 q 444 781 471 808 q 369 739 418 753 q 494 592 494 699 q 442 479 494 521 q 268 438 389 438 m 268 778 q 319 792 300 778 q 339 836 339 806 q 268 892 339 892 q 197 836 197 892 q 217 792 197 806 q 268 778 236 778 m 268 543 q 358 613 358 543 q 335 667 358 644 q 268 689 313 689 q 201 667 224 689 q 178 613 178 644 q 268 543 178 543 z "},"⁹":{"ha":558,"x_min":58,"x_max":503,"o":"m 279 997 q 444 934 385 997 q 503 739 503 871 q 443 521 503 604 q 256 438 383 438 q 58 574 86 438 l 181 589 q 260 540 192 540 q 369 668 358 540 q 327 635 356 650 q 254 621 299 621 q 111 668 164 621 q 58 807 58 715 q 119 947 58 896 q 279 997 179 997 m 276 892 q 209 868 233 892 q 185 804 185 844 q 209 739 185 761 q 275 717 233 717 q 339 740 314 717 q 365 803 364 763 q 342 867 367 843 q 276 892 317 892 z "}," ":{"ha":317,"x_min":0,"x_max":0,"o":""}," ":{"ha":317,"x_min":0,"x_max":0,"o":""},".":{"ha":333,"x_min":54,"x_max":279,"o":"m 54 0 l 54 213 l 279 213 l 279 0 l 54 0 z "},",":{"ha":333,"x_min":54,"x_max":279,"o":"m 69 -219 l 144 0 l 54 0 l 54 213 l 279 213 l 279 22 l 183 -219 l 69 -219 z "},":":{"ha":432,"x_min":103,"x_max":328,"o":"m 103 0 l 103 213 l 328 213 l 328 0 l 103 0 m 103 494 l 103 707 l 328 707 l 328 494 l 103 494 z "},";":{"ha":432,"x_min":103,"x_max":328,"o":"m 103 494 l 103 707 l 328 707 l 328 494 l 103 494 m 118 -219 l 193 0 l 103 0 l 103 213 l 328 213 l 328 22 l 232 -219 l 118 -219 z "},"…":{"ha":971,"x_min":54,"x_max":917,"o":"m 54 0 l 54 213 l 279 213 l 279 0 l 54 0 m 372 0 l 372 213 l 597 213 l 597 0 l 372 0 m 692 0 l 692 213 l 917 213 l 917 0 l 692 0 z "},"!":{"ha":353,"x_min":64,"x_max":289,"o":"m 107 315 q 92 429 100 363 q 78 565 83 496 q 72 689 72 633 l 72 986 l 282 986 l 282 689 q 276 565 282 633 q 263 429 271 496 q 249 315 256 363 l 107 315 m 64 0 l 64 213 l 289 213 l 289 0 l 64 0 z "},"¡":{"ha":353,"x_min":64,"x_max":289,"o":"m 64 761 l 289 761 l 289 549 l 64 549 l 64 761 m 72 -225 l 72 72 q 78 197 72 128 q 92 332 83 265 q 107 446 100 399 l 249 446 q 263 332 256 399 q 276 197 271 265 q 282 72 282 128 l 282 -225 l 72 -225 z "},"?":{"ha":826,"x_min":54,"x_max":772,"o":"m 304 311 q 335 483 304 424 q 440 578 367 542 q 517 624 492 604 q 551 667 543 644 q 560 719 560 689 q 526 803 560 771 q 429 836 492 836 q 271 685 286 836 l 54 696 q 108 857 63 786 q 234 968 153 928 q 429 1008 315 1008 q 617 971 540 1008 q 733 868 694 933 q 772 719 772 803 q 756 618 772 660 q 701 543 739 576 q 601 475 664 510 q 530 411 550 444 q 510 311 510 378 l 304 311 m 294 0 l 294 213 l 521 213 l 521 0 l 294 0 z "},"¿":{"ha":826,"x_min":54,"x_max":772,"o":"m 532 783 l 532 571 l 306 571 l 306 783 l 532 783 m 397 -225 q 209 -187 286 -225 q 93 -85 132 -150 q 54 64 54 -19 q 71 165 54 124 q 125 240 88 207 q 225 308 163 274 q 297 373 276 339 q 317 472 317 407 l 522 472 q 491 301 522 361 q 386 206 460 242 q 310 159 335 179 q 276 117 285 139 q 267 64 267 94 q 301 -20 267 13 q 397 -53 335 -53 q 556 99 540 -53 l 772 88 q 719 -74 764 -3 q 592 -185 674 -144 q 397 -225 511 -225 z "},"·":{"ha":333,"x_min":54,"x_max":279,"o":"m 54 313 l 54 525 l 279 525 l 279 313 l 54 313 z "},"•":{"ha":507,"x_min":53,"x_max":457,"o":"m 256 224 q 109 280 165 224 q 53 421 53 336 q 109 563 53 507 q 256 618 165 618 q 401 563 344 618 q 457 421 457 507 q 401 280 457 336 q 256 224 344 224 z "},"*":{"ha":590,"x_min":54,"x_max":538,"o":"m 225 504 l 117 567 l 196 688 l 54 685 l 54 824 l 196 822 l 117 943 l 225 1004 l 296 879 l 368 1004 l 476 943 l 396 822 l 538 824 l 538 685 l 396 688 l 476 567 l 368 504 l 296 631 l 225 504 z "},"〃":{"ha":557,"x_min":54,"x_max":503,"o":"m 54 390 l 139 668 l 296 668 l 168 390 l 54 390 m 261 390 l 347 668 l 503 668 l 375 390 l 261 390 z "},"#":{"ha":818,"x_min":4,"x_max":810,"o":"m 69 0 l 106 226 l 4 226 l 28 393 l 131 393 l 160 585 l 57 585 l 81 750 l 185 750 l 222 986 l 413 986 l 376 750 l 518 750 l 554 986 l 744 986 l 708 750 l 810 750 l 786 585 l 683 585 l 653 393 l 758 393 l 735 226 l 628 226 l 593 0 l 403 0 l 438 226 l 294 226 l 260 0 l 69 0 m 321 393 l 463 393 l 493 585 l 350 585 l 321 393 z "},"/":{"ha":725,"x_min":44,"x_max":661,"o":"m 44 -153 l 456 1042 l 661 1042 l 250 -153 l 44 -153 z "},"\\":{"ha":722,"x_min":53,"x_max":671,"o":"m 671 -153 l 464 -153 l 53 1042 l 260 1042 l 671 -153 z "},"-":{"ha":585,"x_min":54,"x_max":531,"o":"m 54 319 l 54 490 l 531 490 l 531 319 l 54 319 z "},"–":{"ha":832,"x_min":54,"x_max":778,"o":"m 54 321 l 54 490 l 778 490 l 778 321 l 54 321 z "},"—":{"ha":1271,"x_min":54,"x_max":1217,"o":"m 54 321 l 54 490 l 1217 490 l 1217 321 l 54 321 z "},"_":{"ha":785,"x_min":54,"x_max":731,"o":"m 54 -168 l 54 0 l 731 0 l 731 -168 l 54 -168 z "},"〜":{"ha":1206,"x_min":54,"x_max":1153,"o":"m 831 254 q 743 264 781 254 q 667 292 706 274 q 575 339 628 311 q 478 383 525 367 q 381 399 431 399 q 265 368 321 399 q 149 279 210 338 l 54 414 q 171 508 118 472 q 275 558 224 543 q 385 574 326 574 q 496 555 438 574 q 621 500 554 536 q 705 458 671 474 q 767 436 739 443 q 831 429 796 429 q 901 440 868 429 q 970 475 933 450 q 1057 543 1007 500 l 1153 408 q 989 293 1071 332 q 831 254 907 254 z "},"(":{"ha":468,"x_min":57,"x_max":429,"o":"m 244 -153 q 57 444 57 142 q 244 1042 57 747 l 429 1042 q 261 444 261 743 q 429 -153 261 149 l 244 -153 z "},")":{"ha":468,"x_min":39,"x_max":413,"o":"m 224 -153 l 39 -153 q 207 444 207 149 q 39 1042 207 743 l 224 1042 q 413 444 413 747 q 224 -153 413 142 z "},"{":{"ha":586,"x_min":57,"x_max":547,"o":"m 461 -174 q 255 -100 328 -174 q 182 89 182 -26 l 182 204 q 151 324 182 290 q 57 358 121 358 l 57 522 q 151 555 121 521 q 182 676 182 589 l 182 792 q 255 980 182 907 q 461 1053 328 1053 l 547 1053 l 547 874 q 421 849 461 878 q 381 758 381 821 l 381 663 q 333 508 381 564 q 219 444 285 453 l 219 436 q 333 372 286 428 q 381 218 381 317 l 381 121 q 421 27 381 57 q 547 0 461 -3 l 547 -174 l 461 -174 z "},"}":{"ha":586,"x_min":39,"x_max":531,"o":"m 126 -174 l 39 -174 l 39 0 q 166 27 126 -3 q 206 121 206 57 l 206 218 q 253 372 206 317 q 367 436 301 428 l 367 444 q 254 508 303 453 q 206 663 206 564 l 206 758 q 166 849 206 821 q 39 874 126 878 l 39 1053 l 126 1053 q 331 980 258 1053 q 404 792 404 907 l 404 676 q 435 555 404 589 q 531 522 465 521 l 531 358 q 435 324 465 358 q 404 204 404 290 l 404 89 q 331 -100 404 -26 q 126 -174 258 -174 z "},"[":{"ha":564,"x_min":103,"x_max":525,"o":"m 525 -153 l 103 -153 l 103 1042 l 525 1042 l 525 878 l 303 878 l 303 11 l 525 11 l 525 -153 z "},"]":{"ha":564,"x_min":39,"x_max":461,"o":"m 39 -153 l 39 11 l 261 11 l 261 878 l 39 878 l 39 1042 l 461 1042 l 461 -153 l 39 -153 z "},"〈":{"ha":550,"x_min":54,"x_max":497,"o":"m 290 -158 l 54 492 l 290 1140 l 497 1140 l 261 492 l 497 -158 l 290 -158 z "},"〉":{"ha":550,"x_min":54,"x_max":497,"o":"m 260 -158 l 54 -158 l 289 492 l 54 1140 l 260 1140 l 497 492 l 260 -158 z "},"【":{"ha":500,"x_min":54,"x_max":447,"o":"m 447 -87 l 54 -87 l 54 1146 l 447 1146 q 268 529 268 847 q 447 -87 268 214 z "},"】":{"ha":500,"x_min":54,"x_max":447,"o":"m 54 -87 q 233 529 233 214 q 54 1146 233 847 l 447 1146 l 447 -87 l 54 -87 z "},"「":{"ha":533,"x_min":54,"x_max":479,"o":"m 54 325 l 54 1147 l 479 1147 l 479 1014 l 190 1014 l 190 325 l 54 325 z "},"」":{"ha":533,"x_min":54,"x_max":479,"o":"m 479 679 l 479 -143 l 54 -143 l 54 -10 l 343 -10 l 343 679 l 479 679 z "},"《":{"ha":881,"x_min":54,"x_max":828,"o":"m 290 -158 l 54 492 l 290 1140 l 497 1140 l 261 492 l 497 -158 l 290 -158 m 621 -158 l 385 492 l 621 1140 l 828 1140 l 592 492 l 828 -158 l 621 -158 z "},"》":{"ha":881,"x_min":54,"x_max":828,"o":"m 590 -158 l 383 -158 l 619 492 l 383 1140 l 590 1140 l 828 492 l 590 -158 m 260 -158 l 54 -158 l 289 492 l 54 1140 l 260 1140 l 497 492 l 260 -158 z "},"〔":{"ha":544,"x_min":54,"x_max":492,"o":"m 403 -203 l 54 111 l 54 871 l 400 1181 l 489 1083 l 190 817 l 190 165 l 492 -106 l 403 -203 z "},"〕":{"ha":544,"x_min":54,"x_max":492,"o":"m 143 -203 l 54 -106 l 356 165 l 356 817 l 57 1083 l 146 1181 l 492 871 l 492 111 l 143 -203 z "},"『":{"ha":528,"x_min":54,"x_max":475,"o":"m 54 324 l 54 1147 l 475 1147 l 475 925 l 276 925 l 276 324 l 54 324 m 115 385 l 214 385 l 214 986 l 413 986 l 413 1086 l 115 1086 l 115 385 z "},"』":{"ha":528,"x_min":54,"x_max":475,"o":"m 475 689 l 475 -135 l 54 -135 l 54 88 l 253 88 l 253 689 l 475 689 m 413 628 l 314 628 l 314 26 l 115 26 l 115 -74 l 413 -74 l 413 628 z "},"〖":{"ha":524,"x_min":54,"x_max":469,"o":"m 469 -87 l 54 -87 l 54 1146 l 469 1146 q 290 529 290 847 q 469 -87 290 214 m 340 -14 q 213 531 213 258 q 340 1072 213 804 l 133 1072 l 133 -14 l 340 -14 z "},"〗":{"ha":524,"x_min":54,"x_max":469,"o":"m 54 -87 q 233 529 233 214 q 54 1146 233 847 l 469 1146 l 469 -87 l 54 -87 m 183 -14 l 390 -14 l 390 1072 l 183 1072 q 311 531 311 804 q 183 -14 311 258 z "},"‚":{"ha":333,"x_min":54,"x_max":279,"o":"m 69 -219 l 144 0 l 54 0 l 54 213 l 279 213 l 279 22 l 183 -219 l 69 -219 z "},"„":{"ha":632,"x_min":54,"x_max":578,"o":"m 368 -226 l 443 -7 l 353 -7 l 353 206 l 578 206 l 578 15 l 482 -226 l 368 -226 m 69 -226 l 144 -7 l 54 -7 l 54 206 l 279 206 l 279 15 l 183 -226 l 69 -226 z "},"“":{"ha":638,"x_min":57,"x_max":582,"o":"m 267 1008 l 192 789 l 282 789 l 282 575 l 57 575 l 57 765 l 153 1008 l 267 1008 m 565 1008 l 490 789 l 582 789 l 582 575 l 356 575 l 356 765 l 453 1008 l 565 1008 z "},"”":{"ha":638,"x_min":57,"x_max":581,"o":"m 371 554 l 446 774 l 356 774 l 356 986 l 581 986 l 581 796 l 485 554 l 371 554 m 72 554 l 147 774 l 57 774 l 57 986 l 282 986 l 282 796 l 186 554 l 72 554 z "},"‘":{"ha":339,"x_min":57,"x_max":282,"o":"m 267 1008 l 192 789 l 282 789 l 282 575 l 57 575 l 57 765 l 153 1008 l 267 1008 z "},"’":{"ha":339,"x_min":57,"x_max":282,"o":"m 72 554 l 147 774 l 57 774 l 57 986 l 282 986 l 282 796 l 186 554 l 72 554 z "},"«":{"ha":900,"x_min":54,"x_max":847,"o":"m 481 106 l 249 106 l 54 333 l 54 433 l 249 661 l 481 661 l 243 383 l 481 106 m 847 106 l 614 106 l 419 333 l 419 433 l 614 661 l 847 661 l 610 383 l 847 106 z "},"»":{"ha":910,"x_min":65,"x_max":857,"o":"m 431 106 l 667 383 l 431 661 l 663 661 l 857 433 l 857 333 l 663 106 l 431 106 m 65 106 l 301 383 l 65 661 l 297 661 l 492 433 l 492 333 l 297 106 l 65 106 z "},"‹":{"ha":533,"x_min":54,"x_max":481,"o":"m 481 106 l 249 106 l 54 333 l 54 433 l 249 661 l 481 661 l 243 383 l 481 106 z "},"›":{"ha":533,"x_min":54,"x_max":481,"o":"m 54 106 l 290 383 l 54 661 l 286 661 l 481 433 l 481 333 l 286 106 l 54 106 z "},"\"":{"ha":539,"x_min":57,"x_max":482,"o":"m 86 599 l 57 869 l 57 986 l 222 986 l 213 599 l 86 599 m 326 599 l 317 986 l 482 986 l 482 869 l 453 599 l 326 599 z "},"'":{"ha":278,"x_min":57,"x_max":222,"o":"m 76 599 l 57 869 l 57 986 l 222 986 l 222 869 l 201 599 l 76 599 z "},"ƒ":{"ha":735,"x_min":64,"x_max":689,"o":"m 64 0 l 64 168 l 149 168 q 228 244 218 168 l 261 550 l 143 550 l 143 706 l 278 706 l 288 789 q 358 933 297 879 q 514 986 419 988 l 689 985 l 689 817 l 568 817 q 483 740 492 817 l 479 706 l 689 706 l 689 550 l 463 550 l 422 196 q 353 50 413 103 q 196 -1 293 -3 l 64 0 z "},"฿":{"ha":950,"x_min":103,"x_max":879,"o":"m 103 0 l 103 986 l 404 986 l 404 1118 l 513 1118 l 513 983 q 755 903 672 971 q 838 713 838 836 q 783 574 838 628 q 635 510 729 519 q 816 441 753 500 q 879 279 879 382 q 785 77 879 150 q 513 0 690 4 l 513 -126 l 404 -126 l 404 0 l 103 0 m 314 578 l 404 578 l 404 814 l 314 814 l 314 578 m 628 694 q 513 810 628 789 l 513 583 q 628 694 628 601 m 314 172 l 404 172 l 404 425 l 314 425 l 314 172 m 669 297 q 513 424 669 415 l 513 172 q 669 297 669 181 z "},"☹":{"ha":1174,"x_min":54,"x_max":1119,"o":"m 586 -36 q 378 5 475 -36 q 209 119 282 46 q 95 290 136 193 q 54 497 54 386 q 95 703 54 607 q 209 873 136 800 q 378 987 282 946 q 586 1028 475 1028 q 793 987 696 1028 q 963 873 890 946 q 1078 703 1036 800 q 1119 497 1119 607 q 1078 290 1119 386 q 963 119 1036 193 q 793 5 890 46 q 586 -36 696 -36 m 586 81 q 748 113 672 81 q 881 203 824 146 q 969 335 938 260 q 1001 497 1001 411 q 969 658 1001 583 q 881 790 938 733 q 748 879 824 847 q 586 911 672 911 q 424 879 500 911 q 292 790 349 847 q 203 658 236 733 q 171 497 171 583 q 203 335 171 411 q 292 203 236 260 q 424 113 349 146 q 586 81 500 81 m 456 564 q 401 586 424 564 q 379 640 379 608 q 401 692 379 671 q 456 714 424 714 q 507 692 485 714 q 529 640 529 671 q 507 586 529 608 q 456 564 485 564 m 726 564 q 672 586 694 564 q 650 640 650 608 q 672 692 650 671 q 726 714 694 714 q 778 692 757 714 q 800 640 800 671 q 778 586 800 608 q 726 564 757 564 m 319 294 q 417 453 344 393 q 589 513 489 513 q 764 453 692 513 q 860 294 836 393 l 743 294 q 684 376 724 347 q 589 406 644 406 q 495 376 535 406 q 436 294 456 347 l 319 294 z "},"☺":{"ha":1174,"x_min":54,"x_max":1119,"o":"m 586 -36 q 378 5 475 -36 q 209 119 282 46 q 95 290 136 193 q 54 497 54 386 q 95 703 54 607 q 209 873 136 800 q 378 987 282 946 q 586 1028 475 1028 q 793 987 696 1028 q 963 873 890 946 q 1078 703 1036 800 q 1119 497 1119 607 q 1078 290 1119 386 q 963 119 1036 193 q 793 5 890 46 q 586 -36 696 -36 m 586 81 q 748 113 672 81 q 881 203 824 146 q 969 335 938 260 q 1001 497 1001 411 q 969 658 1001 583 q 881 790 938 733 q 748 879 824 847 q 586 911 672 911 q 424 879 500 911 q 292 790 349 847 q 203 658 236 733 q 171 497 171 583 q 203 335 171 411 q 292 203 236 260 q 424 113 349 146 q 586 81 500 81 m 456 564 q 401 586 424 564 q 379 640 379 608 q 401 692 379 671 q 456 714 424 714 q 507 692 485 714 q 529 640 529 671 q 507 586 529 608 q 456 564 485 564 m 726 564 q 672 586 694 564 q 650 640 650 608 q 672 692 650 671 q 726 714 694 714 q 778 692 757 714 q 800 640 800 671 q 778 586 800 608 q 726 564 757 564 m 589 232 q 449 265 513 232 q 344 358 386 299 q 290 492 301 417 l 399 492 q 467 381 414 425 q 589 338 521 338 q 713 381 660 338 q 779 492 765 425 l 889 492 q 836 358 878 417 q 730 265 794 299 q 589 232 665 232 z "},"":{"ha":833,"x_min":11,"x_max":822,"o":"m 146 0 q 49 38 88 0 q 11 135 11 76 l 11 676 q 49 773 11 735 q 146 811 88 811 l 688 811 q 784 773 746 811 q 822 676 822 735 l 822 135 q 784 38 822 76 q 688 0 746 0 l 146 0 m 119 172 l 713 172 l 415 688 l 119 172 z "},"@":{"ha":1333,"x_min":57,"x_max":1276,"o":"m 943 -101 q 607 -168 782 -168 q 201 -34 346 -168 q 57 342 57 100 q 103 604 57 486 q 238 808 150 722 q 445 940 325 893 q 711 986 565 986 q 1008 925 881 986 q 1206 753 1135 864 q 1276 494 1276 643 q 1239 290 1276 376 q 1135 156 1201 203 q 982 108 1069 108 q 871 138 915 108 q 810 215 826 167 q 718 133 776 165 q 599 101 660 101 q 413 172 479 101 q 346 361 346 242 q 382 534 346 458 q 483 654 418 610 q 632 699 547 699 q 738 678 692 699 q 810 622 783 657 l 815 689 l 972 689 l 947 415 q 942 349 944 383 q 939 292 939 314 q 956 248 939 264 q 1003 232 974 232 q 1107 296 1069 232 q 1144 478 1144 360 q 706 864 1144 864 q 435 800 551 864 q 253 620 318 736 q 188 350 188 504 q 298 58 188 163 q 611 -46 408 -46 q 766 -32 694 -46 q 911 14 838 -18 l 943 -101 m 640 239 q 750 293 713 239 q 788 422 788 347 q 758 523 788 485 q 669 561 729 561 q 563 508 601 561 q 525 375 525 454 q 553 276 525 314 q 640 239 581 239 z "},"&":{"ha":985,"x_min":50,"x_max":964,"o":"m 403 -22 q 140 47 231 -22 q 50 243 50 115 q 97 405 50 338 q 256 540 144 472 q 180 642 207 593 q 153 757 153 692 q 230 940 153 871 q 451 1008 307 1008 q 675 941 600 1008 q 750 772 750 874 q 698 624 750 685 q 538 503 646 564 l 693 308 q 729 456 728 358 l 940 435 q 906 282 936 356 q 829 156 876 208 l 964 0 l 718 0 l 682 43 q 564 -4 638 14 q 403 -22 490 -22 m 431 625 q 511 686 486 657 q 536 754 536 715 q 515 810 536 790 q 456 831 493 831 q 391 808 414 831 q 368 749 368 786 q 382 692 368 719 q 431 625 396 664 m 419 158 q 497 168 465 158 q 546 192 528 178 l 365 414 q 290 346 314 381 q 267 267 267 311 q 306 188 267 218 q 419 158 344 158 z "},"¶":{"ha":917,"x_min":57,"x_max":814,"o":"m 346 0 l 346 429 q 194 463 260 429 q 93 560 129 497 q 57 704 57 622 q 97 853 57 790 q 210 951 138 917 q 379 986 282 986 l 814 986 l 814 0 l 628 0 l 628 828 l 532 828 l 532 0 l 346 0 z "},"§":{"ha":838,"x_min":71,"x_max":767,"o":"m 436 -92 q 176 -22 272 -92 q 71 161 81 47 l 281 172 q 328 88 290 118 q 431 58 365 58 q 521 79 492 58 q 550 135 550 100 q 509 195 550 169 q 361 240 468 221 q 151 324 214 269 q 92 468 88 378 q 121 558 93 518 q 204 625 149 599 q 117 693 144 656 q 90 779 90 731 q 180 948 90 888 q 426 1008 269 1008 q 660 942 569 1008 q 767 757 750 876 l 558 749 q 513 831 550 801 q 418 861 475 861 q 338 839 368 861 q 308 782 308 817 q 339 725 308 746 q 443 689 369 704 q 683 608 601 660 q 764 450 764 556 q 656 296 764 343 q 740 227 714 267 q 765 131 765 188 q 676 -33 765 26 q 436 -92 588 -92 m 446 367 q 535 390 501 367 q 568 456 568 414 q 543 513 568 490 q 481 545 518 535 q 407 556 443 556 q 322 531 356 556 q 289 468 289 506 q 325 398 289 428 q 446 367 361 368 z "},"©":{"ha":1138,"x_min":57,"x_max":1082,"o":"m 569 -17 q 369 23 463 -17 q 206 133 276 63 q 97 297 136 204 q 57 497 57 390 q 97 695 57 603 q 206 858 136 788 q 369 969 276 929 q 569 1008 463 1008 q 768 969 675 1008 q 931 858 861 929 q 1042 695 1001 788 q 1082 497 1082 603 q 1042 297 1082 390 q 931 133 1001 204 q 768 23 861 63 q 569 -17 675 -17 m 569 111 q 716 141 647 111 q 838 224 785 171 q 921 347 890 276 q 951 497 951 417 q 921 646 951 576 q 838 768 890 715 q 716 851 785 821 q 569 881 647 881 q 422 851 492 881 q 300 768 353 821 q 217 646 247 715 q 188 497 188 576 q 217 347 188 417 q 300 224 247 276 q 422 141 353 171 q 569 111 492 111 m 575 217 q 432 252 493 217 q 336 351 371 288 q 301 497 301 414 q 336 642 301 579 q 432 740 371 706 q 575 775 493 775 q 701 747 644 775 q 792 670 757 719 q 833 557 826 621 l 683 550 q 647 626 676 599 q 575 654 618 654 q 484 613 518 654 q 450 497 450 571 q 484 381 450 424 q 575 339 518 339 q 651 367 621 339 q 686 449 681 396 l 836 443 q 796 325 831 376 q 703 245 761 274 q 575 217 646 217 z "},"®":{"ha":897,"x_min":57,"x_max":840,"o":"m 449 222 q 296 253 367 222 q 171 338 225 283 q 87 463 117 392 q 57 617 57 535 q 87 769 57 697 q 171 894 117 840 q 296 978 225 947 q 449 1008 367 1008 q 601 978 531 1008 q 726 894 672 947 q 810 769 781 840 q 840 617 840 697 q 810 463 840 535 q 726 338 781 392 q 601 253 672 283 q 449 222 531 222 m 449 313 q 601 354 533 313 q 708 465 669 396 q 747 617 747 535 q 708 767 747 699 q 601 877 669 836 q 449 918 533 918 q 297 877 365 918 q 190 767 229 836 q 150 617 150 699 q 190 465 150 535 q 297 354 229 396 q 449 313 365 313 m 286 410 l 286 825 l 453 825 q 579 789 532 825 q 626 693 626 753 q 606 620 626 651 q 544 575 585 589 l 636 410 l 517 410 l 440 558 l 396 558 l 396 410 l 286 410 m 393 642 l 443 642 q 494 653 475 642 q 514 690 514 665 q 494 726 514 715 q 443 738 475 738 l 393 738 l 393 642 z "},"℗":{"ha":897,"x_min":57,"x_max":840,"o":"m 449 222 q 296 253 367 222 q 171 338 225 283 q 87 463 117 392 q 57 617 57 535 q 87 769 57 697 q 171 894 117 840 q 296 978 225 947 q 449 1008 367 1008 q 601 978 531 1008 q 726 894 672 947 q 810 769 781 840 q 840 617 840 697 q 810 463 840 535 q 726 338 781 392 q 601 253 672 283 q 449 222 531 222 m 449 313 q 601 354 533 313 q 708 465 669 396 q 747 617 747 535 q 708 767 747 699 q 601 877 669 836 q 449 918 533 918 q 297 877 365 918 q 190 767 229 836 q 150 617 150 699 q 190 465 150 535 q 297 354 229 396 q 449 313 365 313 m 304 410 l 304 825 l 471 825 q 600 789 556 825 q 644 693 644 753 q 600 595 644 632 q 471 558 556 558 l 414 558 l 414 410 l 304 410 m 413 642 l 461 642 q 513 653 493 642 q 532 690 532 665 q 513 726 532 715 q 461 738 493 738 l 413 738 l 413 642 z "},"™":{"ha":1264,"x_min":103,"x_max":1161,"o":"m 572 499 l 572 986 l 736 986 l 867 632 l 999 986 l 1161 986 l 1161 499 l 1035 499 l 1035 793 l 925 499 l 808 499 l 699 781 l 699 499 l 572 499 m 240 499 l 240 868 l 103 868 l 103 986 l 511 986 l 511 868 l 375 868 l 375 499 l 240 499 z "},"°":{"ha":600,"x_min":54,"x_max":546,"o":"m 300 517 q 177 549 233 517 q 88 637 121 581 q 54 763 54 693 q 88 888 54 832 q 177 976 121 943 q 300 1008 233 1008 q 423 976 367 1008 q 513 888 479 943 q 546 763 546 832 q 513 636 546 692 q 423 549 479 581 q 300 517 367 517 m 300 661 q 372 689 342 661 q 401 763 401 717 q 372 836 401 807 q 300 865 342 865 q 229 836 260 865 q 199 763 199 807 q 228 690 199 718 q 300 661 258 661 z "},"′":{"ha":354,"x_min":56,"x_max":299,"o":"m 56 660 l 110 986 l 299 986 l 226 660 l 56 660 z "},"″":{"ha":606,"x_min":56,"x_max":550,"o":"m 56 660 l 110 986 l 299 986 l 226 660 l 56 660 m 307 660 l 361 986 l 550 986 l 478 660 l 307 660 z "},"|":{"ha":408,"x_min":103,"x_max":306,"o":"m 103 -153 l 103 1042 l 306 1042 l 306 -153 l 103 -153 z "},"¦":{"ha":408,"x_min":103,"x_max":306,"o":"m 103 549 l 103 1042 l 306 1042 l 306 549 l 103 549 m 103 -153 l 103 340 l 306 340 l 306 -153 l 103 -153 z "},"†":{"ha":814,"x_min":103,"x_max":711,"o":"m 310 0 l 310 586 l 103 586 l 103 744 l 310 744 l 310 986 l 504 986 l 504 744 l 711 744 l 711 586 l 504 586 l 504 0 l 310 0 z "},"‡":{"ha":814,"x_min":103,"x_max":711,"o":"m 103 236 l 103 394 l 310 394 l 310 586 l 103 586 l 103 744 l 310 744 l 310 986 l 504 986 l 504 744 l 711 744 l 711 586 l 504 586 l 504 394 l 711 394 l 711 236 l 504 236 l 504 0 l 310 0 l 310 236 l 103 236 z "},"№":{"ha":1624,"x_min":103,"x_max":1521,"o":"m 103 0 l 103 986 l 336 986 l 728 306 l 728 986 l 939 986 l 939 0 l 703 0 l 314 657 l 314 0 l 103 0 m 1267 239 q 1081 305 1149 239 q 1013 482 1013 371 q 1081 658 1013 592 q 1267 725 1149 725 q 1453 658 1385 725 q 1521 482 1521 592 q 1453 305 1521 371 q 1267 239 1385 239 m 1267 350 q 1360 482 1360 350 q 1336 580 1360 546 q 1267 614 1313 614 q 1197 579 1221 614 q 1174 482 1174 544 q 1267 350 1174 350 m 1054 0 l 1054 142 l 1479 142 l 1479 0 l 1054 0 z "},"␌":{"ha":833,"x_min":104,"x_max":743,"o":"m 104 417 l 104 875 l 393 875 l 393 794 l 192 794 l 192 678 l 381 678 l 381 597 l 192 597 l 192 417 l 104 417 m 454 99 l 454 557 l 743 557 l 743 476 l 542 476 l 542 360 l 731 360 l 731 279 l 542 279 l 542 99 l 454 99 z "},"⏎":{"ha":1250,"x_min":57,"x_max":1194,"o":"m 604 -131 l 57 419 l 604 968 l 604 650 l 731 650 l 731 986 l 1194 986 l 1194 189 l 604 189 l 604 -131 m 476 194 l 476 333 l 1049 333 l 1049 840 l 878 840 l 878 506 l 476 506 l 476 643 l 253 419 l 476 194 z "},"␋":{"ha":833,"x_min":67,"x_max":761,"o":"m 207 417 l 67 875 l 153 875 l 250 544 l 347 875 l 433 875 l 293 417 l 207 417 m 553 99 l 553 476 l 426 476 l 426 557 l 761 557 l 761 476 l 635 476 l 635 99 l 553 99 z "}}}
